<?xml version="1.0" encoding="us-ascii" standalone="no"?><svg xmlns="http://www.w3.org/2000/svg" contentStyleType="text/css" height="2410px" preserveAspectRatio="none" style="width:2398px;height:2410px;background:#FFFFFF;" version="1.1" viewBox="0 0 2398 2410" width="2398px" zoomAndPan="magnify"><defs/><g><rect fill="#FFFFFF" height="476.7344" style="stroke:#181818;stroke-width:1.0;" width="10" x="329.5" y="160.5332"/><rect fill="#FFFFFF" height="581.2676" style="stroke:#181818;stroke-width:1.0;" width="10" x="329.5" y="668.5586"/><rect fill="#FFFFFF" height="62.582" style="stroke:#181818;stroke-width:1.0;" width="10" x="515.5" y="1611.3672"/><rect fill="#FFFFFF" height="62.582" style="stroke:#181818;stroke-width:1.0;" width="10" x="515.5" y="1996.1504"/><rect fill="#FFFFFF" height="948.0215" style="stroke:#181818;stroke-width:1.0;" width="10" x="695.5" y="1361.0391"/><rect fill="#FFFFFF" height="219.0371" style="stroke:#181818;stroke-width:1.0;" width="10" x="900.5" y="341.6484"/><rect fill="#FFFFFF" height="337.5703" style="stroke:#181818;stroke-width:1.0;" width="10" x="900.5" y="699.8496"/><rect fill="#FFFFFF" height="82.9121" style="stroke:#FFFFFF;stroke-width:1.0;" width="10" x="900.5" y="1174.9141"/><line style="stroke:#181818;stroke-width:1.0;" x1="900.5" x2="900.5" y1="1174.9141" y2="1257.8262"/><line style="stroke:#181818;stroke-width:1.0;" x1="910.5" x2="910.5" y1="1174.9141" y2="1257.8262"/><line style="stroke:#181818;stroke-width:1.0;" x1="900.5" x2="910.5" y1="1174.9141" y2="1174.9141"/><rect fill="#FFFFFF" height="219.0371" style="stroke:#FFFFFF;stroke-width:1.0;" width="10" x="900.5" y="1300.457"/><line style="stroke:#181818;stroke-width:1.0;" x1="900.5" x2="900.5" y1="1300.457" y2="1611.3672"/><line style="stroke:#181818;stroke-width:1.0;" x1="910.5" x2="910.5" y1="1300.457" y2="1611.3672"/><line style="stroke:#181818;stroke-width:1.0;" x1="900.5" x2="910.5" y1="1611.3672" y2="1611.3672"/><rect fill="#FFFFFF" height="219.0371" style="stroke:#181818;stroke-width:1.0;" width="10" x="905.5" y="1392.3301"/><rect fill="#FFFFFF" height="259.6191" style="stroke:#181818;stroke-width:1.0;" width="10" x="900.5" y="1736.5313"/><rect fill="#FFFFFF" height="93.873" style="stroke:#181818;stroke-width:1.0;" width="10" x="1166.5" y="310.3574"/><rect fill="#FFFFFF" height="156.45500000000004" style="stroke:#181818;stroke-width:1.0;" width="10" x="1166.5" y="466.8125"/><rect fill="#FFFFFF" height="233.0371" style="stroke:#181818;stroke-width:1.0;" width="10" x="1171.5" y="529.3945"/><rect fill="#FFFFFF" height="314.2793" style="stroke:#FFFFFF;stroke-width:1.0;" width="10" x="1166.5" y="943.5469"/><line style="stroke:#181818;stroke-width:1.0;" x1="1166.5" x2="1166.5" y1="943.5469" y2="1257.8262"/><line style="stroke:#181818;stroke-width:1.0;" x1="1176.5" x2="1176.5" y1="943.5469" y2="1257.8262"/><line style="stroke:#181818;stroke-width:1.0;" x1="1166.5" x2="1176.5" y1="943.5469" y2="943.5469"/><rect fill="#FFFFFF" height="154.4551" style="stroke:#FFFFFF;stroke-width:1.0;" width="10" x="1166.5" y="1300.457"/><line style="stroke:#181818;stroke-width:1.0;" x1="1166.5" x2="1166.5" y1="1300.457" y2="1454.9121"/><line style="stroke:#181818;stroke-width:1.0;" x1="1176.5" x2="1176.5" y1="1300.457" y2="1454.9121"/><line style="stroke:#181818;stroke-width:1.0;" x1="1166.5" x2="1176.5" y1="1454.9121" y2="1454.9121"/><rect fill="#FFFFFF" height="125.1641" style="stroke:#181818;stroke-width:1.0;" width="10" x="1171.5" y="974.8379"/><rect fill="#FFFFFF" height="219.0371" style="stroke:#181818;stroke-width:1.0;" width="10" x="1166.5" y="1548.7852"/><rect fill="#FFFFFF" height="187.7461" style="stroke:#181818;stroke-width:1.0;" width="10" x="1166.5" y="1933.5684"/><rect fill="#FFFFFF" height="760.2754" style="stroke:#181818;stroke-width:1.0;" width="10" x="1412.5" y="1454.9121"/><rect fill="#FFFFFF" height="250.3281" style="stroke:#181818;stroke-width:1.0;" width="10" x="1417.5" y="1902.2773"/><rect fill="#FFFFFF" height="281.6191" style="stroke:#181818;stroke-width:1.0;" width="10" x="1616.5" y="1517.4941"/><rect fill="#FFFFFF" height="31.291" style="stroke:#181818;stroke-width:1.0;" width="10" x="1837" y="235.4453"/><rect fill="#FFFFFF" height="62.582" style="stroke:#181818;stroke-width:1.0;" width="10" x="1837" y="404.2305"/><rect fill="#FFFFFF" height="212.4063" style="stroke:#181818;stroke-width:1.0;" width="10" x="1837" y="762.4316"/><rect fill="#FFFFFF" height="31.291" style="stroke:#181818;stroke-width:1.0;" width="10" x="2030.5" y="793.7227"/><rect fill="#FFFFFF" height="697.6934" style="stroke:#181818;stroke-width:1.0;" width="10" x="2030.5" y="1486.2031"/><line style="stroke:#181818;stroke-width:0.5;stroke-dasharray:5.0,5.0;" x1="21" x2="21" y1="83.6211" y2="1257.8262"/><line style="stroke:#A80036;stroke-width:1.0;stroke-dasharray:1.0,4.0;" x1="21" x2="21" y1="1257.8262" y2="1300.457"/><line style="stroke:#181818;stroke-width:0.5;stroke-dasharray:5.0,5.0;" x1="21" x2="21" y1="1300.457" y2="2327.0605"/><line style="stroke:#181818;stroke-width:0.5;stroke-dasharray:5.0,5.0;" x1="334.5" x2="334.5" y1="83.6211" y2="1257.8262"/><line style="stroke:#A80036;stroke-width:1.0;stroke-dasharray:1.0,4.0;" x1="334.5" x2="334.5" y1="1257.8262" y2="1300.457"/><line style="stroke:#181818;stroke-width:0.5;stroke-dasharray:5.0,5.0;" x1="334.5" x2="334.5" y1="1300.457" y2="2327.0605"/><line style="stroke:#181818;stroke-width:0.5;stroke-dasharray:5.0,5.0;" x1="520.5" x2="520.5" y1="1139.8125" y2="1257.8262"/><line style="stroke:#A80036;stroke-width:1.0;stroke-dasharray:1.0,4.0;" x1="520.5" x2="520.5" y1="1257.8262" y2="1300.457"/><line style="stroke:#181818;stroke-width:0.5;stroke-dasharray:5.0,5.0;" x1="520.5" x2="520.5" y1="1300.457" y2="2327.0605"/><line style="stroke:#181818;stroke-width:0.5;stroke-dasharray:5.0,5.0;" x1="700.5" x2="700.5" y1="1214.7246" y2="1257.8262"/><line style="stroke:#A80036;stroke-width:1.0;stroke-dasharray:1.0,4.0;" x1="700.5" x2="700.5" y1="1257.8262" y2="1300.457"/><line style="stroke:#181818;stroke-width:0.5;stroke-dasharray:5.0,5.0;" x1="700.5" x2="700.5" y1="1300.457" y2="2327.0605"/><line style="stroke:#181818;stroke-width:0.5;stroke-dasharray:5.0,5.0;" x1="905" x2="905" y1="200.3438" y2="1257.8262"/><line style="stroke:#A80036;stroke-width:1.0;stroke-dasharray:1.0,4.0;" x1="905" x2="905" y1="1257.8262" y2="1300.457"/><line style="stroke:#181818;stroke-width:0.5;stroke-dasharray:5.0,5.0;" x1="905" x2="905" y1="1300.457" y2="2327.0605"/><line style="stroke:#181818;stroke-width:0.5;stroke-dasharray:5.0,5.0;" x1="1171" x2="1171" y1="275.2559" y2="1257.8262"/><line style="stroke:#A80036;stroke-width:1.0;stroke-dasharray:1.0,4.0;" x1="1171" x2="1171" y1="1257.8262" y2="1300.457"/><line style="stroke:#181818;stroke-width:0.5;stroke-dasharray:5.0,5.0;" x1="1171" x2="1171" y1="1300.457" y2="2327.0605"/><line style="stroke:#181818;stroke-width:0.5;stroke-dasharray:5.0,5.0;" x1="1417.5" x2="1417.5" y1="908.4453" y2="1257.8262"/><line style="stroke:#A80036;stroke-width:1.0;stroke-dasharray:1.0,4.0;" x1="1417.5" x2="1417.5" y1="1257.8262" y2="1300.457"/><line style="stroke:#181818;stroke-width:0.5;stroke-dasharray:5.0,5.0;" x1="1417.5" x2="1417.5" y1="1300.457" y2="2327.0605"/><line style="stroke:#181818;stroke-width:0.5;stroke-dasharray:5.0,5.0;" x1="1621.5" x2="1621.5" y1="864.8242" y2="1257.8262"/><line style="stroke:#A80036;stroke-width:1.0;stroke-dasharray:1.0,4.0;" x1="1621.5" x2="1621.5" y1="1257.8262" y2="1300.457"/><line style="stroke:#181818;stroke-width:0.5;stroke-dasharray:5.0,5.0;" x1="1621.5" x2="1621.5" y1="1300.457" y2="2327.0605"/><line style="stroke:#181818;stroke-width:0.5;stroke-dasharray:5.0,5.0;" x1="1841.5" x2="1841.5" y1="125.4316" y2="1257.8262"/><line style="stroke:#A80036;stroke-width:1.0;stroke-dasharray:1.0,4.0;" x1="1841.5" x2="1841.5" y1="1257.8262" y2="1300.457"/><line style="stroke:#181818;stroke-width:0.5;stroke-dasharray:5.0,5.0;" x1="1841.5" x2="1841.5" y1="1300.457" y2="2327.0605"/><line style="stroke:#181818;stroke-width:0.5;stroke-dasharray:5.0,5.0;" x1="2035.5" x2="2035.5" y1="83.6211" y2="1257.8262"/><line style="stroke:#A80036;stroke-width:1.0;stroke-dasharray:1.0,4.0;" x1="2035.5" x2="2035.5" y1="1257.8262" y2="1300.457"/><line style="stroke:#181818;stroke-width:0.5;stroke-dasharray:5.0,5.0;" x1="2035.5" x2="2035.5" y1="1300.457" y2="2327.0605"/><text fill="#000000" font-family="sans-serif" font-size="14" lengthAdjust="spacing" textLength="25" x="6" y="80.1074">Bob </text><ellipse cx="21.5" cy="13.5" fill="#E2E2F0" rx="8" ry="8" style="stroke:#181818;stroke-width:0.5;"/><path d="M21.5,21.5 L21.5,48.5 M8.5,29.5 L34.5,29.5 M21.5,48.5 L8.5,63.5 M21.5,48.5 L34.5,63.5 " fill="none" style="stroke:#181818;stroke-width:0.5;"/><text fill="#000000" font-family="sans-serif" font-size="14" lengthAdjust="spacing" textLength="25" x="6" y="2341.168">Bob </text><ellipse cx="21.5" cy="2353.1816" fill="#E2E2F0" rx="8" ry="8" style="stroke:#181818;stroke-width:0.5;"/><path d="M21.5,2361.1816 L21.5,2388.1816 M8.5,2369.1816 L34.5,2369.1816 M21.5,2388.1816 L8.5,2403.1816 M21.5,2388.1816 L34.5,2403.1816 " fill="none" style="stroke:#181818;stroke-width:0.5;"/><rect fill="#E2E2F0" height="32.6211" rx="2.5" ry="2.5" style="stroke:#181818;stroke-width:0.5;" width="170" x="249.5" y="50"/><text fill="#000000" font-family="sans-serif" font-size="14" lengthAdjust="spacing" textLength="156" x="256.5" y="72.1074">SocketClientNetManager </text><rect fill="#E2E2F0" height="32.6211" rx="2.5" ry="2.5" style="stroke:#181818;stroke-width:0.5;" width="170" x="249.5" y="2326.0605"/><text fill="#000000" font-family="sans-serif" font-size="14" lengthAdjust="spacing" textLength="156" x="256.5" y="2348.168">SocketClientNetManager </text><rect fill="#E2E2F0" height="32.6211" rx="2.5" ry="2.5" style="stroke:#181818;stroke-width:0.5;" width="182" x="429.5" y="2326.0605"/><text fill="#000000" font-family="sans-serif" font-size="14" lengthAdjust="spacing" textLength="168" x="436.5" y="2348.168">SocketLobbyClientUpdater </text><rect fill="#E2E2F0" height="32.6211" rx="2.5" ry="2.5" style="stroke:#181818;stroke-width:0.5;" width="158" x="621.5" y="2326.0605"/><text fill="#000000" font-family="sans-serif" font-size="14" lengthAdjust="spacing" textLength="144" x="628.5" y="2348.168">SocketLobbyController </text><rect fill="#E2E2F0" height="32.6211" rx="2.5" ry="2.5" style="stroke:#181818;stroke-width:0.5;" width="149" x="831" y="2326.0605"/><text fill="#000000" font-family="sans-serif" font-size="14" lengthAdjust="spacing" textLength="135" x="838" y="2348.168">ClientSocketManager </text><rect fill="#E2E2F0" height="32.6211" rx="2.5" ry="2.5" style="stroke:#181818;stroke-width:0.5;" width="155" x="1094" y="2326.0605"/><text fill="#000000" font-family="sans-serif" font-size="14" lengthAdjust="spacing" textLength="141" x="1101" y="2348.168">ServerSocketManager </text><rect fill="#E2E2F0" height="32.6211" rx="2.5" ry="2.5" style="stroke:#181818;stroke-width:0.5;" width="200" x="1317.5" y="2326.0605"/><text fill="#000000" font-family="sans-serif" font-size="14" lengthAdjust="spacing" textLength="186" x="1324.5" y="2348.168">SocketServerLobbyController </text><rect fill="#E2E2F0" height="32.6211" rx="2.5" ry="2.5" style="stroke:#181818;stroke-width:0.5;" width="188" x="1527.5" y="2326.0605"/><text fill="#000000" font-family="sans-serif" font-size="14" lengthAdjust="spacing" textLength="174" x="1534.5" y="2348.168">SocketLobbyServerUpdater </text><rect fill="#E2E2F0" height="32.6211" rx="2.5" ry="2.5" style="stroke:#181818;stroke-width:0.5;" width="233" x="1725.5" y="2326.0605"/><text fill="#000000" font-family="sans-serif" font-size="14" lengthAdjust="spacing" textLength="219" x="1732.5" y="2348.168">SocketConnectionServerController </text><text fill="#000000" font-family="sans-serif" font-size="14" lengthAdjust="spacing" textLength="42" x="2011.5" y="80.1074">Server </text><ellipse cx="2035.5" cy="49" fill="#E2E2F0" rx="12" ry="12" style="stroke:#181818;stroke-width:0.5;"/><line style="stroke:#181818;stroke-width:0.5;" x1="2023.5" x2="2047.5" y1="63" y2="63"/><text fill="#000000" font-family="sans-serif" font-size="14" lengthAdjust="spacing" textLength="42" x="2011.5" y="2341.168">Server </text><ellipse cx="2035.5" cy="2360.6816" fill="#E2E2F0" rx="12" ry="12" style="stroke:#181818;stroke-width:0.5;"/><line style="stroke:#181818;stroke-width:0.5;" x1="2023.5" x2="2047.5" y1="2374.6816" y2="2374.6816"/><rect fill="#FFFFFF" height="476.7344" style="stroke:#181818;stroke-width:1.0;" width="10" x="329.5" y="160.5332"/><rect fill="#FFFFFF" height="581.2676" style="stroke:#181818;stroke-width:1.0;" width="10" x="329.5" y="668.5586"/><rect fill="#FFFFFF" height="62.582" style="stroke:#181818;stroke-width:1.0;" width="10" x="515.5" y="1611.3672"/><rect fill="#FFFFFF" height="62.582" style="stroke:#181818;stroke-width:1.0;" width="10" x="515.5" y="1996.1504"/><rect fill="#FFFFFF" height="948.0215" style="stroke:#181818;stroke-width:1.0;" width="10" x="695.5" y="1361.0391"/><rect fill="#FFFFFF" height="219.0371" style="stroke:#181818;stroke-width:1.0;" width="10" x="900.5" y="341.6484"/><rect fill="#FFFFFF" height="337.5703" style="stroke:#181818;stroke-width:1.0;" width="10" x="900.5" y="699.8496"/><rect fill="#FFFFFF" height="82.9121" style="stroke:#FFFFFF;stroke-width:1.0;" width="10" x="900.5" y="1174.9141"/><line style="stroke:#181818;stroke-width:1.0;" x1="900.5" x2="900.5" y1="1174.9141" y2="1257.8262"/><line style="stroke:#181818;stroke-width:1.0;" x1="910.5" x2="910.5" y1="1174.9141" y2="1257.8262"/><line style="stroke:#181818;stroke-width:1.0;" x1="900.5" x2="910.5" y1="1174.9141" y2="1174.9141"/><rect fill="#FFFFFF" height="310.9101999999998" style="stroke:#FFFFFF;stroke-width:1.0;" width="10" x="900.5" y="1300.457"/><line style="stroke:#181818;stroke-width:1.0;" x1="900.5" x2="900.5" y1="1300.457" y2="1611.3672"/><line style="stroke:#181818;stroke-width:1.0;" x1="910.5" x2="910.5" y1="1300.457" y2="1611.3672"/><line style="stroke:#181818;stroke-width:1.0;" x1="900.5" x2="910.5" y1="1611.3672" y2="1611.3672"/><rect fill="#FFFFFF" height="885.4394000000004" style="stroke:#181818;stroke-width:1.0;" width="10" x="905.5" y="1392.3301"/><rect fill="#FFFFFF" height="259.6191" style="stroke:#181818;stroke-width:1.0;" width="10" x="900.5" y="1736.5313"/><rect fill="#FFFFFF" height="93.873" style="stroke:#181818;stroke-width:1.0;" width="10" x="1166.5" y="310.3574"/><rect fill="#FFFFFF" height="156.45500000000004" style="stroke:#181818;stroke-width:1.0;" width="10" x="1166.5" y="466.8125"/><rect fill="#FFFFFF" height="233.0371" style="stroke:#181818;stroke-width:1.0;" width="10" x="1171.5" y="529.3945"/><rect fill="#FFFFFF" height="314.2793" style="stroke:#FFFFFF;stroke-width:1.0;" width="10" x="1166.5" y="943.5469"/><line style="stroke:#181818;stroke-width:1.0;" x1="1166.5" x2="1166.5" y1="943.5469" y2="1257.8262"/><line style="stroke:#181818;stroke-width:1.0;" x1="1176.5" x2="1176.5" y1="943.5469" y2="1257.8262"/><line style="stroke:#181818;stroke-width:1.0;" x1="1166.5" x2="1176.5" y1="943.5469" y2="943.5469"/><rect fill="#FFFFFF" height="154.4551" style="stroke:#FFFFFF;stroke-width:1.0;" width="10" x="1166.5" y="1300.457"/><line style="stroke:#181818;stroke-width:1.0;" x1="1166.5" x2="1166.5" y1="1300.457" y2="1454.9121"/><line style="stroke:#181818;stroke-width:1.0;" x1="1176.5" x2="1176.5" y1="1300.457" y2="1454.9121"/><line style="stroke:#181818;stroke-width:1.0;" x1="1166.5" x2="1176.5" y1="1454.9121" y2="1454.9121"/><rect fill="#FFFFFF" height="125.1641" style="stroke:#181818;stroke-width:1.0;" width="10" x="1171.5" y="974.8379"/><rect fill="#FFFFFF" height="219.0371" style="stroke:#181818;stroke-width:1.0;" width="10" x="1166.5" y="1548.7852"/><rect fill="#FFFFFF" height="187.7461" style="stroke:#181818;stroke-width:1.0;" width="10" x="1166.5" y="1933.5684"/><rect fill="#FFFFFF" height="760.2754" style="stroke:#181818;stroke-width:1.0;" width="10" x="1412.5" y="1454.9121"/><rect fill="#FFFFFF" height="250.3281" style="stroke:#181818;stroke-width:1.0;" width="10" x="1417.5" y="1902.2773"/><rect fill="#FFFFFF" height="281.6191" style="stroke:#181818;stroke-width:1.0;" width="10" x="1616.5" y="1517.4941"/><rect fill="#FFFFFF" height="31.291" style="stroke:#181818;stroke-width:1.0;" width="10" x="1837" y="235.4453"/><rect fill="#FFFFFF" height="62.582" style="stroke:#181818;stroke-width:1.0;" width="10" x="1837" y="404.2305"/><rect fill="#FFFFFF" height="212.4063" style="stroke:#181818;stroke-width:1.0;" width="10" x="1837" y="762.4316"/><rect fill="#FFFFFF" height="31.291" style="stroke:#181818;stroke-width:1.0;" width="10" x="2030.5" y="793.7227"/><rect fill="#FFFFFF" height="697.6934" style="stroke:#181818;stroke-width:1.0;" width="10" x="2030.5" y="1486.2031"/><polygon fill="#181818" points="1969.5,112.9121,1959.5,116.9121,1969.5,120.9121,1965.5,116.9121" style="stroke:#181818;stroke-width:1.0;"/><line style="stroke:#181818;stroke-width:1.0;" x1="1963.5" x2="2034.5" y1="116.9121" y2="116.9121"/><text fill="#000000" font-family="sans-serif" font-size="13" lengthAdjust="spacing" textLength="53" x="1975.5" y="111.6494">new(port) </text><rect fill="#E2E2F0" height="32.6211" rx="2.5" ry="2.5" style="stroke:#181818;stroke-width:0.5;" width="233" x="1725.5" y="93.6211"/><text fill="#000000" font-family="sans-serif" font-size="14" lengthAdjust="spacing" textLength="219" x="1732.5" y="115.7285">SocketConnectionServerController </text><polygon fill="#181818" points="317.5,156.5332,327.5,160.5332,317.5,164.5332,321.5,160.5332" style="stroke:#181818;stroke-width:1.0;"/><line style="stroke:#181818;stroke-width:1.0;" x1="21.5" x2="323.5" y1="160.5332" y2="160.5332"/><text fill="#000000" font-family="sans-serif" font-size="13" lengthAdjust="spacing" textLength="177" x="28.5" y="155.2705">connect(serverAddress, "Bob") </text><polygon fill="#181818" points="819,187.8242,829,191.8242,819,195.8242,823,191.8242" style="stroke:#181818;stroke-width:1.0;"/><line style="stroke:#181818;stroke-width:1.0;" x1="339.5" x2="825" y1="191.8242" y2="191.8242"/><text fill="#000000" font-family="sans-serif" font-size="13" lengthAdjust="spacing" textLength="113" x="346.5" y="186.5615">new(serverAddress) </text><rect fill="#E2E2F0" height="32.6211" rx="2.5" ry="2.5" style="stroke:#181818;stroke-width:0.5;" width="149" x="831" y="168.5332"/><text fill="#000000" font-family="sans-serif" font-size="14" lengthAdjust="spacing" textLength="135" x="838" y="190.6406">ClientSocketManager </text><polygon fill="#181818" points="1825,231.4453,1835,235.4453,1825,239.4453,1829,235.4453" style="stroke:#181818;stroke-width:1.0;"/><line style="stroke:#181818;stroke-width:1.0;" x1="905.5" x2="1831" y1="235.4453" y2="235.4453"/><text fill="#000000" font-family="sans-serif" font-size="13" lengthAdjust="spacing" textLength="46" x="912.5" y="230.1826">connect </text><polygon fill="#181818" points="1260,262.7363,1250,266.7363,1260,270.7363,1256,266.7363" style="stroke:#181818;stroke-width:1.0;"/><line style="stroke:#181818;stroke-width:1.0;" x1="1254" x2="1841" y1="266.7363" y2="266.7363"/><text fill="#000000" font-family="sans-serif" font-size="13" lengthAdjust="spacing" textLength="70" x="1266" y="261.4736">new(socket) </text><rect fill="#E2E2F0" height="32.6211" rx="2.5" ry="2.5" style="stroke:#181818;stroke-width:0.5;" width="155" x="1094" y="243.4453"/><text fill="#000000" font-family="sans-serif" font-size="14" lengthAdjust="spacing" textLength="141" x="1101" y="265.5527">ServerSocketManager </text><polygon fill="#181818" points="1187.5,306.3574,1177.5,310.3574,1187.5,314.3574,1183.5,310.3574" style="stroke:#181818;stroke-width:1.0;"/><line style="stroke:#181818;stroke-width:1.0;" x1="1181.5" x2="1841" y1="310.3574" y2="310.3574"/><text fill="#000000" font-family="sans-serif" font-size="13" lengthAdjust="spacing" textLength="147" x="1193.5" y="305.0947">receive(JoinPacket.class) </text><polygon fill="#181818" points="888.5,337.6484,898.5,341.6484,888.5,345.6484,892.5,341.6484" style="stroke:#181818;stroke-width:1.0;"/><line style="stroke:#181818;stroke-width:1.0;" x1="339.5" x2="894.5" y1="341.6484" y2="341.6484"/><text fill="#000000" font-family="sans-serif" font-size="13" lengthAdjust="spacing" textLength="168" x="346.5" y="336.3857">send(new JoinPacket("Bob")) </text><polygon fill="#181818" points="1154.5,368.9395,1164.5,372.9395,1154.5,376.9395,1158.5,372.9395" style="stroke:#181818;stroke-width:1.0;"/><line style="stroke:#181818;stroke-width:1.0;stroke-dasharray:2.0,2.0;" x1="910.5" x2="1160.5" y1="372.9395" y2="372.9395"/><text fill="#000000" font-family="sans-serif" font-size="13" lengthAdjust="spacing" textLength="105" x="917.5" y="367.6768">JoinPacket("Bob") </text><polygon fill="#181818" points="1825,400.2305,1835,404.2305,1825,408.2305,1829,404.2305" style="stroke:#181818;stroke-width:1.0;"/><line style="stroke:#181818;stroke-width:1.0;" x1="1171.5" x2="1831" y1="404.2305" y2="404.2305"/><text fill="#000000" font-family="sans-serif" font-size="13" lengthAdjust="spacing" textLength="149" x="1178.5" y="398.9678">returns JoinPacket("Bob") </text><polygon fill="#181818" points="2023.5,431.5215,2033.5,435.5215,2023.5,439.5215,2027.5,435.5215" style="stroke:#181818;stroke-width:1.0;"/><line style="stroke:#181818;stroke-width:1.0;" x1="1847" x2="2029.5" y1="435.5215" y2="435.5215"/><text fill="#000000" font-family="sans-serif" font-size="13" lengthAdjust="spacing" textLength="124" x="1854" y="430.2588">connectPlayer("Bob") </text><polygon fill="#181818" points="1187.5,462.8125,1177.5,466.8125,1187.5,470.8125,1183.5,466.8125" style="stroke:#181818;stroke-width:1.0;"/><line style="stroke:#181818;stroke-width:1.0;" x1="1181.5" x2="1841" y1="466.8125" y2="466.8125"/><text fill="#000000" font-family="sans-serif" font-size="13" lengthAdjust="spacing" textLength="149" x="1193.5" y="461.5498">reply(new JoinedPacket()) </text><polygon fill="#181818" points="921.5,494.1035,911.5,498.1035,921.5,502.1035,917.5,498.1035" style="stroke:#181818;stroke-width:1.0;"/><line style="stroke:#181818;stroke-width:1.0;stroke-dasharray:2.0,2.0;" x1="915.5" x2="1165.5" y1="498.1035" y2="498.1035"/><text fill="#000000" font-family="sans-serif" font-size="13" lengthAdjust="spacing" textLength="86" x="927.5" y="492.8408">JoinedPacket() </text><polygon fill="#181818" points="1192.5,525.3945,1182.5,529.3945,1192.5,533.3945,1188.5,529.3945" style="stroke:#181818;stroke-width:1.0;"/><line style="stroke:#181818;stroke-width:1.0;" x1="1186.5" x2="1841" y1="529.3945" y2="529.3945"/><text fill="#000000" font-family="sans-serif" font-size="13" lengthAdjust="spacing" textLength="182" x="1198.5" y="524.1318">receive(JoinGamePacket.class) </text><polygon fill="#181818" points="350.5,556.6855,340.5,560.6855,350.5,564.6855,346.5,560.6855" style="stroke:#181818;stroke-width:1.0;"/><line style="stroke:#181818;stroke-width:1.0;" x1="344.5" x2="904.5" y1="560.6855" y2="560.6855"/><text fill="#000000" font-family="sans-serif" font-size="13" lengthAdjust="spacing" textLength="122" x="356.5" y="555.4229">returns JoinedPacket </text><polygon fill="#181818" points="1159.5,587.9766,1169.5,591.9766,1159.5,595.9766,1163.5,591.9766" style="stroke:#181818;stroke-width:1.0;"/><line style="stroke:#181818;stroke-width:1.0;stroke-dasharray:2.0,2.0;" x1="905.5" x2="1165.5" y1="591.9766" y2="591.9766"/><text fill="#000000" font-family="sans-serif" font-size="13" lengthAdjust="spacing" textLength="21" x="912.5" y="586.7139">ack </text><polygon fill="#181818" points="1830,619.2676,1840,623.2676,1830,627.2676,1834,623.2676" style="stroke:#181818;stroke-width:1.0;"/><line style="stroke:#181818;stroke-width:1.0;" x1="1181.5" x2="1836" y1="623.2676" y2="623.2676"/><text fill="#000000" font-family="sans-serif" font-size="13" lengthAdjust="spacing" textLength="21" x="1183.5" y="618.0049">ack </text><polygon fill="#181818" points="32.5,633.2676,22.5,637.2676,32.5,641.2676,28.5,637.2676" style="stroke:#181818;stroke-width:1.0;"/><line style="stroke:#181818;stroke-width:1.0;" x1="26.5" x2="333.5" y1="637.2676" y2="637.2676"/><polygon fill="#181818" points="317.5,664.5586,327.5,668.5586,317.5,672.5586,321.5,668.5586" style="stroke:#181818;stroke-width:1.0;"/><line style="stroke:#181818;stroke-width:1.0;" x1="21.5" x2="323.5" y1="668.5586" y2="668.5586"/><text fill="#000000" font-family="sans-serif" font-size="13" lengthAdjust="spacing" textLength="96" x="28.5" y="663.2959">joinGame("Bob") </text><polygon fill="#181818" points="888.5,695.8496,898.5,699.8496,888.5,703.8496,892.5,699.8496" style="stroke:#181818;stroke-width:1.0;"/><line style="stroke:#181818;stroke-width:1.0;" x1="339.5" x2="894.5" y1="699.8496" y2="699.8496"/><text fill="#000000" font-family="sans-serif" font-size="13" lengthAdjust="spacing" textLength="170" x="346.5" y="694.5869">send(new JoinGamePacket()) </text><polygon fill="#181818" points="1154.5,727.1406,1164.5,731.1406,1154.5,735.1406,1158.5,731.1406" style="stroke:#181818;stroke-width:1.0;"/><line style="stroke:#181818;stroke-width:1.0;stroke-dasharray:2.0,2.0;" x1="910.5" x2="1160.5" y1="731.1406" y2="731.1406"/><text fill="#000000" font-family="sans-serif" font-size="13" lengthAdjust="spacing" textLength="107" x="917.5" y="725.8779">JoinGamePacket() </text><polygon fill="#181818" points="1825,758.4316,1835,762.4316,1825,766.4316,1829,762.4316" style="stroke:#181818;stroke-width:1.0;"/><line style="stroke:#181818;stroke-width:1.0;" x1="1171.5" x2="1831" y1="762.4316" y2="762.4316"/><text fill="#000000" font-family="sans-serif" font-size="13" lengthAdjust="spacing" textLength="143" x="1182.5" y="757.1689">returns JoinGamePacket </text><polygon fill="#181818" points="2018.5,789.7227,2028.5,793.7227,2018.5,797.7227,2022.5,793.7227" style="stroke:#181818;stroke-width:1.0;"/><line style="stroke:#181818;stroke-width:1.0;" x1="1847" x2="2024.5" y1="793.7227" y2="793.7227"/><text fill="#000000" font-family="sans-serif" font-size="13" lengthAdjust="spacing" textLength="96" x="1854" y="788.46">joinGame("Bob") </text><polygon fill="#181818" points="1858,821.0137,1848,825.0137,1858,829.0137,1854,825.0137" style="stroke:#181818;stroke-width:1.0;"/><line style="stroke:#181818;stroke-width:1.0;" x1="1852" x2="2034.5" y1="825.0137" y2="825.0137"/><text fill="#000000" font-family="sans-serif" font-size="13" lengthAdjust="spacing" textLength="79" x="1864" y="819.751">returns Lobby </text><polygon fill="#181818" points="1726.5,852.3047,1716.5,856.3047,1726.5,860.3047,1722.5,856.3047" style="stroke:#181818;stroke-width:1.0;"/><line style="stroke:#181818;stroke-width:1.0;" x1="1720.5" x2="1836" y1="856.3047" y2="856.3047"/><text fill="#000000" font-family="sans-serif" font-size="13" lengthAdjust="spacing" textLength="31" x="1732.5" y="851.042">new() </text><rect fill="#E2E2F0" height="32.6211" rx="2.5" ry="2.5" style="stroke:#181818;stroke-width:0.5;" width="188" x="1527.5" y="833.0137"/><text fill="#000000" font-family="sans-serif" font-size="14" lengthAdjust="spacing" textLength="174" x="1534.5" y="855.1211">SocketLobbyServerUpdater </text><polygon fill="#181818" points="1528.5,895.9258,1518.5,899.9258,1528.5,903.9258,1524.5,899.9258" style="stroke:#181818;stroke-width:1.0;"/><line style="stroke:#181818;stroke-width:1.0;" x1="1522.5" x2="1836" y1="899.9258" y2="899.9258"/><text fill="#000000" font-family="sans-serif" font-size="13" lengthAdjust="spacing" textLength="31" x="1534.5" y="894.6631">new() </text><rect fill="#E2E2F0" height="32.6211" rx="2.5" ry="2.5" style="stroke:#181818;stroke-width:0.5;" width="200" x="1317.5" y="876.6348"/><text fill="#000000" font-family="sans-serif" font-size="14" lengthAdjust="spacing" textLength="186" x="1324.5" y="898.7422">SocketServerLobbyController </text><polygon fill="#181818" points="1187.5,939.5469,1177.5,943.5469,1187.5,947.5469,1183.5,943.5469" style="stroke:#181818;stroke-width:1.0;"/><line style="stroke:#181818;stroke-width:1.0;" x1="1181.5" x2="1416.5" y1="943.5469" y2="943.5469"/><text fill="#000000" font-family="sans-serif" font-size="13" lengthAdjust="spacing" textLength="161" x="1193.5" y="938.2842">receive(ReadyPacket.class) </text><polygon fill="#181818" points="1192.5,970.8379,1182.5,974.8379,1192.5,978.8379,1188.5,974.8379" style="stroke:#181818;stroke-width:1.0;"/><line style="stroke:#181818;stroke-width:1.0;" x1="1186.5" x2="1841" y1="974.8379" y2="974.8379"/><text fill="#000000" font-family="sans-serif" font-size="13" lengthAdjust="spacing" textLength="178" x="1198.5" y="969.5752">reply(new LobbyPacket(lobby)) </text><polygon fill="#181818" points="921.5,1002.1289,911.5,1006.1289,921.5,1010.1289,917.5,1006.1289" style="stroke:#181818;stroke-width:1.0;"/><line style="stroke:#181818;stroke-width:1.0;stroke-dasharray:2.0,2.0;" x1="915.5" x2="1170.5" y1="1006.1289" y2="1006.1289"/><text fill="#000000" font-family="sans-serif" font-size="13" lengthAdjust="spacing" textLength="115" x="927.5" y="1000.8662">LobbyPacket(lobby) </text><polygon fill="#181818" points="350.5,1033.4199,340.5,1037.4199,350.5,1041.4199,346.5,1037.4199" style="stroke:#181818;stroke-width:1.0;"/><line style="stroke:#181818;stroke-width:1.0;" x1="344.5" x2="904.5" y1="1037.4199" y2="1037.4199"/><text fill="#000000" font-family="sans-serif" font-size="13" lengthAdjust="spacing" textLength="120" x="356.5" y="1032.1572">returns LobbyPacket </text><polygon fill="#181818" points="1159.5,1064.7109,1169.5,1068.7109,1159.5,1072.7109,1163.5,1068.7109" style="stroke:#181818;stroke-width:1.0;"/><line style="stroke:#181818;stroke-width:1.0;stroke-dasharray:2.0,2.0;" x1="905.5" x2="1165.5" y1="1068.7109" y2="1068.7109"/><text fill="#000000" font-family="sans-serif" font-size="13" lengthAdjust="spacing" textLength="21" x="912.5" y="1063.4482">ack </text><polygon fill="#181818" points="1830,1096.002,1840,1100.002,1830,1104.002,1834,1100.002" style="stroke:#181818;stroke-width:1.0;"/><line style="stroke:#181818;stroke-width:1.0;" x1="1176.5" x2="1836" y1="1100.002" y2="1100.002"/><text fill="#000000" font-family="sans-serif" font-size="13" lengthAdjust="spacing" textLength="21" x="1183.5" y="1094.7393">ack </text><polygon fill="#181818" points="417.5,1127.293,427.5,1131.293,417.5,1135.293,421.5,1131.293" style="stroke:#181818;stroke-width:1.0;"/><line style="stroke:#181818;stroke-width:1.0;" x1="339.5" x2="423.5" y1="1131.293" y2="1131.293"/><text fill="#000000" font-family="sans-serif" font-size="13" lengthAdjust="spacing" textLength="62" x="346.5" y="1126.0303">new(lobby) </text><rect fill="#E2E2F0" height="32.6211" rx="2.5" ry="2.5" style="stroke:#181818;stroke-width:0.5;" width="182" x="429.5" y="1108.002"/><text fill="#000000" font-family="sans-serif" font-size="14" lengthAdjust="spacing" textLength="168" x="436.5" y="1130.1094">SocketLobbyClientUpdater </text><polygon fill="#181818" points="888.5,1170.9141,898.5,1174.9141,888.5,1178.9141,892.5,1174.9141" style="stroke:#181818;stroke-width:1.0;"/><line style="stroke:#181818;stroke-width:1.0;" x1="520.5" x2="894.5" y1="1174.9141" y2="1174.9141"/><text fill="#000000" font-family="sans-serif" font-size="13" lengthAdjust="spacing" textLength="204" x="527.5" y="1169.6514">receive(LobbyUpdaterPacket.class) </text><polygon fill="#181818" points="609.5,1202.2051,619.5,1206.2051,609.5,1210.2051,613.5,1206.2051" style="stroke:#181818;stroke-width:1.0;"/><line style="stroke:#181818;stroke-width:1.0;" x1="339.5" x2="615.5" y1="1206.2051" y2="1206.2051"/><text fill="#000000" font-family="sans-serif" font-size="13" lengthAdjust="spacing" textLength="31" x="346.5" y="1200.9424">new() </text><rect fill="#E2E2F0" height="32.6211" rx="2.5" ry="2.5" style="stroke:#181818;stroke-width:0.5;" width="158" x="621.5" y="1182.9141"/><text fill="#000000" font-family="sans-serif" font-size="14" lengthAdjust="spacing" textLength="144" x="628.5" y="1205.0215">SocketLobbyController </text><polygon fill="#181818" points="32.5,1245.8262,22.5,1249.8262,32.5,1253.8262,28.5,1249.8262" style="stroke:#181818;stroke-width:1.0;"/><line style="stroke:#181818;stroke-width:1.0;" x1="26.5" x2="333.5" y1="1249.8262" y2="1249.8262"/><text fill="#000000" font-family="sans-serif" font-size="13" lengthAdjust="spacing" textLength="284" x="38.5" y="1244.5635">returns new LobbyAndController(lobby, controller) </text><text fill="#000000" font-family="sans-serif" font-size="11" lengthAdjust="spacing" textLength="63" x="997" y="1283.6963">After a while </text><path d="M5,1305.457 L5,1332.457 L2053,1332.457 L2053,1315.457 L2043,1305.457 L5,1305.457 " fill="#FEFFDD" style="stroke:#181818;stroke-width:0.5;"/><path d="M2043,1305.457 L2043,1315.457 L2053,1315.457 L2043,1305.457 " fill="#FEFFDD" style="stroke:#181818;stroke-width:0.5;"/><text fill="#000000" font-family="sans-serif" font-size="13" lengthAdjust="spacing" textLength="264" x="892.75" y="1324.4854">Bob decides that he's ready to start the game </text><polygon fill="#181818" points="683.5,1357.0391,693.5,1361.0391,683.5,1365.0391,687.5,1361.0391" style="stroke:#181818;stroke-width:1.0;"/><line style="stroke:#181818;stroke-width:1.0;" x1="21.5" x2="689.5" y1="1361.0391" y2="1361.0391"/><text fill="#000000" font-family="sans-serif" font-size="13" lengthAdjust="spacing" textLength="62" x="28.5" y="1355.7764">ready(true) </text><polygon fill="#181818" points="893.5,1388.3301,903.5,1392.3301,893.5,1396.3301,897.5,1392.3301" style="stroke:#181818;stroke-width:1.0;"/><line style="stroke:#181818;stroke-width:1.0;" x1="705.5" x2="899.5" y1="1392.3301" y2="1392.3301"/><text fill="#000000" font-family="sans-serif" font-size="13" lengthAdjust="spacing" textLength="171" x="712.5" y="1387.0674">send(new ReadyPacket(true)) </text><polygon fill="#181818" points="1154.5,1419.6211,1164.5,1423.6211,1154.5,1427.6211,1158.5,1423.6211" style="stroke:#181818;stroke-width:1.0;"/><line style="stroke:#181818;stroke-width:1.0;stroke-dasharray:2.0,2.0;" x1="915.5" x2="1160.5" y1="1423.6211" y2="1423.6211"/><text fill="#000000" font-family="sans-serif" font-size="13" lengthAdjust="spacing" textLength="108" x="922.5" y="1418.3584">ReadyPacket(true) </text><polygon fill="#181818" points="1400.5,1450.9121,1410.5,1454.9121,1400.5,1458.9121,1404.5,1454.9121" style="stroke:#181818;stroke-width:1.0;"/><line style="stroke:#181818;stroke-width:1.0;" x1="1171.5" x2="1406.5" y1="1454.9121" y2="1454.9121"/><text fill="#000000" font-family="sans-serif" font-size="13" lengthAdjust="spacing" textLength="152" x="1178.5" y="1449.6494">returns ReadyPacket(true) </text><polygon fill="#181818" points="2018.5,1482.2031,2028.5,1486.2031,2018.5,1490.2031,2022.5,1486.2031" style="stroke:#181818;stroke-width:1.0;"/><line style="stroke:#181818;stroke-width:1.0;" x1="1422.5" x2="2024.5" y1="1486.2031" y2="1486.2031"/><text fill="#000000" font-family="sans-serif" font-size="13" lengthAdjust="spacing" textLength="103" x="1429.5" y="1480.9404">ready("Bob", true) </text><polygon fill="#181818" points="1637.5,1513.4941,1627.5,1517.4941,1637.5,1521.4941,1633.5,1517.4941" style="stroke:#181818;stroke-width:1.0;"/><line style="stroke:#181818;stroke-width:1.0;" x1="1631.5" x2="2029.5" y1="1517.4941" y2="1517.4941"/><text fill="#000000" font-family="sans-serif" font-size="13" lengthAdjust="spacing" textLength="184" x="1643.5" y="1512.2314">updatePlayerReady("Bob", true) </text><polygon fill="#181818" points="1187.5,1544.7852,1177.5,1548.7852,1187.5,1552.7852,1183.5,1548.7852" style="stroke:#181818;stroke-width:1.0;"/><line style="stroke:#181818;stroke-width:1.0;" x1="1181.5" x2="1615.5" y1="1548.7852" y2="1548.7852"/><text fill="#000000" font-family="sans-serif" font-size="13" lengthAdjust="spacing" textLength="290" x="1193.5" y="1543.5225">send(new UpdatePlayerReadyPacket("Bob", true)) </text><polygon fill="#181818" points="926.5,1576.0762,916.5,1580.0762,926.5,1584.0762,922.5,1580.0762" style="stroke:#181818;stroke-width:1.0;"/><line style="stroke:#181818;stroke-width:1.0;stroke-dasharray:2.0,2.0;" x1="920.5" x2="1165.5" y1="1580.0762" y2="1580.0762"/><text fill="#000000" font-family="sans-serif" font-size="13" lengthAdjust="spacing" textLength="227" x="932.5" y="1574.8135">UpdatePlayerReadyPacket("Bob", true) </text><polygon fill="#181818" points="536.5,1607.3672,526.5,1611.3672,536.5,1615.3672,532.5,1611.3672" style="stroke:#181818;stroke-width:1.0;"/><line style="stroke:#181818;stroke-width:1.0;" x1="530.5" x2="899.5" y1="1611.3672" y2="1611.3672"/><text fill="#000000" font-family="sans-serif" font-size="13" lengthAdjust="spacing" textLength="271" x="542.5" y="1606.1045">returns UpdatePlayerReadyPacket("Bob", true) </text><ellipse cx="21" cy="1641.9082" fill="none" rx="4" ry="4" style="stroke:#181818;stroke-width:1.5;"/><polygon fill="#181818" points="38,1638.6582,28,1642.6582,38,1646.6582,34,1642.6582" style="stroke:#181818;stroke-width:1.0;"/><line style="stroke:#181818;stroke-width:1.0;stroke-dasharray:2.0,2.0;" x1="36" x2="514.5" y1="1642.6582" y2="1642.6582"/><text fill="#000000" font-family="sans-serif" font-size="13" lengthAdjust="spacing" textLength="194" x="38.5" y="1637.3955">receives player update via listener </text><polygon fill="#181818" points="888.5,1669.9492,898.5,1673.9492,888.5,1677.9492,892.5,1673.9492" style="stroke:#181818;stroke-width:1.0;"/><line style="stroke:#181818;stroke-width:1.0;" x1="520.5" x2="894.5" y1="1673.9492" y2="1673.9492"/><text fill="#000000" font-family="sans-serif" font-size="13" lengthAdjust="spacing" textLength="21" x="527.5" y="1668.6865">ack </text><polygon fill="#181818" points="1154.5,1701.2402,1164.5,1705.2402,1154.5,1709.2402,1158.5,1705.2402" style="stroke:#181818;stroke-width:1.0;"/><line style="stroke:#181818;stroke-width:1.0;stroke-dasharray:2.0,2.0;" x1="915.5" x2="1160.5" y1="1705.2402" y2="1705.2402"/><text fill="#000000" font-family="sans-serif" font-size="13" lengthAdjust="spacing" textLength="21" x="917.5" y="1699.9775">ack </text><polygon fill="#181818" points="893.5,1732.5313,903.5,1736.5313,893.5,1740.5313,897.5,1736.5313" style="stroke:#181818;stroke-width:1.0;"/><line style="stroke:#181818;stroke-width:1.0;" x1="520.5" x2="899.5" y1="1736.5313" y2="1736.5313"/><text fill="#000000" font-family="sans-serif" font-size="13" lengthAdjust="spacing" textLength="204" x="527.5" y="1731.2686">receive(LobbyUpdaterPacket.class) </text><polygon fill="#181818" points="1604.5,1763.8223,1614.5,1767.8223,1604.5,1771.8223,1608.5,1767.8223" style="stroke:#181818;stroke-width:1.0;"/><line style="stroke:#181818;stroke-width:1.0;" x1="1171.5" x2="1610.5" y1="1767.8223" y2="1767.8223"/><text fill="#000000" font-family="sans-serif" font-size="13" lengthAdjust="spacing" textLength="40" x="1178.5" y="1762.5596">returns </text><polygon fill="#181818" points="2018.5,1795.1133,2028.5,1799.1133,2018.5,1803.1133,2022.5,1799.1133" style="stroke:#181818;stroke-width:1.0;"/><line style="stroke:#181818;stroke-width:1.0;" x1="1621.5" x2="2024.5" y1="1799.1133" y2="1799.1133"/><text fill="#000000" font-family="sans-serif" font-size="13" lengthAdjust="spacing" textLength="40" x="1628.5" y="1793.8506">returns </text><path d="M2045,1812.1133 L2045,1873.1133 L2391,1873.1133 L2391,1822.1133 L2381,1812.1133 L2045,1812.1133 " fill="#FEFFDD" style="stroke:#181818;stroke-width:0.5;"/><path d="M2381,1812.1133 L2381,1822.1133 L2391,1822.1133 L2381,1812.1133 " fill="#FEFFDD" style="stroke:#181818;stroke-width:0.5;"/><text fill="#000000" font-family="sans-serif" font-size="13" lengthAdjust="spacing" textLength="325" x="2051" y="1831.1416">If there's not enough players or a player is not ready yet, </text><text fill="#000000" font-family="sans-serif" font-size="13" lengthAdjust="spacing" textLength="217" x="2051" y="1848.4326">the server would stop here and return. </text><text fill="#000000" font-family="sans-serif" font-size="13" lengthAdjust="spacing" textLength="305" x="2051" y="1865.7236">In this case, there's enough players and all are ready </text><polygon fill="#181818" points="1438.5,1898.2773,1428.5,1902.2773,1438.5,1906.2773,1434.5,1902.2773" style="stroke:#181818;stroke-width:1.0;"/><line style="stroke:#181818;stroke-width:1.0;" x1="1432.5" x2="2029.5" y1="1902.2773" y2="1902.2773"/><text fill="#000000" font-family="sans-serif" font-size="13" lengthAdjust="spacing" textLength="230" x="1444.5" y="1897.0146">updateGame(new GameAndController()) </text><polygon fill="#181818" points="1187.5,1929.5684,1177.5,1933.5684,1187.5,1937.5684,1183.5,1933.5684" style="stroke:#181818;stroke-width:1.0;"/><line style="stroke:#181818;stroke-width:1.0;" x1="1181.5" x2="1416.5" y1="1933.5684" y2="1933.5684"/><text fill="#000000" font-family="sans-serif" font-size="13" lengthAdjust="spacing" textLength="217" x="1193.5" y="1928.3057">send(new CreateGamePacket(game)) </text><polygon fill="#181818" points="926.5,1960.8594,916.5,1964.8594,926.5,1968.8594,922.5,1964.8594" style="stroke:#181818;stroke-width:1.0;"/><line style="stroke:#181818;stroke-width:1.0;stroke-dasharray:2.0,2.0;" x1="920.5" x2="1165.5" y1="1964.8594" y2="1964.8594"/><text fill="#000000" font-family="sans-serif" font-size="13" lengthAdjust="spacing" textLength="154" x="932.5" y="1959.5967">CreateGamePacket(game) </text><polygon fill="#181818" points="536.5,1992.1504,526.5,1996.1504,536.5,2000.1504,532.5,1996.1504" style="stroke:#181818;stroke-width:1.0;"/><line style="stroke:#181818;stroke-width:1.0;" x1="530.5" x2="899.5" y1="1996.1504" y2="1996.1504"/><text fill="#000000" font-family="sans-serif" font-size="13" lengthAdjust="spacing" textLength="198" x="542.5" y="1990.8877">returns CreateGamePacket(game) </text><ellipse cx="21" cy="2026.6914" fill="none" rx="4" ry="4" style="stroke:#181818;stroke-width:1.5;"/><polygon fill="#181818" points="38,2023.4414,28,2027.4414,38,2031.4414,34,2027.4414" style="stroke:#181818;stroke-width:1.0;"/><line style="stroke:#181818;stroke-width:1.0;stroke-dasharray:2.0,2.0;" x1="36" x2="514.5" y1="2027.4414" y2="2027.4414"/><text fill="#000000" font-family="sans-serif" font-size="13" lengthAdjust="spacing" textLength="267" x="38.5" y="2022.1787">receives game and GameController via listener </text><polygon fill="#181818" points="888.5,2054.7324,898.5,2058.7324,888.5,2062.7324,892.5,2058.7324" style="stroke:#181818;stroke-width:1.0;"/><line style="stroke:#181818;stroke-width:1.0;" x1="520.5" x2="894.5" y1="2058.7324" y2="2058.7324"/><text fill="#000000" font-family="sans-serif" font-size="13" lengthAdjust="spacing" textLength="29" x="527.5" y="2053.4697">ack() </text><polygon fill="#181818" points="1154.5,2086.0234,1164.5,2090.0234,1154.5,2094.0234,1158.5,2090.0234" style="stroke:#181818;stroke-width:1.0;"/><line style="stroke:#181818;stroke-width:1.0;stroke-dasharray:2.0,2.0;" x1="915.5" x2="1160.5" y1="2090.0234" y2="2090.0234"/><text fill="#000000" font-family="sans-serif" font-size="13" lengthAdjust="spacing" textLength="21" x="917.5" y="2084.7607">ack </text><polygon fill="#181818" points="1405.5,2117.3145,1415.5,2121.3145,1405.5,2125.3145,1409.5,2121.3145" style="stroke:#181818;stroke-width:1.0;"/><line style="stroke:#181818;stroke-width:1.0;" x1="1171.5" x2="1411.5" y1="2121.3145" y2="2121.3145"/><text fill="#000000" font-family="sans-serif" font-size="13" lengthAdjust="spacing" textLength="40" x="1178.5" y="2116.0518">returns </text><polygon fill="#181818" points="2018.5,2148.6055,2028.5,2152.6055,2018.5,2156.6055,2022.5,2152.6055" style="stroke:#181818;stroke-width:1.0;"/><line style="stroke:#181818;stroke-width:1.0;" x1="1422.5" x2="2024.5" y1="2152.6055" y2="2152.6055"/><text fill="#000000" font-family="sans-serif" font-size="13" lengthAdjust="spacing" textLength="40" x="1429.5" y="2147.3428">returns </text><polygon fill="#181818" points="1433.5,2179.8965,1423.5,2183.8965,1433.5,2187.8965,1429.5,2183.8965" style="stroke:#181818;stroke-width:1.0;"/><line style="stroke:#181818;stroke-width:1.0;" x1="1427.5" x2="2034.5" y1="2183.8965" y2="2183.8965"/><text fill="#000000" font-family="sans-serif" font-size="13" lengthAdjust="spacing" textLength="40" x="1439.5" y="2178.6338">returns </text><polygon fill="#181818" points="1182.5,2211.1875,1172.5,2215.1875,1182.5,2219.1875,1178.5,2215.1875" style="stroke:#181818;stroke-width:1.0;"/><line style="stroke:#181818;stroke-width:1.0;" x1="1176.5" x2="1416.5" y1="2215.1875" y2="2215.1875"/><text fill="#000000" font-family="sans-serif" font-size="13" lengthAdjust="spacing" textLength="29" x="1188.5" y="2209.9248">ack() </text><polygon fill="#181818" points="921.5,2242.4785,911.5,2246.4785,921.5,2250.4785,917.5,2246.4785" style="stroke:#181818;stroke-width:1.0;"/><line style="stroke:#181818;stroke-width:1.0;stroke-dasharray:2.0,2.0;" x1="915.5" x2="1170.5" y1="2246.4785" y2="2246.4785"/><text fill="#000000" font-family="sans-serif" font-size="13" lengthAdjust="spacing" textLength="21" x="927.5" y="2241.2158">ack </text><polygon fill="#181818" points="716.5,2273.7695,706.5,2277.7695,716.5,2281.7695,712.5,2277.7695" style="stroke:#181818;stroke-width:1.0;"/><line style="stroke:#181818;stroke-width:1.0;" x1="710.5" x2="904.5" y1="2277.7695" y2="2277.7695"/><text fill="#000000" font-family="sans-serif" font-size="13" lengthAdjust="spacing" textLength="40" x="722.5" y="2272.5068">returns </text><polygon fill="#181818" points="32.5,2305.0605,22.5,2309.0605,32.5,2313.0605,28.5,2309.0605" style="stroke:#181818;stroke-width:1.0;"/><line style="stroke:#181818;stroke-width:1.0;" x1="26.5" x2="699.5" y1="2309.0605" y2="2309.0605"/><text fill="#000000" font-family="sans-serif" font-size="13" lengthAdjust="spacing" textLength="40" x="38.5" y="2303.7979">returns </text><!--SRC=[pLTBRjim4Dth54GsbHFB1mY20aaMHOks25Ba08mqiTMgf43I3dpxyYU954bzaYpgbI7Dl9bvC_D8uL9GXiplZZwZoH_cg6ng829hCHDrMRUO2FIBbdz0tEiNFq7ym0JlWSNSXhSHWE_q-VbiK9xQ2Wi7eWVGDlPj4e8ImMZJU2cC80OR3yL4DrXX6IwAP-Dd0km4R1g3XpQHQWnIjAOUOweQXnC35Q7LGKdJAl49bAAcnE0usVGGJWwIdbgSJGZZC3rI1Y3BIWOoWH3FF435v-0LkaO4NlEMCh6H_hepocuyRUZgIfgMfepSeDnM5GFEj-X2Zlt59WjyUXo_bvUNDge7q_dxjh6KtLIoo22Wco9q6e9gqqrM0PODEKtmDG-gCs5GGds2_1kjoGDMBhkomKD1yuHe60waocM2QC393R49Pdfg_EVN8K2qdXYpHM4h4aT6U1B8zUXGXfOyDFWCRDvZN8uDtJRddWQeRFXDeeO4eTSZxyLP10tzWlz2hAa1bs6lYn6JNJehkobzLlJFEgGdJzhCx_blMtc-ShF3GHxuozyqnwx_UyPum9cQuMZnWNsl17wFzH4mWUuU4OCSRUOyOXhMEOqDbapr8-3gx8_qKhaBTbJ7j-rfrFz4Zs-A8j7Z424SDfbAV736vFyF-nNlibUQPpArILtBN8Ub9yp4x4oAWyDft-5RKWr8ffQjKdlxH5uSThiTkdrHzM3qUgWRGF99HgWyN779AESILjsDAoZh2ZWI1opG0Jvn6KoE8n8KSI5lJV85eBrSlb2ZnWLPXgHtBjWHF7BzbPXNAcSd3DXQgGe0faSgID8Nh1HQSjrTChHgRL7WrmtSe5xQwQWVcpFxCGMGa0OFrsVqQGphtYCi-5gjM88PMx6aVdYahq17L2KPYTIlB4Uj1hBqebEDKLDp0KJUBfUhm4XlraZQXqlD_43tSHmHYKtWCBQUfLOBLkyFaj-NxfD6VU1yVL6om9HQI1i4X1xt1qimHrHfZcMxDXP6KyuWjjfVQOeD-4gFJIMbXhP88I9CAXj_Pq8HQIrHIinXsqSTHLHEk6aGbW0wbFnUgrHWIEnfTENq5KEjYlhZA-ncoTwDfR1VlNlz4UXSd9IUhbwsEChRrsiIRyb2ANjDlS9mYd_dQkMRZxulXE8UNuUea2ymZby_rqtCJFNfiHX9Yv_Mt2sjw_PDaJZJFUD_]--></g></svg>