<?xml version="1.0" encoding="us-ascii" standalone="no"?><svg xmlns="http://www.w3.org/2000/svg" xmlns:xlink="http://www.w3.org/1999/xlink" contentStyleType="text/css" height="463px" preserveAspectRatio="none" style="width:2083px;height:463px;background:#FFFFFF;" version="1.1" viewBox="0 0 2083 463" width="2083px" zoomAndPan="magnify"><defs/><g><!--cluster common--><g id="cluster_common"><path d="M8.5,39.5659 L78.5,39.5659 A3.75,3.75 0 0 1 81,42.0659 L88,61.8628 L1013.5,61.8628 A2.5,2.5 0 0 1 1016,64.3628 L1016,452.0659 A2.5,2.5 0 0 1 1013.5,454.5659 L8.5,454.5659 A2.5,2.5 0 0 1 6,452.0659 L6,42.0659 A2.5,2.5 0 0 1 8.5,39.5659 " fill="none" style="stroke:#000000;stroke-width:1.5;"/><line style="stroke:#000000;stroke-width:1.5;" x1="6" x2="88" y1="61.8628" y2="61.8628"/><text fill="#000000" font-family="sans-serif" font-size="14" font-weight="bold" lengthAdjust="spacing" textLength="69" x="10" y="54.561">common</text></g><!--cluster server--><g id="cluster_server"><path d="M1042.5,269.5659 L1093.5,269.5659 A3.75,3.75 0 0 1 1096,272.0659 L1103,291.8628 L2073.5,291.8628 A2.5,2.5 0 0 1 2076,294.3628 L2076,454.0659 A2.5,2.5 0 0 1 2073.5,456.5659 L1042.5,456.5659 A2.5,2.5 0 0 1 1040,454.0659 L1040,272.0659 A2.5,2.5 0 0 1 1042.5,269.5659 " fill="none" style="stroke:#000000;stroke-width:1.5;"/><line style="stroke:#000000;stroke-width:1.5;" x1="1040" x2="1103" y1="291.8628" y2="291.8628"/><text fill="#000000" font-family="sans-serif" font-size="14" font-weight="bold" lengthAdjust="spacing" textLength="50" x="1044" y="284.561">server</text></g><!--cluster client--><g id="cluster_client"><path d="M1087.5,64.0659 L1134.5,64.0659 A3.75,3.75 0 0 1 1137,66.5659 L1144,86.3628 L1450.5,86.3628 A2.5,2.5 0 0 1 1453,88.8628 L1453,195.5659 A2.5,2.5 0 0 1 1450.5,198.0659 L1087.5,198.0659 A2.5,2.5 0 0 1 1085,195.5659 L1085,66.5659 A2.5,2.5 0 0 1 1087.5,64.0659 " fill="none" style="stroke:#000000;stroke-width:1.5;"/><line style="stroke:#000000;stroke-width:1.5;" x1="1085" x2="1144" y1="86.3628" y2="86.3628"/><text fill="#000000" font-family="sans-serif" font-size="14" font-weight="bold" lengthAdjust="spacing" textLength="46" x="1089" y="79.061">client</text></g><!--class LobbyView--><g id="elem_LobbyView"><rect codeLine="4" fill="#F1F1F1" height="64.2969" id="LobbyView" rx="2.5" ry="2.5" style="stroke:#181818;stroke-width:0.5;" width="366" x="175" y="118.0659"/><ellipse cx="315.25" cy="134.0659" fill="#B4A7E5" rx="11" ry="11" style="stroke:#181818;stroke-width:1.0;"/><path d="M316.2031,130.8472 L317.9219,130.8472 C318.3125,130.8472 318.5,130.8159 318.625,130.7378 C318.8906,130.5815 319.0313,130.3003 319.0313,130.0034 C319.0313,129.7378 318.9219,129.4722 318.6875,129.3003 C318.5156,129.1909 318.375,129.1597 317.9219,129.1597 L312.7813,129.1597 C312.3438,129.1597 312.2188,129.1753 312.0625,129.269 C311.8125,129.4253 311.6563,129.7222 311.6563,130.0034 C311.6563,130.2847 311.7969,130.5347 312.0156,130.7065 C312.1719,130.8159 312.3594,130.8472 312.7813,130.8472 L314.5,130.8472 L314.5,137.3628 L312.7813,137.3628 C312.3438,137.3628 312.2188,137.3784 312.0625,137.4878 C311.8125,137.644 311.6563,137.9253 311.6563,138.2222 C311.6563,138.4722 311.7969,138.7378 312.0156,138.894 C312.1719,139.019 312.375,139.0659 312.7813,139.0659 L317.9219,139.0659 C318.6719,139.0659 319.0313,138.7847 319.0313,138.2222 C319.0313,137.9409 318.9219,137.6909 318.6875,137.519 C318.5156,137.394 318.375,137.3628 317.9219,137.3628 L316.2031,137.3628 L316.2031,130.8472 Z " fill="#000000"/><text fill="#000000" font-family="sans-serif" font-size="14" font-style="italic" lengthAdjust="spacing" textLength="77" x="335.75" y="138.9126">LobbyView</text><line style="stroke:#181818;stroke-width:0.5;" x1="176" x2="540" y1="150.0659" y2="150.0659"/><line style="stroke:#181818;stroke-width:0.5;" x1="176" x2="540" y1="158.0659" y2="158.0659"/><text fill="#000000" font-family="sans-serif" font-size="14" lengthAdjust="spacing" textLength="354" x="181" y="175.061">Provider&lt;@Nullable GameAndController&gt; game()</text></g><!--class GameAndController--><g id="elem_GameAndController"><rect codeLine="9" fill="#F1F1F1" height="113.1875" id="GameAndController" rx="2.5" ry="2.5" style="stroke:#181818;stroke-width:0.5;" width="255" x="507.5" y="325.5659"/><ellipse cx="559.25" cy="341.5659" fill="#ADD1B2" rx="11" ry="11" style="stroke:#181818;stroke-width:1.0;"/><path d="M561.5938,337.2378 C560.6563,336.8003 560.0625,336.6597 559.1875,336.6597 C556.5625,336.6597 554.5625,338.7378 554.5625,341.4565 L554.5625,342.5815 C554.5625,345.1597 556.6719,347.0503 559.5625,347.0503 C560.7813,347.0503 561.9375,346.7534 562.6875,346.2065 C563.2656,345.8003 563.5938,345.3472 563.5938,344.9565 C563.5938,344.5034 563.2031,344.1128 562.7344,344.1128 C562.5156,344.1128 562.3125,344.1909 562.125,344.3784 C561.6719,344.8628 561.6719,344.8628 561.4844,344.9565 C561.0625,345.2222 560.375,345.3472 559.6094,345.3472 C557.5625,345.3472 556.2656,344.2534 556.2656,342.5503 L556.2656,341.4565 C556.2656,339.6753 557.5156,338.3628 559.25,338.3628 C559.8281,338.3628 560.4375,338.519 560.9063,338.769 C561.3906,339.0503 561.5625,339.269 561.6563,339.6753 C561.7188,340.0815 561.75,340.2065 561.8906,340.3315 C562.0313,340.4722 562.2656,340.5815 562.4844,340.5815 C562.75,340.5815 563.0156,340.4409 563.1875,340.2222 C563.2969,340.0659 563.3281,339.8784 563.3281,339.4565 L563.3281,338.0347 C563.3281,337.5972 563.3125,337.4722 563.2188,337.3159 C563.0625,337.0503 562.7813,336.9097 562.4844,336.9097 C562.1875,336.9097 561.9844,337.0034 561.7656,337.3159 L561.5938,337.2378 Z " fill="#000000"/><text fill="#000000" font-family="sans-serif" font-size="14" lengthAdjust="spacing" textLength="143" x="579.75" y="346.4126">GameAndController</text><line style="stroke:#181818;stroke-width:0.5;" x1="508.5" x2="761.5" y1="357.5659" y2="357.5659"/><text fill="#000000" font-family="sans-serif" font-size="14" lengthAdjust="spacing" textLength="136" x="513.5" y="374.561">-GameView model;</text><text fill="#000000" font-family="sans-serif" font-size="14" lengthAdjust="spacing" textLength="201" x="513.5" y="390.8579">-GameController controller;</text><line style="stroke:#181818;stroke-width:0.5;" x1="508.5" x2="761.5" y1="398.1597" y2="398.1597"/><text fill="#000000" font-family="sans-serif" font-size="14" lengthAdjust="spacing" textLength="174" x="513.5" y="415.1548">+GameView getModel();</text><text fill="#000000" font-family="sans-serif" font-size="14" lengthAdjust="spacing" textLength="243" x="513.5" y="431.4517">+GameController getController();</text></g><!--class GameController--><g id="elem_GameController"><rect codeLine="18" fill="#F1F1F1" height="80.5938" id="GameController" rx="2.5" ry="2.5" style="stroke:#181818;stroke-width:0.5;" width="423" x="576.5" y="109.5659"/><ellipse cx="726.75" cy="125.5659" fill="#B4A7E5" rx="11" ry="11" style="stroke:#181818;stroke-width:1.0;"/><path d="M727.7031,122.3472 L729.4219,122.3472 C729.8125,122.3472 730,122.3159 730.125,122.2378 C730.3906,122.0815 730.5313,121.8003 730.5313,121.5034 C730.5313,121.2378 730.4219,120.9722 730.1875,120.8003 C730.0156,120.6909 729.875,120.6597 729.4219,120.6597 L724.2813,120.6597 C723.8438,120.6597 723.7188,120.6753 723.5625,120.769 C723.3125,120.9253 723.1563,121.2222 723.1563,121.5034 C723.1563,121.7847 723.2969,122.0347 723.5156,122.2065 C723.6719,122.3159 723.8594,122.3472 724.2813,122.3472 L726,122.3472 L726,128.8628 L724.2813,128.8628 C723.8438,128.8628 723.7188,128.8784 723.5625,128.9878 C723.3125,129.144 723.1563,129.4253 723.1563,129.7222 C723.1563,129.9722 723.2969,130.2378 723.5156,130.394 C723.6719,130.519 723.875,130.5659 724.2813,130.5659 L729.4219,130.5659 C730.1719,130.5659 730.5313,130.2847 730.5313,129.7222 C730.5313,129.4409 730.4219,129.1909 730.1875,129.019 C730.0156,128.894 729.875,128.8628 729.4219,128.8628 L727.7031,128.8628 L727.7031,122.3472 Z " fill="#000000"/><text fill="#000000" font-family="sans-serif" font-size="14" font-style="italic" lengthAdjust="spacing" textLength="114" x="747.25" y="130.4126">GameController</text><line style="stroke:#181818;stroke-width:0.5;" x1="577.5" x2="998.5" y1="141.5659" y2="141.5659"/><text fill="#000000" font-family="sans-serif" font-size="14" lengthAdjust="spacing" textLength="382" x="582.5" y="158.561">// selected has to be in the right shelf insertion order</text><line style="stroke:#181818;stroke-width:0.5;" x1="577.5" x2="998.5" y1="165.8628" y2="165.8628"/><text fill="#000000" font-family="sans-serif" font-size="14" lengthAdjust="spacing" textLength="411" x="582.5" y="182.8579">void makeMove(List&lt;BoardCoord&gt; selected, int shelfCol)</text></g><!--class BoardCoord--><g id="elem_BoardCoord"><rect codeLine="23" fill="#F1F1F1" height="113.1875" id="BoardCoord" rx="2.5" ry="2.5" style="stroke:#181818;stroke-width:0.5;" width="117" x="22.5" y="93.5659"/><ellipse cx="37.5" cy="109.5659" fill="#ADD1B2" rx="11" ry="11" style="stroke:#181818;stroke-width:1.0;"/><path d="M39.8438,105.2378 C38.9063,104.8003 38.3125,104.6597 37.4375,104.6597 C34.8125,104.6597 32.8125,106.7378 32.8125,109.4565 L32.8125,110.5815 C32.8125,113.1597 34.9219,115.0503 37.8125,115.0503 C39.0313,115.0503 40.1875,114.7534 40.9375,114.2065 C41.5156,113.8003 41.8438,113.3472 41.8438,112.9565 C41.8438,112.5034 41.4531,112.1128 40.9844,112.1128 C40.7656,112.1128 40.5625,112.1909 40.375,112.3784 C39.9219,112.8628 39.9219,112.8628 39.7344,112.9565 C39.3125,113.2222 38.625,113.3472 37.8594,113.3472 C35.8125,113.3472 34.5156,112.2534 34.5156,110.5503 L34.5156,109.4565 C34.5156,107.6753 35.7656,106.3628 37.5,106.3628 C38.0781,106.3628 38.6875,106.519 39.1563,106.769 C39.6406,107.0503 39.8125,107.269 39.9063,107.6753 C39.9688,108.0815 40,108.2065 40.1406,108.3315 C40.2813,108.4722 40.5156,108.5815 40.7344,108.5815 C41,108.5815 41.2656,108.4409 41.4375,108.2222 C41.5469,108.0659 41.5781,107.8784 41.5781,107.4565 L41.5781,106.0347 C41.5781,105.5972 41.5625,105.4722 41.4688,105.3159 C41.3125,105.0503 41.0313,104.9097 40.7344,104.9097 C40.4375,104.9097 40.2344,105.0034 40.0156,105.3159 L39.8438,105.2378 Z " fill="#000000"/><text fill="#000000" font-family="sans-serif" font-size="14" lengthAdjust="spacing" textLength="85" x="51.5" y="114.4126">BoardCoord</text><line style="stroke:#181818;stroke-width:0.5;" x1="23.5" x2="138.5" y1="125.5659" y2="125.5659"/><text fill="#000000" font-family="sans-serif" font-size="14" lengthAdjust="spacing" textLength="61" x="28.5" y="142.561">-int row;</text><text fill="#000000" font-family="sans-serif" font-size="14" lengthAdjust="spacing" textLength="87" x="28.5" y="158.8579">-int column;</text><line style="stroke:#181818;stroke-width:0.5;" x1="23.5" x2="138.5" y1="166.1597" y2="166.1597"/><text fill="#000000" font-family="sans-serif" font-size="14" lengthAdjust="spacing" textLength="94" x="28.5" y="183.1548">int getRow();</text><text fill="#000000" font-family="sans-serif" font-size="14" lengthAdjust="spacing" textLength="87" x="28.5" y="199.4517">int getCol();</text></g><!--class ServerController--><g id="elem_ServerController"><rect codeLine="34" fill="#F1F1F1" height="113.1875" id="ServerController" rx="2.5" ry="2.5" style="stroke:#181818;stroke-width:0.5;" width="433" x="1626.5" y="325.5659"/><ellipse cx="1778.75" cy="341.5659" fill="#ADD1B2" rx="11" ry="11" style="stroke:#181818;stroke-width:1.0;"/><path d="M1781.0938,337.2378 C1780.1563,336.8003 1779.5625,336.6597 1778.6875,336.6597 C1776.0625,336.6597 1774.0625,338.7378 1774.0625,341.4565 L1774.0625,342.5815 C1774.0625,345.1597 1776.1719,347.0503 1779.0625,347.0503 C1780.2813,347.0503 1781.4375,346.7534 1782.1875,346.2065 C1782.7656,345.8003 1783.0938,345.3472 1783.0938,344.9565 C1783.0938,344.5034 1782.7031,344.1128 1782.2344,344.1128 C1782.0156,344.1128 1781.8125,344.1909 1781.625,344.3784 C1781.1719,344.8628 1781.1719,344.8628 1780.9844,344.9565 C1780.5625,345.2222 1779.875,345.3472 1779.1094,345.3472 C1777.0625,345.3472 1775.7656,344.2534 1775.7656,342.5503 L1775.7656,341.4565 C1775.7656,339.6753 1777.0156,338.3628 1778.75,338.3628 C1779.3281,338.3628 1779.9375,338.519 1780.4063,338.769 C1780.8906,339.0503 1781.0625,339.269 1781.1563,339.6753 C1781.2188,340.0815 1781.25,340.2065 1781.3906,340.3315 C1781.5313,340.4722 1781.7656,340.5815 1781.9844,340.5815 C1782.25,340.5815 1782.5156,340.4409 1782.6875,340.2222 C1782.7969,340.0659 1782.8281,339.8784 1782.8281,339.4565 L1782.8281,338.0347 C1782.8281,337.5972 1782.8125,337.4722 1782.7188,337.3159 C1782.5625,337.0503 1782.2813,336.9097 1781.9844,336.9097 C1781.6875,336.9097 1781.4844,337.0034 1781.2656,337.3159 L1781.0938,337.2378 Z " fill="#000000"/><text fill="#000000" font-family="sans-serif" font-size="14" lengthAdjust="spacing" textLength="120" x="1799.25" y="346.4126">ServerController</text><line style="stroke:#181818;stroke-width:0.5;" x1="1627.5" x2="2058.5" y1="357.5659" y2="357.5659"/><line style="stroke:#181818;stroke-width:0.5;" x1="1627.5" x2="2058.5" y1="365.5659" y2="365.5659"/><text fill="#000000" font-family="sans-serif" font-size="14" lengthAdjust="spacing" textLength="167" x="1632.5" y="382.561">+LobbyView joinGame(</text><text fill="#000000" font-family="sans-serif" font-size="14" lengthAdjust="spacing" textLength="82" x="1680.5" y="398.8579">String nick,</text><text fill="#000000" font-family="sans-serif" font-size="14" lengthAdjust="spacing" textLength="276" x="1680.5" y="415.1548">LobbyUpdaterFactory updaterFactory,</text><text fill="#000000" font-family="sans-serif" font-size="14" lengthAdjust="spacing" textLength="373" x="1680.5" y="431.4517">Supplier&lt;GameController&gt; gameControllerFactory)</text></g><!--class GameServerController--><g id="elem_GameServerController"><rect codeLine="41" fill="#F1F1F1" height="117.1875" id="GameServerController" rx="2.5" ry="2.5" style="stroke:#181818;stroke-width:0.5;" width="535" x="1056.5" y="323.5659"/><ellipse cx="1238.75" cy="339.5659" fill="#ADD1B2" rx="11" ry="11" style="stroke:#181818;stroke-width:1.0;"/><path d="M1241.0938,335.2378 C1240.1563,334.8003 1239.5625,334.6597 1238.6875,334.6597 C1236.0625,334.6597 1234.0625,336.7378 1234.0625,339.4565 L1234.0625,340.5815 C1234.0625,343.1597 1236.1719,345.0503 1239.0625,345.0503 C1240.2813,345.0503 1241.4375,344.7534 1242.1875,344.2065 C1242.7656,343.8003 1243.0938,343.3472 1243.0938,342.9565 C1243.0938,342.5034 1242.7031,342.1128 1242.2344,342.1128 C1242.0156,342.1128 1241.8125,342.1909 1241.625,342.3784 C1241.1719,342.8628 1241.1719,342.8628 1240.9844,342.9565 C1240.5625,343.2222 1239.875,343.3472 1239.1094,343.3472 C1237.0625,343.3472 1235.7656,342.2534 1235.7656,340.5503 L1235.7656,339.4565 C1235.7656,337.6753 1237.0156,336.3628 1238.75,336.3628 C1239.3281,336.3628 1239.9375,336.519 1240.4063,336.769 C1240.8906,337.0503 1241.0625,337.269 1241.1563,337.6753 C1241.2188,338.0815 1241.25,338.2065 1241.3906,338.3315 C1241.5313,338.4722 1241.7656,338.5815 1241.9844,338.5815 C1242.25,338.5815 1242.5156,338.4409 1242.6875,338.2222 C1242.7969,338.0659 1242.8281,337.8784 1242.8281,337.4565 L1242.8281,336.0347 C1242.8281,335.5972 1242.8125,335.4722 1242.7188,335.3159 C1242.5625,335.0503 1242.2813,334.9097 1241.9844,334.9097 C1241.6875,334.9097 1241.4844,335.0034 1241.2656,335.3159 L1241.0938,335.2378 Z " fill="#000000"/><text fill="#000000" font-family="sans-serif" font-size="14" lengthAdjust="spacing" textLength="162" x="1259.25" y="344.4126">GameServerController</text><line style="stroke:#181818;stroke-width:0.5;" x1="1057.5" x2="1590.5" y1="355.5659" y2="355.5659"/><text fill="#000000" font-family="sans-serif" font-size="14" lengthAdjust="spacing" textLength="239" x="1062.5" y="372.561">This is the actual game controller</text><line style="stroke:#181818;stroke-width:0.5;" x1="1057.5" x2="1590.5" y1="379.8628" y2="379.8628"/><text fill="#000000" font-family="sans-serif" font-size="14" lengthAdjust="spacing" textLength="92" x="1062.5" y="396.8579">-Game game</text><text fill="#000000" font-family="sans-serif" font-size="14" lengthAdjust="spacing" textLength="523" x="1062.5" y="433.4517">+void makeMove(Player player, List&lt;BoardCoord&gt; selected, int shelfCol)</text><line style="stroke:#181818;stroke-width:0.5;" x1="1057.5" x2="1146.5" y1="412.3081" y2="412.3081"/><text fill="#000000" font-family="sans-serif" font-size="14" lengthAdjust="spacing" textLength="355" x="1146.5" y="416.6548">game controlling overloaded with player instance</text><line style="stroke:#181818;stroke-width:0.5;" x1="1501.5" x2="1590.5" y1="412.3081" y2="412.3081"/></g><!--class ClientNetManager--><g id="elem_ClientNetManager"><rect codeLine="51" fill="#F1F1F1" height="64.2969" id="ClientNetManager" rx="2.5" ry="2.5" style="stroke:#181818;stroke-width:0.5;" width="336" x="1101" y="118.0659"/><ellipse cx="1200.75" cy="134.0659" fill="#B4A7E5" rx="11" ry="11" style="stroke:#181818;stroke-width:1.0;"/><path d="M1201.7031,130.8472 L1203.4219,130.8472 C1203.8125,130.8472 1204,130.8159 1204.125,130.7378 C1204.3906,130.5815 1204.5313,130.3003 1204.5313,130.0034 C1204.5313,129.7378 1204.4219,129.4722 1204.1875,129.3003 C1204.0156,129.1909 1203.875,129.1597 1203.4219,129.1597 L1198.2813,129.1597 C1197.8438,129.1597 1197.7188,129.1753 1197.5625,129.269 C1197.3125,129.4253 1197.1563,129.7222 1197.1563,130.0034 C1197.1563,130.2847 1197.2969,130.5347 1197.5156,130.7065 C1197.6719,130.8159 1197.8594,130.8472 1198.2813,130.8472 L1200,130.8472 L1200,137.3628 L1198.2813,137.3628 C1197.8438,137.3628 1197.7188,137.3784 1197.5625,137.4878 C1197.3125,137.644 1197.1563,137.9253 1197.1563,138.2222 C1197.1563,138.4722 1197.2969,138.7378 1197.5156,138.894 C1197.6719,139.019 1197.875,139.0659 1198.2813,139.0659 L1203.4219,139.0659 C1204.1719,139.0659 1204.5313,138.7847 1204.5313,138.2222 C1204.5313,137.9409 1204.4219,137.6909 1204.1875,137.519 C1204.0156,137.394 1203.875,137.3628 1203.4219,137.3628 L1201.7031,137.3628 L1201.7031,130.8472 Z " fill="#000000"/><text fill="#000000" font-family="sans-serif" font-size="14" font-style="italic" lengthAdjust="spacing" textLength="128" x="1221.25" y="138.9126">ClientNetManager</text><line style="stroke:#181818;stroke-width:0.5;" x1="1102" x2="1436" y1="150.0659" y2="150.0659"/><line style="stroke:#181818;stroke-width:0.5;" x1="1102" x2="1436" y1="158.0659" y2="158.0659"/><text fill="#000000" font-family="sans-serif" font-size="14" lengthAdjust="spacing" textLength="324" x="1107" y="175.061">LobbyView establishConnection(String nick);</text></g><!--link LobbyView to GameAndController--><g id="link_LobbyView_GameAndController"><path codeLine="8" d="M395.357,182.0849 C438.391,217.8169 510.068,277.3319 563.844,321.9829 " fill="none" id="LobbyView-to-GameAndController" style="stroke:#181818;stroke-width:1.0;"/><polygon fill="#181818" points="568.01,325.4419,563.6425,316.6144,564.1637,322.2472,558.531,322.7684,568.01,325.4419" style="stroke:#181818;stroke-width:1.0;"/><text fill="#000000" font-family="sans-serif" font-size="13" lengthAdjust="spacing" textLength="152" x="481" y="249.6328">provides asyncronously</text></g><!--link GameController to GameAndController--><g id="link_GameController_GameAndController"><path codeLine="17" d="M761.698,190.6039 C739.128,224.5329 706.121,274.1519 679.455,314.2389 " fill="none" id="GameController-to-GameAndController" style="stroke:#181818;stroke-width:1.0;"/><polygon fill="#181818" points="672.116,325.2709,678.7699,322.4915,678.7636,315.2804,672.1096,318.0598,672.116,325.2709" style="stroke:#181818;stroke-width:1.0;"/><text fill="#000000" font-family="sans-serif" font-size="13" lengthAdjust="spacing" textLength="8" x="748.8686" y="210.3698">1</text></g><!--link ClientNetManager to LobbyView--><g id="link_ClientNetManager_LobbyView"><path codeLine="55" d="M1214.48,118.0569 C1164.7,90.8119 1088.1,53.7489 1016,38.5659 C916.624,17.6389 657.317,13.1229 559,38.5659 C501.97,53.3249 443.876,88.1379 404.908,114.9699 " fill="none" id="ClientNetManager-to-LobbyView" style="stroke:#181818;stroke-width:1.0;"/><polygon fill="#181818" points="400.726,117.8699,410.4013,116.0292,404.835,115.021,405.8431,109.4547,400.726,117.8699" style="stroke:#181818;stroke-width:1.0;"/><text fill="#000000" font-family="sans-serif" font-size="13" lengthAdjust="spacing" textLength="55" x="793.5" y="19.6328">provides</text></g><!--link ClientNetManager to ServerController--><g id="link_ClientNetManager_ServerController"><path codeLine="58" d="M1414.79,182.0929 C1469.77,195.9019 1532.23,214.1649 1587,236.5659 C1644.43,260.0569 1705.05,293.8269 1752.88,322.8149 " fill="none" id="ClientNetManager-to-ServerController" style="stroke:#181818;stroke-width:1.0;stroke-dasharray:7.0,7.0;"/><polygon fill="#181818" points="1757.18,325.4259,1751.5708,317.3304,1752.9086,322.8268,1747.4122,324.1646,1757.18,325.4259" style="stroke:#181818;stroke-width:1.0;"/><text fill="#000000" font-family="sans-serif" font-size="13" lengthAdjust="spacing" textLength="188" x="1624" y="249.6328">calls via a rmi/socket adapter</text></g><!--link ServerController to ClientNetManager--><g id="link_ServerController_ClientNetManager"><path codeLine="59" d="M1756.94,325.5599 C1714.23,301.0899 1660.8,274.9019 1609,261.5659 C1581.98,254.6079 1383.2,265.5469 1358,253.5659 C1328.35,239.4669 1304.61,210.3529 1289.13,186.7449 " fill="none" id="ServerController-to-ClientNetManager" style="stroke:#181818;stroke-width:1.0;stroke-dasharray:7.0,7.0;"/><polygon fill="#181818" points="1286.34,182.4049,1287.8538,192.1367,1289.0488,186.6076,1294.578,187.8026,1286.34,182.4049" style="stroke:#181818;stroke-width:1.0;"/><text fill="#000000" font-family="sans-serif" font-size="13" lengthAdjust="spacing" textLength="219" x="1359" y="249.6328">responds via a rmi/socket adapter</text></g><!--link GameController to GameServerController--><g id="link_GameController_GameServerController"><path codeLine="60" d="M880.142,190.6039 C964.031,226.6019 1089.08,280.2599 1185.09,321.4579 " fill="none" id="GameController-to-GameServerController" style="stroke:#181818;stroke-width:1.0;stroke-dasharray:7.0,7.0;"/><polygon fill="#181818" points="1189.92,323.5339,1183.2266,316.309,1185.3252,321.5623,1180.072,323.6608,1189.92,323.5339" style="stroke:#181818;stroke-width:1.0;"/><text fill="#000000" font-family="sans-serif" font-size="13" lengthAdjust="spacing" textLength="188" x="1025" y="249.6328">calls via a rmi/socket adapter</text></g><!--SRC=[bLHHQzim47xthpZwbAv9ixqc9QmBR0pQKfPjJuDobg-n5baoafoGZVxtdUpCbktGCH68VRhlyzrtd-HsKfTeiG2XqBbRxwrCAq-VXT4R-OlWRPAKA7Qu9H2cA8o6tmdmajgJVKP1S6VIzFXTqk6q4zQZDNkPaRrv_r0fXQaY-8G5tUfiRRItHYcoAzXoQ79PWrwI-g_ZcirMOmWie6oO7Q0xQc6DDfLJnnfSTt06r9KrgtTh_i9af9Q3dGWasiTbqcPTTVWj-Vj0CRbS3hOZ4axgtlvcdbeTf5wyk-2UtupB7wWzW7MzpUVWI97mb46E3ho1b1W8FYUmSfjxS3cfPmuvibxo98tDJlnXxOtCeC0TtPizJUwaypSV35ekXVDMBVaq5DDGhOtgJQyPG0VgAHzGrXoMWv0mgYfqf748icvVp26MzXJbBxOoGfAyTERadlQj7aqXcpfqLgoho6a_ZTH1rGdyq12j3Hy5lGKjnMuwsAh1tyeCUIeVKNXZZr3rNeU8JLMMIlA1wC-lEGFT-mbzHjM0UwMXhxbqmBymREQeKDNCaOtRrAUdWUlhp6YxZmmQi26iCfYnjGxIvr0gFFBdsKaUDPioehmQ-EYnIMqGK_XFMqK35YmVPmnldtKTVk3JY9hJOasw4HFNcIhfSjPEy-VO_9DelFs3EM8CLr77rLr1eRfHylNrQcoy1GXKoi5U8Y3OGiwT4JloW1cMt4aoGWIQ4VS2BBdIwEmLfi7z47ZEMkTV9Vq1]--></g></svg>