<?xml version="1.0" encoding="us-ascii" standalone="no"?>
<svg xmlns="http://www.w3.org/2000/svg" xmlns:xlink="http://www.w3.org/1999/xlink" contentStyleType="text/css"
     height="1130.4px" preserveAspectRatio="none" style="width:3143px;height:1130px;background:#FFFFFF;" version="1.1"
     viewBox="0 0 3143 1130" width="3143.2px" zoomAndPan="magnify">
    <style>
        @media (prefers-color-scheme: dark) {
            svg {
                filter: invert(100%);
            }
        }
    </style>
    <defs/>
    <g><!--cluster common-->
        <g id="cluster_common">
            <path d="M6.8,125.6109 L54.8,125.6109 A3,3 0 0 1 56.8,127.6109 L62.4,145.3078 L1658,145.3078 A2,2 0 0 1 1660,147.3078 L1660,759.2109 A2,2 0 0 1 1658,761.2109 L6.8,761.2109 A2,2 0 0 1 4.8,759.2109 L4.8,127.6109 A2,2 0 0 1 6.8,125.6109 "
                  fill="none" style="stroke:#000000;stroke-width:1.2000000000000002;"/>
            <line style="stroke:#000000;stroke-width:1.2000000000000002;" x1="4.8" x2="62.4" y1="145.3078"
                  y2="145.3078"/>
            <text fill="#000000" font-family="sans-serif" font-size="11.2" font-weight="bold" lengthAdjust="spacing"
                  textLength="47.2" x="8" y="139.2969">common
            </text>
        </g><!--cluster socket-->
        <g id="cluster_socket">
            <path d="M26,161.6109 L64.4,161.6109 A3,3 0 0 1 66.4,163.6109 L72,181.3078 L1638.8,181.3078 A2,2 0 0 1 1640.8,183.3078 L1640.8,740.0109 A2,2 0 0 1 1638.8,742.0109 L26,742.0109 A2,2 0 0 1 24,740.0109 L24,163.6109 A2,2 0 0 1 26,161.6109 "
                  fill="none" style="stroke:#000000;stroke-width:1.2000000000000002;"/>
            <line style="stroke:#000000;stroke-width:1.2000000000000002;" x1="24" x2="72" y1="181.3078" y2="181.3078"/>
            <text fill="#000000" font-family="sans-serif" font-size="11.2" font-weight="bold" lengthAdjust="spacing"
                  textLength="37.6" x="27.2" y="175.2969">socket
            </text>
        </g><!--cluster packets-->
        <g id="cluster_packets">
            <path d="M272.4,197.6109 L317.2,197.6109 A3,3 0 0 1 319.2,199.6109 L324.8,217.3078 L1103.6,217.3078 A2,2 0 0 1 1105.6,219.3078 L1105.6,720.8109 A2,2 0 0 1 1103.6,722.8109 L272.4,722.8109 A2,2 0 0 1 270.4,720.8109 L270.4,199.6109 A2,2 0 0 1 272.4,197.6109 "
                  fill="none" style="stroke:#000000;stroke-width:1.2000000000000002;"/>
            <line style="stroke:#000000;stroke-width:1.2000000000000002;" x1="270.4" x2="324.8" y1="217.3078"
                  y2="217.3078"/>
            <text fill="#000000" font-family="sans-serif" font-size="11.2" font-weight="bold" lengthAdjust="spacing"
                  textLength="44" x="273.6" y="211.2969">packets
            </text>
        </g><!--cluster server-->
        <g id="cluster_server">
            <path d="M1681.2,543.6109 L1719.6,543.6109 A3,3 0 0 1 1721.6,545.6109 L1727.2,563.3078 L2573.2,563.3078 A2,2 0 0 1 2575.2,565.3078 L2575.2,1123.2109 A2,2 0 0 1 2573.2,1125.2109 L1681.2,1125.2109 A2,2 0 0 1 1679.2,1123.2109 L1679.2,545.6109 A2,2 0 0 1 1681.2,543.6109 "
                  fill="none" style="stroke:#000000;stroke-width:1.2000000000000002;"/>
            <line style="stroke:#000000;stroke-width:1.2000000000000002;" x1="1679.2" x2="1727.2" y1="563.3078"
                  y2="563.3078"/>
            <text fill="#000000" font-family="sans-serif" font-size="11.2" font-weight="bold" lengthAdjust="spacing"
                  textLength="37.6" x="1682.4" y="557.2969">server
            </text>
        </g><!--cluster socket-->
        <g id="cluster_socket">
            <path d="M1700.4,579.6109 L1738.8,579.6109 A3,3 0 0 1 1740.8,581.6109 L1746.4,599.3078 L2239.6,599.3078 A2,2 0 0 1 2241.6,601.3078 L2241.6,1104.0109 A2,2 0 0 1 2239.6,1106.0109 L1700.4,1106.0109 A2,2 0 0 1 1698.4,1104.0109 L1698.4,581.6109 A2,2 0 0 1 1700.4,579.6109 "
                  fill="none" style="stroke:#000000;stroke-width:1.2000000000000002;"/>
            <line style="stroke:#000000;stroke-width:1.2000000000000002;" x1="1698.4" x2="1746.4" y1="599.3078"
                  y2="599.3078"/>
            <text fill="#000000" font-family="sans-serif" font-size="11.2" font-weight="bold" lengthAdjust="spacing"
                  textLength="37.6" x="1701.6" y="593.2969">socket
            </text>
        </g><!--cluster client-->
        <g id="cluster_client">
            <path d="M2596.4,4.8109 L2628.4,4.8109 A3,3 0 0 1 2630.4,6.8109 L2636,24.5078 L3135.6,24.5078 A2,2 0 0 1 3137.6,26.5078 L3137.6,742.4109 A2,2 0 0 1 3135.6,744.4109 L2596.4,744.4109 A2,2 0 0 1 2594.4,742.4109 L2594.4,6.8109 A2,2 0 0 1 2596.4,4.8109 "
                  fill="none" style="stroke:#000000;stroke-width:1.2000000000000002;"/>
            <line style="stroke:#000000;stroke-width:1.2000000000000002;" x1="2594.4" x2="2636" y1="24.5078"
                  y2="24.5078"/>
            <text fill="#000000" font-family="sans-serif" font-size="11.2" font-weight="bold" lengthAdjust="spacing"
                  textLength="31.2" x="2597.6" y="18.4969">client
            </text>
        </g><!--cluster socket-->
        <g id="cluster_socket">
            <path d="M2615.6,173.2109 L2654,173.2109 A3,3 0 0 1 2656,175.2109 L2661.6,192.9078 L3116.4,192.9078 A2,2 0 0 1 3118.4,194.9078 L3118.4,723.2109 A2,2 0 0 1 3116.4,725.2109 L2615.6,725.2109 A2,2 0 0 1 2613.6,723.2109 L2613.6,175.2109 A2,2 0 0 1 2615.6,173.2109 "
                  fill="none" style="stroke:#000000;stroke-width:1.2000000000000002;"/>
            <line style="stroke:#000000;stroke-width:1.2000000000000002;" x1="2613.6" x2="2661.6" y1="192.9078"
                  y2="192.9078"/>
            <text fill="#000000" font-family="sans-serif" font-size="11.2" font-weight="bold" lengthAdjust="spacing"
                  textLength="37.6" x="2616.8" y="186.8969">socket
            </text>
        </g><!--class LobbyView-->
        <g id="elem_LobbyView">
            <rect codeLine="6" fill="#F1F1F1" height="38.4" id="LobbyView" rx="2" ry="2"
                  style="stroke:#181818;stroke-width:0.4000000000000001;" width="80" x="1548" y="232.4109"/>
            <ellipse cx="1560" cy="245.2109" fill="#B4A7E5" rx="8.8" ry="8.8"
                     style="stroke:#181818;stroke-width:0.8000000000000002;"/>
            <path d="M1560.7625,242.5234 L1560.7625,247.8484 L1562.1375,247.8484 Q1562.625,247.8484 1562.8375,248.0359 Q1563.05,248.2234 1563.05,248.5359 Q1563.05,248.8359 1562.8375,249.0234 Q1562.625,249.2109 1562.1375,249.2109 L1558.025,249.2109 Q1557.5375,249.2109 1557.325,249.0234 Q1557.1125,248.8359 1557.1125,248.5234 Q1557.1125,248.2234 1557.325,248.0359 Q1557.5375,247.8484 1558.025,247.8484 L1559.4,247.8484 L1559.4,242.5234 L1558.025,242.5234 Q1557.5375,242.5234 1557.325,242.3359 Q1557.1125,242.1484 1557.1125,241.8359 Q1557.1125,241.5359 1557.325,241.3484 Q1557.5375,241.1609 1558.025,241.1609 L1562.1375,241.1609 Q1562.625,241.1609 1562.8375,241.3484 Q1563.05,241.5359 1563.05,241.8359 Q1563.05,242.1484 1562.8375,242.3359 Q1562.625,242.5234 1562.1375,242.5234 L1560.7625,242.5234 Z "
                  fill="#000000"/>
            <text fill="#000000" font-family="sans-serif" font-size="11.2" font-style="italic" lengthAdjust="spacing"
                  textLength="54.4" x="1571.2" y="249.8484">LobbyView
            </text>
            <line style="stroke:#181818;stroke-width:0.4000000000000001;" x1="1548.8" x2="1627.2" y1="258.0109"
                  y2="258.0109"/>
            <line style="stroke:#181818;stroke-width:0.4000000000000001;" x1="1548.8" x2="1627.2" y1="264.4109"
                  y2="264.4109"/>
        </g><!--class SocketLobbyUpdaterFactory-->
        <g id="elem_SocketLobbyUpdaterFactory">
            <rect codeLine="9" fill="#F1F1F1" height="63.3625" id="SocketLobbyUpdaterFactory" rx="2" ry="2"
                  style="stroke:#181818;stroke-width:0.4000000000000001;" width="220" x="37.2" y="220.0109"/>
            <ellipse cx="71.16" cy="237.8438" fill="#B4A7E5" rx="8.8" ry="8.8"
                     style="stroke:#181818;stroke-width:0.8000000000000002;"/>
            <path d="M71.9225,235.1563 L71.9225,240.4813 L73.2975,240.4813 Q73.785,240.4813 73.9975,240.6688 Q74.21,240.8563 74.21,241.1688 Q74.21,241.4688 73.9975,241.6563 Q73.785,241.8438 73.2975,241.8438 L69.185,241.8438 Q68.6975,241.8438 68.485,241.6563 Q68.2725,241.4688 68.2725,241.1563 Q68.2725,240.8563 68.485,240.6688 Q68.6975,240.4813 69.185,240.4813 L70.56,240.4813 L70.56,235.1563 L69.185,235.1563 Q68.6975,235.1563 68.485,234.9688 Q68.2725,234.7813 68.2725,234.4688 Q68.2725,234.1688 68.485,233.9813 Q68.6975,233.7938 69.185,233.7938 L73.2975,233.7938 Q73.785,233.7938 73.9975,233.9813 Q74.21,234.1688 74.21,234.4688 Q74.21,234.7813 73.9975,234.9688 Q73.785,235.1563 73.2975,235.1563 L71.9225,235.1563 Z "
                  fill="#000000"/>
            <text fill="#000000" font-family="sans-serif" font-size="9.6" font-style="italic" lengthAdjust="spacing"
                  textLength="107.2" x="106.44" y="234.3703">&#171;LobbyUpdaterFactory&#187;
            </text>
            <text fill="#000000" font-family="sans-serif" font-size="11.2" font-style="italic" lengthAdjust="spacing"
                  textLength="145.6" x="87.24" y="248.8656">SocketLobbyUpdaterFactory
            </text>
            <line style="stroke:#181818;stroke-width:0.4000000000000001;" x1="38" x2="256.4" y1="255.6766"
                  y2="255.6766"/>
            <line style="stroke:#181818;stroke-width:0.4000000000000001;" x1="38" x2="256.4" y1="262.0766"
                  y2="262.0766"/>
            <text fill="#000000" font-family="sans-serif" font-size="11.2" lengthAdjust="spacing" textLength="210.4"
                  x="42" y="277.3625">SocketLobbyUpdater create(Lobby lobby)
            </text>
        </g><!--class SocketLobbyUpdater-->
        <g id="elem_SocketLobbyUpdater">
            <rect codeLine="13" fill="#F1F1F1" height="78.2594" id="SocketLobbyUpdater" rx="2" ry="2"
                  style="stroke:#181818;stroke-width:0.4000000000000001;" width="401.6" x="1118.4" y="212.4109"/>
            <ellipse cx="1262.2" cy="230.2438" fill="#B4A7E5" rx="8.8" ry="8.8"
                     style="stroke:#181818;stroke-width:0.8000000000000002;"/>
            <path d="M1262.9625,227.5563 L1262.9625,232.8813 L1264.3375,232.8813 Q1264.825,232.8813 1265.0375,233.0688 Q1265.25,233.2563 1265.25,233.5688 Q1265.25,233.8688 1265.0375,234.0563 Q1264.825,234.2438 1264.3375,234.2438 L1260.225,234.2438 Q1259.7375,234.2438 1259.525,234.0563 Q1259.3125,233.8688 1259.3125,233.5563 Q1259.3125,233.2563 1259.525,233.0688 Q1259.7375,232.8813 1260.225,232.8813 L1261.6,232.8813 L1261.6,227.5563 L1260.225,227.5563 Q1259.7375,227.5563 1259.525,227.3688 Q1259.3125,227.1813 1259.3125,226.8688 Q1259.3125,226.5688 1259.525,226.3813 Q1259.7375,226.1938 1260.225,226.1938 L1264.3375,226.1938 Q1264.825,226.1938 1265.0375,226.3813 Q1265.25,226.5688 1265.25,226.8688 Q1265.25,227.1813 1265.0375,227.3688 Q1264.825,227.5563 1264.3375,227.5563 L1262.9625,227.5563 Z "
                  fill="#000000"/>
            <text fill="#000000" font-family="sans-serif" font-size="9.6" font-style="italic" lengthAdjust="spacing"
                  textLength="75.2" x="1294.6" y="226.7703">&#171;LobbyUpdater&#187;
            </text>
            <text fill="#000000" font-family="sans-serif" font-size="11.2" font-style="italic" lengthAdjust="spacing"
                  textLength="107.2" x="1278.6" y="241.2656">SocketLobbyUpdater
            </text>
            <line style="stroke:#181818;stroke-width:0.4000000000000001;" x1="1119.2" x2="1519.2" y1="248.0766"
                  y2="248.0766"/>
            <line style="stroke:#181818;stroke-width:0.4000000000000001;" x1="1119.2" x2="1519.2" y1="254.4766"
                  y2="254.4766"/>
            <text fill="#000000" font-family="sans-serif" font-size="11.2" lengthAdjust="spacing" textLength="220.8"
                  x="1123.2" y="269.7625">void updateJoinedPlayers(int joinedPlayers)
            </text>
            <text fill="#000000" font-family="sans-serif" font-size="11.2" lengthAdjust="spacing" textLength="392"
                  x="1123.2" y="284.6594">GameUpdater updateCreatedGame(GameAndController gameAndController);
            </text>
        </g><!--class SocketGameUpdater-->
        <g id="elem_SocketGameUpdater">
            <rect codeLine="19" fill="#F1F1F1" height="63.3625" id="SocketGameUpdater" rx="2" ry="2"
                  style="stroke:#181818;stroke-width:0.4000000000000001;" width="222.4" x="1195.2" y="396.0109"/>
            <ellipse cx="1249.8" cy="413.8438" fill="#B4A7E5" rx="8.8" ry="8.8"
                     style="stroke:#181818;stroke-width:0.8000000000000002;"/>
            <path d="M1250.5625,411.1563 L1250.5625,416.4813 L1251.9375,416.4813 Q1252.425,416.4813 1252.6375,416.6688 Q1252.85,416.8563 1252.85,417.1688 Q1252.85,417.4688 1252.6375,417.6563 Q1252.425,417.8438 1251.9375,417.8438 L1247.825,417.8438 Q1247.3375,417.8438 1247.125,417.6563 Q1246.9125,417.4688 1246.9125,417.1563 Q1246.9125,416.8563 1247.125,416.6688 Q1247.3375,416.4813 1247.825,416.4813 L1249.2,416.4813 L1249.2,411.1563 L1247.825,411.1563 Q1247.3375,411.1563 1247.125,410.9688 Q1246.9125,410.7813 1246.9125,410.4688 Q1246.9125,410.1688 1247.125,409.9813 Q1247.3375,409.7938 1247.825,409.7938 L1251.9375,409.7938 Q1252.425,409.7938 1252.6375,409.9813 Q1252.85,410.1688 1252.85,410.4688 Q1252.85,410.7813 1252.6375,410.9688 Q1252.425,411.1563 1251.9375,411.1563 L1250.5625,411.1563 Z "
                  fill="#000000"/>
            <text fill="#000000" font-family="sans-serif" font-size="9.6" font-style="italic" lengthAdjust="spacing"
                  textLength="73.6" x="1282.6" y="410.3703">&#171;GameUpdater&#187;
            </text>
            <text fill="#000000" font-family="sans-serif" font-size="11.2" font-style="italic" lengthAdjust="spacing"
                  textLength="106.4" x="1266.2" y="424.8656">SocketGameUpdater
            </text>
            <line style="stroke:#181818;stroke-width:0.4000000000000001;" x1="1196" x2="1416.8" y1="431.6766"
                  y2="431.6766"/>
            <text fill="#000000" font-family="sans-serif" font-size="11.2" lengthAdjust="spacing" textLength="212.8"
                  x="1200" y="446.9625">... methods to deliver client model updates
            </text>
            <line style="stroke:#181818;stroke-width:0.4000000000000001;" x1="1196" x2="1416.8" y1="452.9734"
                  y2="452.9734"/>
        </g><!--class SocketGameController-->
        <g id="elem_SocketGameController">
            <rect codeLine="24" fill="#F1F1F1" height="78.2594" id="SocketGameController" rx="2" ry="2"
                  style="stroke:#181818;stroke-width:0.4000000000000001;" width="181.6" x="1446" y="388.4109"/>
            <ellipse cx="1476.36" cy="406.2438" fill="#B4A7E5" rx="8.8" ry="8.8"
                     style="stroke:#181818;stroke-width:0.8000000000000002;"/>
            <path d="M1477.1225,403.5563 L1477.1225,408.8813 L1478.4975,408.8813 Q1478.985,408.8813 1479.1975,409.0688 Q1479.41,409.2563 1479.41,409.5688 Q1479.41,409.8688 1479.1975,410.0563 Q1478.985,410.2438 1478.4975,410.2438 L1474.385,410.2438 Q1473.8975,410.2438 1473.685,410.0563 Q1473.4725,409.8688 1473.4725,409.5563 Q1473.4725,409.2563 1473.685,409.0688 Q1473.8975,408.8813 1474.385,408.8813 L1475.76,408.8813 L1475.76,403.5563 L1474.385,403.5563 Q1473.8975,403.5563 1473.685,403.3688 Q1473.4725,403.1813 1473.4725,402.8688 Q1473.4725,402.5688 1473.685,402.3813 Q1473.8975,402.1938 1474.385,402.1938 L1478.4975,402.1938 Q1478.985,402.1938 1479.1975,402.3813 Q1479.41,402.5688 1479.41,402.8688 Q1479.41,403.1813 1479.1975,403.3688 Q1478.985,403.5563 1478.4975,403.5563 L1477.1225,403.5563 Z "
                  fill="#000000"/>
            <text fill="#000000" font-family="sans-serif" font-size="9.6" font-style="italic" lengthAdjust="spacing"
                  textLength="81.6" x="1508.44" y="402.7703">&#171;GameController&#187;
            </text>
            <text fill="#000000" font-family="sans-serif" font-size="11.2" font-style="italic" lengthAdjust="spacing"
                  textLength="115.2" x="1491.64" y="417.2656">SocketGameController
            </text>
            <line style="stroke:#181818;stroke-width:0.4000000000000001;" x1="1446.8" x2="1626.8" y1="424.0766"
                  y2="424.0766"/>
            <text fill="#000000" font-family="sans-serif" font-size="11.2" lengthAdjust="spacing" textLength="142.4"
                  x="1450.8" y="439.3625">... game controlling methods
            </text>
            <line style="stroke:#181818;stroke-width:0.4000000000000001;" x1="1446.8" x2="1626.8" y1="445.3734"
                  y2="445.3734"/>
            <text fill="#000000" font-family="sans-serif" font-size="11.2" lengthAdjust="spacing" textLength="172"
                  x="1450.8" y="460.6594">+makeMoveExample(Move move);
            </text>
        </g><!--class Packet-->
        <g id="elem_Packet">
            <rect codeLine="30" fill="#F1F1F1" height="48.4656" id="Packet" rx="2" ry="2"
                  style="stroke:#181818;stroke-width:0.4000000000000001;" width="87.2" x="606.8" y="227.2109"/>
            <ellipse cx="618.8" cy="245.0438" fill="#B4A7E5" rx="8.8" ry="8.8"
                     style="stroke:#181818;stroke-width:0.8000000000000002;"/>
            <path d="M619.5625,242.3563 L619.5625,247.6813 L620.9375,247.6813 Q621.425,247.6813 621.6375,247.8688 Q621.85,248.0563 621.85,248.3688 Q621.85,248.6688 621.6375,248.8563 Q621.425,249.0438 620.9375,249.0438 L616.825,249.0438 Q616.3375,249.0438 616.125,248.8563 Q615.9125,248.6688 615.9125,248.3563 Q615.9125,248.0563 616.125,247.8688 Q616.3375,247.6813 616.825,247.6813 L618.2,247.6813 L618.2,242.3563 L616.825,242.3563 Q616.3375,242.3563 616.125,242.1688 Q615.9125,241.9813 615.9125,241.6688 Q615.9125,241.3688 616.125,241.1813 Q616.3375,240.9938 616.825,240.9938 L620.9375,240.9938 Q621.425,240.9938 621.6375,241.1813 Q621.85,241.3688 621.85,241.6688 Q621.85,241.9813 621.6375,242.1688 Q621.425,242.3563 620.9375,242.3563 L619.5625,242.3563 Z "
                  fill="#000000"/>
            <text fill="#000000" font-family="sans-serif" font-size="9.6" font-style="italic" lengthAdjust="spacing"
                  textLength="64.8" x="628.4" y="241.5703">&#171;Serializable&#187;
            </text>
            <text fill="#000000" font-family="sans-serif" font-size="11.2" font-style="italic" lengthAdjust="spacing"
                  textLength="35.2" x="643.2" y="256.0656">Packet
            </text>
            <line style="stroke:#181818;stroke-width:0.4000000000000001;" x1="607.6" x2="693.2" y1="262.8766"
                  y2="262.8766"/>
            <line style="stroke:#181818;stroke-width:0.4000000000000001;" x1="607.6" x2="693.2" y1="269.2766"
                  y2="269.2766"/>
        </g><!--class C2SPacket-->
        <g id="elem_C2SPacket">
            <rect codeLine="31" fill="#F1F1F1" height="48.4656" id="C2SPacket" rx="2" ry="2"
                  style="stroke:#181818;stroke-width:0.4000000000000001;" width="87.2" x="488.4" y="403.2109"/>
            <ellipse cx="500.4" cy="421.0438" fill="#B4A7E5" rx="8.8" ry="8.8"
                     style="stroke:#181818;stroke-width:0.8000000000000002;"/>
            <path d="M501.1625,418.3563 L501.1625,423.6813 L502.5375,423.6813 Q503.025,423.6813 503.2375,423.8688 Q503.45,424.0563 503.45,424.3688 Q503.45,424.6688 503.2375,424.8563 Q503.025,425.0438 502.5375,425.0438 L498.425,425.0438 Q497.9375,425.0438 497.725,424.8563 Q497.5125,424.6688 497.5125,424.3563 Q497.5125,424.0563 497.725,423.8688 Q497.9375,423.6813 498.425,423.6813 L499.8,423.6813 L499.8,418.3563 L498.425,418.3563 Q497.9375,418.3563 497.725,418.1688 Q497.5125,417.9813 497.5125,417.6688 Q497.5125,417.3688 497.725,417.1813 Q497.9375,416.9938 498.425,416.9938 L502.5375,416.9938 Q503.025,416.9938 503.2375,417.1813 Q503.45,417.3688 503.45,417.6688 Q503.45,417.9813 503.2375,418.1688 Q503.025,418.3563 502.5375,418.3563 L501.1625,418.3563 Z "
                  fill="#000000"/>
            <text fill="#000000" font-family="sans-serif" font-size="9.6" font-style="italic" lengthAdjust="spacing"
                  textLength="64.8" x="510" y="417.5703">&#171;Serializable&#187;
            </text>
            <text fill="#000000" font-family="sans-serif" font-size="11.2" font-style="italic" lengthAdjust="spacing"
                  textLength="56.8" x="514" y="432.0656">C2SPacket
            </text>
            <line style="stroke:#181818;stroke-width:0.4000000000000001;" x1="489.2" x2="574.8" y1="438.8766"
                  y2="438.8766"/>
            <line style="stroke:#181818;stroke-width:0.4000000000000001;" x1="489.2" x2="574.8" y1="445.2766"
                  y2="445.2766"/>
        </g><!--class S2CPacket-->
        <g id="elem_S2CPacket">
            <rect codeLine="32" fill="#F1F1F1" height="48.4656" id="S2CPacket" rx="2" ry="2"
                  style="stroke:#181818;stroke-width:0.4000000000000001;" width="87.2" x="725.2" y="403.2109"/>
            <ellipse cx="737.2" cy="421.0438" fill="#B4A7E5" rx="8.8" ry="8.8"
                     style="stroke:#181818;stroke-width:0.8000000000000002;"/>
            <path d="M737.9625,418.3563 L737.9625,423.6813 L739.3375,423.6813 Q739.825,423.6813 740.0375,423.8688 Q740.25,424.0563 740.25,424.3688 Q740.25,424.6688 740.0375,424.8563 Q739.825,425.0438 739.3375,425.0438 L735.225,425.0438 Q734.7375,425.0438 734.525,424.8563 Q734.3125,424.6688 734.3125,424.3563 Q734.3125,424.0563 734.525,423.8688 Q734.7375,423.6813 735.225,423.6813 L736.6,423.6813 L736.6,418.3563 L735.225,418.3563 Q734.7375,418.3563 734.525,418.1688 Q734.3125,417.9813 734.3125,417.6688 Q734.3125,417.3688 734.525,417.1813 Q734.7375,416.9938 735.225,416.9938 L739.3375,416.9938 Q739.825,416.9938 740.0375,417.1813 Q740.25,417.3688 740.25,417.6688 Q740.25,417.9813 740.0375,418.1688 Q739.825,418.3563 739.3375,418.3563 L737.9625,418.3563 Z "
                  fill="#000000"/>
            <text fill="#000000" font-family="sans-serif" font-size="9.6" font-style="italic" lengthAdjust="spacing"
                  textLength="64.8" x="746.8" y="417.5703">&#171;Serializable&#187;
            </text>
            <text fill="#000000" font-family="sans-serif" font-size="11.2" font-style="italic" lengthAdjust="spacing"
                  textLength="56.8" x="750.8" y="432.0656">S2CPacket
            </text>
            <line style="stroke:#181818;stroke-width:0.4000000000000001;" x1="726" x2="811.6" y1="438.8766"
                  y2="438.8766"/>
            <line style="stroke:#181818;stroke-width:0.4000000000000001;" x1="726" x2="811.6" y1="445.2766"
                  y2="445.2766"/>
        </g><!--class EstablishConnectionPacket-->
        <g id="elem_EstablishConnectionPacket">
            <rect codeLine="33" fill="#F1F1F1" height="78.2594" id="EstablishConnectionPacket" rx="2" ry="2"
                  style="stroke:#181818;stroke-width:0.4000000000000001;" width="163.2" x="283.2" y="631.6109"/>
            <ellipse cx="295.2" cy="649.4438" fill="#ADD1B2" rx="8.8" ry="8.8"
                     style="stroke:#181818;stroke-width:0.8000000000000002;"/>
            <path d="M297.4125,646.1438 Q297.5375,645.9688 297.6875,645.8813 Q297.8375,645.7938 298.0125,645.7938 Q298.3125,645.7938 298.5,646.0063 Q298.6875,646.2063 298.6875,646.6938 L298.6875,647.8563 Q298.6875,648.3438 298.5,648.5563 Q298.3125,648.7688 298.0125,648.7688 Q297.7375,648.7688 297.575,648.6063 Q297.4125,648.4563 297.325,648.0438 Q297.2875,647.7563 297.1375,647.6063 Q296.875,647.3063 296.3875,647.1313 Q295.9,646.9563 295.4,646.9563 Q294.7875,646.9563 294.275,647.2188 Q293.775,647.4813 293.375,648.0813 Q292.9875,648.6813 292.9875,649.5063 L292.9875,650.3813 Q292.9875,651.3688 293.7,652.0313 Q294.4125,652.6813 295.6875,652.6813 Q296.4375,652.6813 296.9625,652.4813 Q297.275,652.3563 297.6125,652.0063 Q297.825,651.7938 297.9375,651.7313 Q298.0625,651.6688 298.225,651.6688 Q298.4875,651.6688 298.6875,651.8813 Q298.9,652.0813 298.9,652.3563 Q298.9,652.6313 298.625,652.9563 Q298.225,653.4188 297.5875,653.6813 Q296.725,654.0438 295.6875,654.0438 Q294.475,654.0438 293.5125,653.5438 Q292.725,653.1438 292.175,652.2938 Q291.625,651.4313 291.625,650.4063 L291.625,649.4813 Q291.625,648.4188 292.1125,647.5063 Q292.6125,646.5813 293.4875,646.0938 Q294.3625,645.5938 295.35,645.5938 Q295.9375,645.5938 296.45,645.7313 Q296.975,645.8563 297.4125,646.1438 Z "
                  fill="#000000"/>
            <text fill="#000000" font-family="sans-serif" font-size="9.6" font-style="italic" lengthAdjust="spacing"
                  textLength="64.8" x="342.8" y="645.9703">&#171;Serializable&#187;
            </text>
            <text fill="#000000" font-family="sans-serif" font-size="11.2" lengthAdjust="spacing" textLength="137.6"
                  x="306.4" y="660.4656">EstablishConnectionPacket
            </text>
            <line style="stroke:#181818;stroke-width:0.4000000000000001;" x1="284" x2="445.6" y1="667.2766"
                  y2="667.2766"/>
            <text fill="#000000" font-family="sans-serif" font-size="11.2" lengthAdjust="spacing" textLength="56.8"
                  x="288" y="682.5625">-String nick
            </text>
            <line style="stroke:#181818;stroke-width:0.4000000000000001;" x1="284" x2="445.6" y1="688.5734"
                  y2="688.5734"/>
            <text fill="#000000" font-family="sans-serif" font-size="11.2" lengthAdjust="spacing" textLength="84"
                  x="288" y="703.8594">+String getNick()
            </text>
        </g><!--class LobbyPacket-->
        <g id="elem_LobbyPacket">
            <rect codeLine="37" fill="#F1F1F1" height="78.2594" id="LobbyPacket" rx="2" ry="2"
                  style="stroke:#181818;stroke-width:0.4000000000000001;" width="129.6" x="617.6" y="631.6109"/>
            <ellipse cx="646.88" cy="649.4438" fill="#ADD1B2" rx="8.8" ry="8.8"
                     style="stroke:#181818;stroke-width:0.8000000000000002;"/>
            <path d="M649.0925,646.1438 Q649.2175,645.9688 649.3675,645.8813 Q649.5175,645.7938 649.6925,645.7938 Q649.9925,645.7938 650.18,646.0063 Q650.3675,646.2063 650.3675,646.6938 L650.3675,647.8563 Q650.3675,648.3438 650.18,648.5563 Q649.9925,648.7688 649.6925,648.7688 Q649.4175,648.7688 649.255,648.6063 Q649.0925,648.4563 649.005,648.0438 Q648.9675,647.7563 648.8175,647.6063 Q648.555,647.3063 648.0675,647.1313 Q647.58,646.9563 647.08,646.9563 Q646.4675,646.9563 645.955,647.2188 Q645.455,647.4813 645.055,648.0813 Q644.6675,648.6813 644.6675,649.5063 L644.6675,650.3813 Q644.6675,651.3688 645.38,652.0313 Q646.0925,652.6813 647.3675,652.6813 Q648.1175,652.6813 648.6425,652.4813 Q648.955,652.3563 649.2925,652.0063 Q649.505,651.7938 649.6175,651.7313 Q649.7425,651.6688 649.905,651.6688 Q650.1675,651.6688 650.3675,651.8813 Q650.58,652.0813 650.58,652.3563 Q650.58,652.6313 650.305,652.9563 Q649.905,653.4188 649.2675,653.6813 Q648.405,654.0438 647.3675,654.0438 Q646.155,654.0438 645.1925,653.5438 Q644.405,653.1438 643.855,652.2938 Q643.305,651.4313 643.305,650.4063 L643.305,649.4813 Q643.305,648.4188 643.7925,647.5063 Q644.2925,646.5813 645.1675,646.0938 Q646.0425,645.5938 647.03,645.5938 Q647.6175,645.5938 648.13,645.7313 Q648.655,645.8563 649.0925,646.1438 Z "
                  fill="#000000"/>
            <text fill="#000000" font-family="sans-serif" font-size="9.6" font-style="italic" lengthAdjust="spacing"
                  textLength="64.8" x="662.32" y="645.9703">&#171;Serializable&#187;
            </text>
            <text fill="#000000" font-family="sans-serif" font-size="11.2" lengthAdjust="spacing" textLength="65.6"
                  x="661.92" y="660.4656">LobbyPacket
            </text>
            <line style="stroke:#181818;stroke-width:0.4000000000000001;" x1="618.4" x2="746.4" y1="667.2766"
                  y2="667.2766"/>
            <text fill="#000000" font-family="sans-serif" font-size="11.2" lengthAdjust="spacing" textLength="92.8"
                  x="622.4" y="682.5625">-List&lt;String&gt; nicks
            </text>
            <line style="stroke:#181818;stroke-width:0.4000000000000001;" x1="618.4" x2="746.4" y1="688.5734"
                  y2="688.5734"/>
            <text fill="#000000" font-family="sans-serif" font-size="11.2" lengthAdjust="spacing" textLength="120"
                  x="622.4" y="703.8594">+List&lt;String&gt; getNicks()
            </text>
        </g><!--class UpdateJoinedPlayerPacket-->
        <g id="elem_UpdateJoinedPlayerPacket">
            <rect codeLine="41" fill="#F1F1F1" height="78.2594" id="UpdateJoinedPlayerPacket" rx="2" ry="2"
                  style="stroke:#181818;stroke-width:0.4000000000000001;" width="160.8" x="775.6" y="631.6109"/>
            <ellipse cx="787.6" cy="649.4438" fill="#ADD1B2" rx="8.8" ry="8.8"
                     style="stroke:#181818;stroke-width:0.8000000000000002;"/>
            <path d="M789.8125,646.1438 Q789.9375,645.9688 790.0875,645.8813 Q790.2375,645.7938 790.4125,645.7938 Q790.7125,645.7938 790.9,646.0063 Q791.0875,646.2063 791.0875,646.6938 L791.0875,647.8563 Q791.0875,648.3438 790.9,648.5563 Q790.7125,648.7688 790.4125,648.7688 Q790.1375,648.7688 789.975,648.6063 Q789.8125,648.4563 789.725,648.0438 Q789.6875,647.7563 789.5375,647.6063 Q789.275,647.3063 788.7875,647.1313 Q788.3,646.9563 787.8,646.9563 Q787.1875,646.9563 786.675,647.2188 Q786.175,647.4813 785.775,648.0813 Q785.3875,648.6813 785.3875,649.5063 L785.3875,650.3813 Q785.3875,651.3688 786.1,652.0313 Q786.8125,652.6813 788.0875,652.6813 Q788.8375,652.6813 789.3625,652.4813 Q789.675,652.3563 790.0125,652.0063 Q790.225,651.7938 790.3375,651.7313 Q790.4625,651.6688 790.625,651.6688 Q790.8875,651.6688 791.0875,651.8813 Q791.3,652.0813 791.3,652.3563 Q791.3,652.6313 791.025,652.9563 Q790.625,653.4188 789.9875,653.6813 Q789.125,654.0438 788.0875,654.0438 Q786.875,654.0438 785.9125,653.5438 Q785.125,653.1438 784.575,652.2938 Q784.025,651.4313 784.025,650.4063 L784.025,649.4813 Q784.025,648.4188 784.5125,647.5063 Q785.0125,646.5813 785.8875,646.0938 Q786.7625,645.5938 787.75,645.5938 Q788.3375,645.5938 788.85,645.7313 Q789.375,645.8563 789.8125,646.1438 Z "
                  fill="#000000"/>
            <text fill="#000000" font-family="sans-serif" font-size="9.6" font-style="italic" lengthAdjust="spacing"
                  textLength="64.8" x="834" y="645.9703">&#171;Serializable&#187;
            </text>
            <text fill="#000000" font-family="sans-serif" font-size="11.2" lengthAdjust="spacing" textLength="135.2"
                  x="798.8" y="660.4656">UpdateJoinedPlayerPacket
            </text>
            <line style="stroke:#181818;stroke-width:0.4000000000000001;" x1="776.4" x2="935.6" y1="667.2766"
                  y2="667.2766"/>
            <text fill="#000000" font-family="sans-serif" font-size="11.2" lengthAdjust="spacing" textLength="92.8"
                  x="780.4" y="682.5625">-List&lt;String&gt; nicks
            </text>
            <line style="stroke:#181818;stroke-width:0.4000000000000001;" x1="776.4" x2="935.6" y1="688.5734"
                  y2="688.5734"/>
            <text fill="#000000" font-family="sans-serif" font-size="11.2" lengthAdjust="spacing" textLength="120"
                  x="780.4" y="703.8594">+List&lt;String&gt; getNicks()
            </text>
        </g><!--class UpdatePlayerPacket-->
        <g id="elem_UpdatePlayerPacket">
            <rect codeLine="45" fill="#F1F1F1" height="78.2594" id="UpdatePlayerPacket" rx="2" ry="2"
                  style="stroke:#181818;stroke-width:0.4000000000000001;" width="128" x="964.8" y="631.6109"/>
            <ellipse cx="976.8" cy="649.4438" fill="#ADD1B2" rx="8.8" ry="8.8"
                     style="stroke:#181818;stroke-width:0.8000000000000002;"/>
            <path d="M979.0125,646.1438 Q979.1375,645.9688 979.2875,645.8813 Q979.4375,645.7938 979.6125,645.7938 Q979.9125,645.7938 980.1,646.0063 Q980.2875,646.2063 980.2875,646.6938 L980.2875,647.8563 Q980.2875,648.3438 980.1,648.5563 Q979.9125,648.7688 979.6125,648.7688 Q979.3375,648.7688 979.175,648.6063 Q979.0125,648.4563 978.925,648.0438 Q978.8875,647.7563 978.7375,647.6063 Q978.475,647.3063 977.9875,647.1313 Q977.5,646.9563 977,646.9563 Q976.3875,646.9563 975.875,647.2188 Q975.375,647.4813 974.975,648.0813 Q974.5875,648.6813 974.5875,649.5063 L974.5875,650.3813 Q974.5875,651.3688 975.3,652.0313 Q976.0125,652.6813 977.2875,652.6813 Q978.0375,652.6813 978.5625,652.4813 Q978.875,652.3563 979.2125,652.0063 Q979.425,651.7938 979.5375,651.7313 Q979.6625,651.6688 979.825,651.6688 Q980.0875,651.6688 980.2875,651.8813 Q980.5,652.0813 980.5,652.3563 Q980.5,652.6313 980.225,652.9563 Q979.825,653.4188 979.1875,653.6813 Q978.325,654.0438 977.2875,654.0438 Q976.075,654.0438 975.1125,653.5438 Q974.325,653.1438 973.775,652.2938 Q973.225,651.4313 973.225,650.4063 L973.225,649.4813 Q973.225,648.4188 973.7125,647.5063 Q974.2125,646.5813 975.0875,646.0938 Q975.9625,645.5938 976.95,645.5938 Q977.5375,645.5938 978.05,645.7313 Q978.575,645.8563 979.0125,646.1438 Z "
                  fill="#000000"/>
            <text fill="#000000" font-family="sans-serif" font-size="9.6" font-style="italic" lengthAdjust="spacing"
                  textLength="64.8" x="1006.8" y="645.9703">&#171;Serializable&#187;
            </text>
            <text fill="#000000" font-family="sans-serif" font-size="11.2" lengthAdjust="spacing" textLength="102.4"
                  x="988" y="660.4656">UpdatePlayerPacket
            </text>
            <line style="stroke:#181818;stroke-width:0.4000000000000001;" x1="965.6" x2="1092" y1="667.2766"
                  y2="667.2766"/>
            <text fill="#000000" font-family="sans-serif" font-size="11.2" lengthAdjust="spacing" textLength="70.4"
                  x="969.6" y="682.5625">-Player player
            </text>
            <line style="stroke:#181818;stroke-width:0.4000000000000001;" x1="965.6" x2="1092" y1="688.5734"
                  y2="688.5734"/>
            <text fill="#000000" font-family="sans-serif" font-size="11.2" lengthAdjust="spacing" textLength="97.6"
                  x="969.6" y="703.8594">+Player getPlayer()
            </text>
        </g><!--class MakeMovePacket-->
        <g id="elem_MakeMovePacket">
            <rect codeLine="49" fill="#F1F1F1" height="63.3625" id="MakeMovePacket" rx="2" ry="2"
                  style="stroke:#181818;stroke-width:0.4000000000000001;" width="114.4" x="474.8" y="639.2109"/>
            <ellipse cx="486.8" cy="657.0438" fill="#ADD1B2" rx="8.8" ry="8.8"
                     style="stroke:#181818;stroke-width:0.8000000000000002;"/>
            <path d="M489.0125,653.7438 Q489.1375,653.5688 489.2875,653.4813 Q489.4375,653.3938 489.6125,653.3938 Q489.9125,653.3938 490.1,653.6063 Q490.2875,653.8063 490.2875,654.2938 L490.2875,655.4563 Q490.2875,655.9438 490.1,656.1563 Q489.9125,656.3688 489.6125,656.3688 Q489.3375,656.3688 489.175,656.2063 Q489.0125,656.0563 488.925,655.6438 Q488.8875,655.3563 488.7375,655.2063 Q488.475,654.9063 487.9875,654.7313 Q487.5,654.5563 487,654.5563 Q486.3875,654.5563 485.875,654.8188 Q485.375,655.0813 484.975,655.6813 Q484.5875,656.2813 484.5875,657.1063 L484.5875,657.9813 Q484.5875,658.9688 485.3,659.6313 Q486.0125,660.2813 487.2875,660.2813 Q488.0375,660.2813 488.5625,660.0813 Q488.875,659.9563 489.2125,659.6063 Q489.425,659.3938 489.5375,659.3313 Q489.6625,659.2688 489.825,659.2688 Q490.0875,659.2688 490.2875,659.4813 Q490.5,659.6813 490.5,659.9563 Q490.5,660.2313 490.225,660.5563 Q489.825,661.0188 489.1875,661.2813 Q488.325,661.6438 487.2875,661.6438 Q486.075,661.6438 485.1125,661.1438 Q484.325,660.7438 483.775,659.8938 Q483.225,659.0313 483.225,658.0063 L483.225,657.0813 Q483.225,656.0188 483.7125,655.1063 Q484.2125,654.1813 485.0875,653.6938 Q485.9625,653.1938 486.95,653.1938 Q487.5375,653.1938 488.05,653.3313 Q488.575,653.4563 489.0125,653.7438 Z "
                  fill="#000000"/>
            <text fill="#000000" font-family="sans-serif" font-size="9.6" font-style="italic" lengthAdjust="spacing"
                  textLength="64.8" x="510" y="653.5703">&#171;Serializable&#187;
            </text>
            <text fill="#000000" font-family="sans-serif" font-size="11.2" lengthAdjust="spacing" textLength="88.8"
                  x="498" y="668.0656">MakeMovePacket
            </text>
            <line style="stroke:#181818;stroke-width:0.4000000000000001;" x1="475.6" x2="588.4" y1="674.8766"
                  y2="674.8766"/>
            <text fill="#000000" font-family="sans-serif" font-size="11.2" lengthAdjust="spacing" textLength="9.6"
                  x="479.6" y="690.1625">...
            </text>
            <line style="stroke:#181818;stroke-width:0.4000000000000001;" x1="475.6" x2="588.4" y1="696.1734"
                  y2="696.1734"/>
        </g><!--class ServerController-->
        <g id="elem_ServerController">
            <rect codeLine="57" fill="#F1F1F1" height="97.9875" id="ServerController" rx="2" ry="2"
                  style="stroke:#181818;stroke-width:0.4000000000000001;" width="305.6" x="2256.8" y="995.6109"/>
            <ellipse cx="2364.6" cy="1008.4109" fill="#ADD1B2" rx="8.8" ry="8.8"
                     style="stroke:#181818;stroke-width:0.8000000000000002;"/>
            <path d="M2366.8125,1005.1109 Q2366.9375,1004.9359 2367.0875,1004.8484 Q2367.2375,1004.7609 2367.4125,1004.7609 Q2367.7125,1004.7609 2367.9,1004.9734 Q2368.0875,1005.1734 2368.0875,1005.6609 L2368.0875,1006.8234 Q2368.0875,1007.3109 2367.9,1007.5234 Q2367.7125,1007.7359 2367.4125,1007.7359 Q2367.1375,1007.7359 2366.975,1007.5734 Q2366.8125,1007.4234 2366.725,1007.0109 Q2366.6875,1006.7234 2366.5375,1006.5734 Q2366.275,1006.2734 2365.7875,1006.0984 Q2365.3,1005.9234 2364.8,1005.9234 Q2364.1875,1005.9234 2363.675,1006.1859 Q2363.175,1006.4484 2362.775,1007.0484 Q2362.3875,1007.6484 2362.3875,1008.4734 L2362.3875,1009.3484 Q2362.3875,1010.3359 2363.1,1010.9984 Q2363.8125,1011.6484 2365.0875,1011.6484 Q2365.8375,1011.6484 2366.3625,1011.4484 Q2366.675,1011.3234 2367.0125,1010.9734 Q2367.225,1010.7609 2367.3375,1010.6984 Q2367.4625,1010.6359 2367.625,1010.6359 Q2367.8875,1010.6359 2368.0875,1010.8484 Q2368.3,1011.0484 2368.3,1011.3234 Q2368.3,1011.5984 2368.025,1011.9234 Q2367.625,1012.3859 2366.9875,1012.6484 Q2366.125,1013.0109 2365.0875,1013.0109 Q2363.875,1013.0109 2362.9125,1012.5109 Q2362.125,1012.1109 2361.575,1011.2609 Q2361.025,1010.3984 2361.025,1009.3734 L2361.025,1008.4484 Q2361.025,1007.3859 2361.5125,1006.4734 Q2362.0125,1005.5484 2362.8875,1005.0609 Q2363.7625,1004.5609 2364.75,1004.5609 Q2365.3375,1004.5609 2365.85,1004.6984 Q2366.375,1004.8234 2366.8125,1005.1109 Z "
                  fill="#000000"/>
            <text fill="#000000" font-family="sans-serif" font-size="11.2" lengthAdjust="spacing" textLength="83.2"
                  x="2381" y="1013.0484">ServerController
            </text>
            <line style="stroke:#181818;stroke-width:0.4000000000000001;" x1="2257.6" x2="2561.6" y1="1021.2109"
                  y2="1021.2109"/>
            <line style="stroke:#181818;stroke-width:0.4000000000000001;" x1="2257.6" x2="2561.6" y1="1027.6109"
                  y2="1027.6109"/>
            <text fill="#000000" font-family="sans-serif" font-size="11.2" lengthAdjust="spacing" textLength="116"
                  x="2261.6" y="1042.8969">+LobbyView joinGame(
            </text>
            <text fill="#000000" font-family="sans-serif" font-size="11.2" lengthAdjust="spacing" textLength="56"
                  x="2300" y="1057.7938">String nick,
            </text>
            <text fill="#000000" font-family="sans-serif" font-size="11.2" lengthAdjust="spacing" textLength="193.6"
                  x="2300" y="1072.6906">LobbyUpdaterFactory updaterFactory,
            </text>
            <text fill="#000000" font-family="sans-serif" font-size="11.2" lengthAdjust="spacing" textLength="257.6"
                  x="2300" y="1087.5875">Supplier&lt;GameController&gt; gameControllerFactory)
            </text>
        </g><!--class GameServerController-->
        <g id="elem_GameServerController">
            <rect codeLine="64" fill="#F1F1F1" height="119.2844" id="GameServerController" rx="2" ry="2"
                  style="stroke:#181818;stroke-width:0.4000000000000001;" width="254.4" x="2254.4" y="813.2109"/>
            <ellipse cx="2321.4" cy="826.0109" fill="#ADD1B2" rx="8.8" ry="8.8"
                     style="stroke:#181818;stroke-width:0.8000000000000002;"/>
            <path d="M2323.6125,822.7109 Q2323.7375,822.5359 2323.8875,822.4484 Q2324.0375,822.3609 2324.2125,822.3609 Q2324.5125,822.3609 2324.7,822.5734 Q2324.8875,822.7734 2324.8875,823.2609 L2324.8875,824.4234 Q2324.8875,824.9109 2324.7,825.1234 Q2324.5125,825.3359 2324.2125,825.3359 Q2323.9375,825.3359 2323.775,825.1734 Q2323.6125,825.0234 2323.525,824.6109 Q2323.4875,824.3234 2323.3375,824.1734 Q2323.075,823.8734 2322.5875,823.6984 Q2322.1,823.5234 2321.6,823.5234 Q2320.9875,823.5234 2320.475,823.7859 Q2319.975,824.0484 2319.575,824.6484 Q2319.1875,825.2484 2319.1875,826.0734 L2319.1875,826.9484 Q2319.1875,827.9359 2319.9,828.5984 Q2320.6125,829.2484 2321.8875,829.2484 Q2322.6375,829.2484 2323.1625,829.0484 Q2323.475,828.9234 2323.8125,828.5734 Q2324.025,828.3609 2324.1375,828.2984 Q2324.2625,828.2359 2324.425,828.2359 Q2324.6875,828.2359 2324.8875,828.4484 Q2325.1,828.6484 2325.1,828.9234 Q2325.1,829.1984 2324.825,829.5234 Q2324.425,829.9859 2323.7875,830.2484 Q2322.925,830.6109 2321.8875,830.6109 Q2320.675,830.6109 2319.7125,830.1109 Q2318.925,829.7109 2318.375,828.8609 Q2317.825,827.9984 2317.825,826.9734 L2317.825,826.0484 Q2317.825,824.9859 2318.3125,824.0734 Q2318.8125,823.1484 2319.6875,822.6609 Q2320.5625,822.1609 2321.55,822.1609 Q2322.1375,822.1609 2322.65,822.2984 Q2323.175,822.4234 2323.6125,822.7109 Z "
                  fill="#000000"/>
            <text fill="#000000" font-family="sans-serif" font-size="11.2" lengthAdjust="spacing" textLength="113.6"
                  x="2337.8" y="830.6484">GameServerController
            </text>
            <line style="stroke:#181818;stroke-width:0.4000000000000001;" x1="2255.2" x2="2508" y1="838.8109"
                  y2="838.8109"/>
            <text fill="#000000" font-family="sans-serif" font-size="11.2" lengthAdjust="spacing" textLength="136"
                  x="2259.2" y="854.0969">This is the actual controller
            </text>
            <line style="stroke:#181818;stroke-width:0.4000000000000001;" x1="2255.2" x2="2508" y1="860.1078"
                  y2="860.1078"/>
            <text fill="#000000" font-family="sans-serif" font-size="11.2" lengthAdjust="spacing" textLength="65.6"
                  x="2259.2" y="875.3938">-Game game
            </text>
            <line style="stroke:#181818;stroke-width:0.4000000000000001;" x1="2255.2" x2="2508" y1="881.4047"
                  y2="881.4047"/>
            <text fill="#000000" font-family="sans-serif" font-size="11.2" lengthAdjust="spacing" textLength="129.6"
                  x="2259.2" y="896.6906">game controlling methods
            </text>
            <text fill="#000000" font-family="sans-serif" font-size="11.2" lengthAdjust="spacing" textLength="159.2"
                  x="2259.2" y="911.5875">overloaded with player instance
            </text>
            <text fill="#000000" font-family="sans-serif" font-size="11.2" lengthAdjust="spacing" textLength="244.8"
                  x="2259.2" y="926.4844">+makeMoveExample(Player player, Move move);
            </text>
        </g><!--class SocketConnectionServerController-->
        <g id="elem_SocketConnectionServerController">
            <rect codeLine="76" fill="#F1F1F1" height="83.0906" id="SocketConnectionServerController" rx="2" ry="2"
                  style="stroke:#181818;stroke-width:0.4000000000000001;" width="200.8" x="1964.4" y="831.2109"/>
            <ellipse cx="1976.4" cy="844.0109" fill="#ADD1B2" rx="8.8" ry="8.8"
                     style="stroke:#181818;stroke-width:0.8000000000000002;"/>
            <path d="M1978.6125,840.7109 Q1978.7375,840.5359 1978.8875,840.4484 Q1979.0375,840.3609 1979.2125,840.3609 Q1979.5125,840.3609 1979.7,840.5734 Q1979.8875,840.7734 1979.8875,841.2609 L1979.8875,842.4234 Q1979.8875,842.9109 1979.7,843.1234 Q1979.5125,843.3359 1979.2125,843.3359 Q1978.9375,843.3359 1978.775,843.1734 Q1978.6125,843.0234 1978.525,842.6109 Q1978.4875,842.3234 1978.3375,842.1734 Q1978.075,841.8734 1977.5875,841.6984 Q1977.1,841.5234 1976.6,841.5234 Q1975.9875,841.5234 1975.475,841.7859 Q1974.975,842.0484 1974.575,842.6484 Q1974.1875,843.2484 1974.1875,844.0734 L1974.1875,844.9484 Q1974.1875,845.9359 1974.9,846.5984 Q1975.6125,847.2484 1976.8875,847.2484 Q1977.6375,847.2484 1978.1625,847.0484 Q1978.475,846.9234 1978.8125,846.5734 Q1979.025,846.3609 1979.1375,846.2984 Q1979.2625,846.2359 1979.425,846.2359 Q1979.6875,846.2359 1979.8875,846.4484 Q1980.1,846.6484 1980.1,846.9234 Q1980.1,847.1984 1979.825,847.5234 Q1979.425,847.9859 1978.7875,848.2484 Q1977.925,848.6109 1976.8875,848.6109 Q1975.675,848.6109 1974.7125,848.1109 Q1973.925,847.7109 1973.375,846.8609 Q1972.825,845.9984 1972.825,844.9734 L1972.825,844.0484 Q1972.825,842.9859 1973.3125,842.0734 Q1973.8125,841.1484 1974.6875,840.6609 Q1975.5625,840.1609 1976.55,840.1609 Q1977.1375,840.1609 1977.65,840.2984 Q1978.175,840.4234 1978.6125,840.7109 Z "
                  fill="#000000"/>
            <text fill="#000000" font-family="sans-serif" font-size="11.2" lengthAdjust="spacing" textLength="175.2"
                  x="1987.6" y="848.6484">SocketConnectionServerController
            </text>
            <line style="stroke:#181818;stroke-width:0.4000000000000001;" x1="1965.2" x2="2164.4" y1="856.8109"
                  y2="856.8109"/>
            <text fill="#000000" font-family="sans-serif" font-size="11.2" lengthAdjust="spacing" textLength="144"
                  x="1969.2" y="872.0969">-ExecutorService threadPool
            </text>
            <text fill="#000000" font-family="sans-serif" font-size="11.2" lengthAdjust="spacing" textLength="141.6"
                  x="1969.2" y="886.9938">-SocketServer socketServer
            </text>
            <line style="stroke:#181818;stroke-width:0.4000000000000001;" x1="1965.2" x2="2164.4" y1="893.0047"
                  y2="893.0047"/>
            <text fill="#000000" font-family="sans-serif" font-size="11.2" lengthAdjust="spacing" textLength="151.2"
                  x="1969.2" y="908.2906">accepts incoming connections
            </text>
        </g><!--class SocketLobbyUpdaterServerFactory-->
        <g id="elem_SocketLobbyUpdaterServerFactory">
            <rect codeLine="83" fill="#F1F1F1" height="97.9875" id="SocketLobbyUpdaterServerFactory" rx="2" ry="2"
                  style="stroke:#181818;stroke-width:0.4000000000000001;" width="203.2" x="1711.2" y="995.6109"/>
            <ellipse cx="1723.2" cy="1008.4109" fill="#ADD1B2" rx="8.8" ry="8.8"
                     style="stroke:#181818;stroke-width:0.8000000000000002;"/>
            <path d="M1725.4125,1005.1109 Q1725.5375,1004.9359 1725.6875,1004.8484 Q1725.8375,1004.7609 1726.0125,1004.7609 Q1726.3125,1004.7609 1726.5,1004.9734 Q1726.6875,1005.1734 1726.6875,1005.6609 L1726.6875,1006.8234 Q1726.6875,1007.3109 1726.5,1007.5234 Q1726.3125,1007.7359 1726.0125,1007.7359 Q1725.7375,1007.7359 1725.575,1007.5734 Q1725.4125,1007.4234 1725.325,1007.0109 Q1725.2875,1006.7234 1725.1375,1006.5734 Q1724.875,1006.2734 1724.3875,1006.0984 Q1723.9,1005.9234 1723.4,1005.9234 Q1722.7875,1005.9234 1722.275,1006.1859 Q1721.775,1006.4484 1721.375,1007.0484 Q1720.9875,1007.6484 1720.9875,1008.4734 L1720.9875,1009.3484 Q1720.9875,1010.3359 1721.7,1010.9984 Q1722.4125,1011.6484 1723.6875,1011.6484 Q1724.4375,1011.6484 1724.9625,1011.4484 Q1725.275,1011.3234 1725.6125,1010.9734 Q1725.825,1010.7609 1725.9375,1010.6984 Q1726.0625,1010.6359 1726.225,1010.6359 Q1726.4875,1010.6359 1726.6875,1010.8484 Q1726.9,1011.0484 1726.9,1011.3234 Q1726.9,1011.5984 1726.625,1011.9234 Q1726.225,1012.3859 1725.5875,1012.6484 Q1724.725,1013.0109 1723.6875,1013.0109 Q1722.475,1013.0109 1721.5125,1012.5109 Q1720.725,1012.1109 1720.175,1011.2609 Q1719.625,1010.3984 1719.625,1009.3734 L1719.625,1008.4484 Q1719.625,1007.3859 1720.1125,1006.4734 Q1720.6125,1005.5484 1721.4875,1005.0609 Q1722.3625,1004.5609 1723.35,1004.5609 Q1723.9375,1004.5609 1724.45,1004.6984 Q1724.975,1004.8234 1725.4125,1005.1109 Z "
                  fill="#000000"/>
            <text fill="#000000" font-family="sans-serif" font-size="11.2" lengthAdjust="spacing" textLength="177.6"
                  x="1734.4" y="1013.0484">SocketLobbyUpdaterServerFactory
            </text>
            <line style="stroke:#181818;stroke-width:0.4000000000000001;" x1="1712" x2="1913.6" y1="1021.2109"
                  y2="1021.2109"/>
            <text fill="#000000" font-family="sans-serif" font-size="11.2" lengthAdjust="spacing" textLength="109.6"
                  x="1716" y="1036.4969">-ObjectInputStream in
            </text>
            <text fill="#000000" font-family="sans-serif" font-size="11.2" lengthAdjust="spacing" textLength="126.4"
                  x="1716" y="1051.3938">-ObjectOutputStream out
            </text>
            <line style="stroke:#181818;stroke-width:0.4000000000000001;" x1="1712" x2="1913.6" y1="1057.4047"
                  y2="1057.4047"/>
            <text fill="#000000" font-family="sans-serif" font-size="11.2" lengthAdjust="spacing" textLength="177.6"
                  x="1716" y="1072.6906">receive EstablishConnectionPacket
            </text>
            <text fill="#000000" font-family="sans-serif" font-size="11.2" lengthAdjust="spacing" textLength="185.6"
                  x="1716" y="1087.5875">create Lobby and send LobbyPacket
            </text>
        </g><!--class SocketLobbyServerUpdater-->
        <g id="elem_SocketLobbyServerUpdater">
            <rect codeLine="92" fill="#F1F1F1" height="93.1563" id="SocketLobbyServerUpdater" rx="2" ry="2"
                  style="stroke:#181818;stroke-width:0.4000000000000001;" width="285.6" x="1942.8" y="998.0109"/>
            <ellipse cx="2012.6" cy="1015.8438" fill="#ADD1B2" rx="8.8" ry="8.8"
                     style="stroke:#181818;stroke-width:0.8000000000000002;"/>
            <path d="M2014.8125,1012.5438 Q2014.9375,1012.3688 2015.0875,1012.2813 Q2015.2375,1012.1938 2015.4125,1012.1938 Q2015.7125,1012.1938 2015.9,1012.4063 Q2016.0875,1012.6063 2016.0875,1013.0938 L2016.0875,1014.2563 Q2016.0875,1014.7438 2015.9,1014.9563 Q2015.7125,1015.1688 2015.4125,1015.1688 Q2015.1375,1015.1688 2014.975,1015.0063 Q2014.8125,1014.8563 2014.725,1014.4438 Q2014.6875,1014.1563 2014.5375,1014.0063 Q2014.275,1013.7063 2013.7875,1013.5313 Q2013.3,1013.3563 2012.8,1013.3563 Q2012.1875,1013.3563 2011.675,1013.6188 Q2011.175,1013.8813 2010.775,1014.4813 Q2010.3875,1015.0813 2010.3875,1015.9063 L2010.3875,1016.7813 Q2010.3875,1017.7688 2011.1,1018.4313 Q2011.8125,1019.0813 2013.0875,1019.0813 Q2013.8375,1019.0813 2014.3625,1018.8813 Q2014.675,1018.7563 2015.0125,1018.4063 Q2015.225,1018.1938 2015.3375,1018.1313 Q2015.4625,1018.0688 2015.625,1018.0688 Q2015.8875,1018.0688 2016.0875,1018.2813 Q2016.3,1018.4813 2016.3,1018.7563 Q2016.3,1019.0313 2016.025,1019.3563 Q2015.625,1019.8188 2014.9875,1020.0813 Q2014.125,1020.4438 2013.0875,1020.4438 Q2011.875,1020.4438 2010.9125,1019.9438 Q2010.125,1019.5438 2009.575,1018.6938 Q2009.025,1017.8313 2009.025,1016.8063 L2009.025,1015.8813 Q2009.025,1014.8188 2009.5125,1013.9063 Q2010.0125,1012.9813 2010.8875,1012.4938 Q2011.7625,1011.9938 2012.75,1011.9938 Q2013.3375,1011.9938 2013.85,1012.1313 Q2014.375,1012.2563 2014.8125,1012.5438 Z "
                  fill="#000000"/>
            <text fill="#000000" font-family="sans-serif" font-size="9.6" font-style="italic" lengthAdjust="spacing"
                  textLength="69.6" x="2063.8" y="1012.3703">&#171;Runnable (?)&#187;
            </text>
            <text fill="#000000" font-family="sans-serif" font-size="11.2" lengthAdjust="spacing" textLength="139.2"
                  x="2029" y="1026.8656">SocketLobbyServerUpdater
            </text>
            <line style="stroke:#181818;stroke-width:0.4000000000000001;" x1="1943.6" x2="2227.6" y1="1033.6766"
                  y2="1033.6766"/>
            <text fill="#000000" font-family="sans-serif" font-size="11.2" lengthAdjust="spacing" textLength="126.4"
                  x="1947.6" y="1048.9625">-ObjectOutputStream out
            </text>
            <text fill="#000000" font-family="sans-serif" font-size="11.2" lengthAdjust="spacing" textLength="65.6"
                  x="1947.6" y="1063.8594">-Lobby lobby
            </text>
            <line style="stroke:#181818;stroke-width:0.4000000000000001;" x1="1943.6" x2="2227.6" y1="1069.8703"
                  y2="1069.8703"/>
            <text fill="#000000" font-family="sans-serif" font-size="11.2" lengthAdjust="spacing" textLength="276"
                  x="1947.6" y="1085.1563">Send UpdateJoinedPlayerPacket to update client lobby
            </text>
        </g><!--class SocketGameServerController-->
        <g id="elem_SocketGameServerController">
            <rect codeLine="101" fill="#F1F1F1" height="122.95" id="SocketGameServerController" rx="2" ry="2"
                  style="stroke:#181818;stroke-width:0.4000000000000001;" width="219.2" x="1786.4" y="609.2109"/>
            <ellipse cx="1818.92" cy="627.0438" fill="#ADD1B2" rx="8.8" ry="8.8"
                     style="stroke:#181818;stroke-width:0.8000000000000002;"/>
            <path d="M1821.1325,623.7438 Q1821.2575,623.5688 1821.4075,623.4813 Q1821.5575,623.3938 1821.7325,623.3938 Q1822.0325,623.3938 1822.22,623.6063 Q1822.4075,623.8063 1822.4075,624.2938 L1822.4075,625.4563 Q1822.4075,625.9438 1822.22,626.1563 Q1822.0325,626.3688 1821.7325,626.3688 Q1821.4575,626.3688 1821.295,626.2063 Q1821.1325,626.0563 1821.045,625.6438 Q1821.0075,625.3563 1820.8575,625.2063 Q1820.595,624.9063 1820.1075,624.7313 Q1819.62,624.5563 1819.12,624.5563 Q1818.5075,624.5563 1817.995,624.8188 Q1817.495,625.0813 1817.095,625.6813 Q1816.7075,626.2813 1816.7075,627.1063 L1816.7075,627.9813 Q1816.7075,628.9688 1817.42,629.6313 Q1818.1325,630.2813 1819.4075,630.2813 Q1820.1575,630.2813 1820.6825,630.0813 Q1820.995,629.9563 1821.3325,629.6063 Q1821.545,629.3938 1821.6575,629.3313 Q1821.7825,629.2688 1821.945,629.2688 Q1822.2075,629.2688 1822.4075,629.4813 Q1822.62,629.6813 1822.62,629.9563 Q1822.62,630.2313 1822.345,630.5563 Q1821.945,631.0188 1821.3075,631.2813 Q1820.445,631.6438 1819.4075,631.6438 Q1818.195,631.6438 1817.2325,631.1438 Q1816.445,630.7438 1815.895,629.8938 Q1815.345,629.0313 1815.345,628.0063 L1815.345,627.0813 Q1815.345,626.0188 1815.8325,625.1063 Q1816.3325,624.1813 1817.2075,623.6938 Q1818.0825,623.1938 1819.07,623.1938 Q1819.6575,623.1938 1820.17,623.3313 Q1820.695,623.4563 1821.1325,623.7438 Z "
                  fill="#000000"/>
            <text fill="#000000" font-family="sans-serif" font-size="9.6" font-style="italic" lengthAdjust="spacing"
                  textLength="55.2" x="1881.08" y="623.5703">&#171;Runnable&#187;
            </text>
            <text fill="#000000" font-family="sans-serif" font-size="11.2" lengthAdjust="spacing" textLength="148"
                  x="1834.68" y="638.0656">SocketGameServerController
            </text>
            <line style="stroke:#181818;stroke-width:0.4000000000000001;" x1="1787.2" x2="2004.8" y1="644.8766"
                  y2="644.8766"/>
            <text fill="#000000" font-family="sans-serif" font-size="11.2" lengthAdjust="spacing" textLength="109.6"
                  x="1791.2" y="660.1625">-ObjectInputStream in
            </text>
            <text fill="#000000" font-family="sans-serif" font-size="11.2" lengthAdjust="spacing" textLength="70.4"
                  x="1791.2" y="675.0594">-Player player
            </text>
            <line style="stroke:#181818;stroke-width:0.4000000000000001;" x1="1787.2" x2="2004.8" y1="681.0703"
                  y2="681.0703"/>
            <text fill="#000000" font-family="sans-serif" font-size="11.2" lengthAdjust="spacing" textLength="151.2"
                  x="1791.2" y="696.3563">receive C2SPacket from client
            </text>
            <text fill="#000000" font-family="sans-serif" font-size="11.2" lengthAdjust="spacing" textLength="209.6"
                  x="1791.2" y="711.2531">~readLoop() throws InterruptedException;
            </text>
            <text fill="#000000" font-family="sans-serif" font-size="11.2" lengthAdjust="spacing" textLength="132"
                  x="1791.2" y="726.15">-C2SPacket readPacket();
            </text>
        </g><!--class SocketServerGameUpdater-->
        <g id="elem_SocketServerGameUpdater">
            <rect codeLine="114" fill="#F1F1F1" height="83.0906" id="SocketServerGameUpdater" rx="2" ry="2"
                  style="stroke:#181818;stroke-width:0.4000000000000001;" width="164" x="1752.4" y="831.2109"/>
            <ellipse cx="1764.4" cy="844.0109" fill="#ADD1B2" rx="8.8" ry="8.8"
                     style="stroke:#181818;stroke-width:0.8000000000000002;"/>
            <path d="M1766.6125,840.7109 Q1766.7375,840.5359 1766.8875,840.4484 Q1767.0375,840.3609 1767.2125,840.3609 Q1767.5125,840.3609 1767.7,840.5734 Q1767.8875,840.7734 1767.8875,841.2609 L1767.8875,842.4234 Q1767.8875,842.9109 1767.7,843.1234 Q1767.5125,843.3359 1767.2125,843.3359 Q1766.9375,843.3359 1766.775,843.1734 Q1766.6125,843.0234 1766.525,842.6109 Q1766.4875,842.3234 1766.3375,842.1734 Q1766.075,841.8734 1765.5875,841.6984 Q1765.1,841.5234 1764.6,841.5234 Q1763.9875,841.5234 1763.475,841.7859 Q1762.975,842.0484 1762.575,842.6484 Q1762.1875,843.2484 1762.1875,844.0734 L1762.1875,844.9484 Q1762.1875,845.9359 1762.9,846.5984 Q1763.6125,847.2484 1764.8875,847.2484 Q1765.6375,847.2484 1766.1625,847.0484 Q1766.475,846.9234 1766.8125,846.5734 Q1767.025,846.3609 1767.1375,846.2984 Q1767.2625,846.2359 1767.425,846.2359 Q1767.6875,846.2359 1767.8875,846.4484 Q1768.1,846.6484 1768.1,846.9234 Q1768.1,847.1984 1767.825,847.5234 Q1767.425,847.9859 1766.7875,848.2484 Q1765.925,848.6109 1764.8875,848.6109 Q1763.675,848.6109 1762.7125,848.1109 Q1761.925,847.7109 1761.375,846.8609 Q1760.825,845.9984 1760.825,844.9734 L1760.825,844.0484 Q1760.825,842.9859 1761.3125,842.0734 Q1761.8125,841.1484 1762.6875,840.6609 Q1763.5625,840.1609 1764.55,840.1609 Q1765.1375,840.1609 1765.65,840.2984 Q1766.175,840.4234 1766.6125,840.7109 Z "
                  fill="#000000"/>
            <text fill="#000000" font-family="sans-serif" font-size="11.2" lengthAdjust="spacing" textLength="138.4"
                  x="1775.6" y="848.6484">SocketServerGameUpdater
            </text>
            <line style="stroke:#181818;stroke-width:0.4000000000000001;" x1="1753.2" x2="1915.6" y1="856.8109"
                  y2="856.8109"/>
            <text fill="#000000" font-family="sans-serif" font-size="11.2" lengthAdjust="spacing" textLength="126.4"
                  x="1757.2" y="872.0969">-ObjectOutputStream out
            </text>
            <text fill="#000000" font-family="sans-serif" font-size="11.2" lengthAdjust="spacing" textLength="65.6"
                  x="1757.2" y="886.9938">-Game game
            </text>
            <line style="stroke:#181818;stroke-width:0.4000000000000001;" x1="1753.2" x2="1915.6" y1="893.0047"
                  y2="893.0047"/>
            <text fill="#000000" font-family="sans-serif" font-size="11.2" lengthAdjust="spacing" textLength="145.6"
                  x="1757.2" y="908.2906">send model updated to client
            </text>
        </g><!--class ClientNetManager-->
        <g id="elem_ClientNetManager">
            <rect codeLine="126" fill="#F1F1F1" height="53.2969" id="ClientNetManager" rx="2" ry="2"
                  style="stroke:#181818;stroke-width:0.4000000000000001;" width="233.6" x="2744" y="34.4109"/>
            <ellipse cx="2811.4" cy="47.2109" fill="#B4A7E5" rx="8.8" ry="8.8"
                     style="stroke:#181818;stroke-width:0.8000000000000002;"/>
            <path d="M2812.1625,44.5234 L2812.1625,49.8484 L2813.5375,49.8484 Q2814.025,49.8484 2814.2375,50.0359 Q2814.45,50.2234 2814.45,50.5359 Q2814.45,50.8359 2814.2375,51.0234 Q2814.025,51.2109 2813.5375,51.2109 L2809.425,51.2109 Q2808.9375,51.2109 2808.725,51.0234 Q2808.5125,50.8359 2808.5125,50.5234 Q2808.5125,50.2234 2808.725,50.0359 Q2808.9375,49.8484 2809.425,49.8484 L2810.8,49.8484 L2810.8,44.5234 L2809.425,44.5234 Q2808.9375,44.5234 2808.725,44.3359 Q2808.5125,44.1484 2808.5125,43.8359 Q2808.5125,43.5359 2808.725,43.3484 Q2808.9375,43.1609 2809.425,43.1609 L2813.5375,43.1609 Q2814.025,43.1609 2814.2375,43.3484 Q2814.45,43.5359 2814.45,43.8359 Q2814.45,44.1484 2814.2375,44.3359 Q2814.025,44.5234 2813.5375,44.5234 L2812.1625,44.5234 Z "
                  fill="#000000"/>
            <text fill="#000000" font-family="sans-serif" font-size="11.2" font-style="italic" lengthAdjust="spacing"
                  textLength="92" x="2827.8" y="51.8484">ClientNetManager
            </text>
            <line style="stroke:#181818;stroke-width:0.4000000000000001;" x1="2744.8" x2="2976.8" y1="60.0109"
                  y2="60.0109"/>
            <line style="stroke:#181818;stroke-width:0.4000000000000001;" x1="2744.8" x2="2976.8" y1="66.4109"
                  y2="66.4109"/>
            <text fill="#000000" font-family="sans-serif" font-size="11.2" lengthAdjust="spacing" textLength="224"
                  x="2748.8" y="81.6969">LobbyView establishConnection(String nick);
            </text>
        </g><!--class SocketClientNetManager-->
        <g id="elem_SocketClientNetManager">
            <rect codeLine="131" fill="#F1F1F1" height="97.9875" id="SocketClientNetManager" rx="2" ry="2"
                  style="stroke:#181818;stroke-width:0.4000000000000001;" width="335.2" x="2693.2" y="202.8109"/>
            <ellipse cx="2795" cy="215.6109" fill="#ADD1B2" rx="8.8" ry="8.8"
                     style="stroke:#181818;stroke-width:0.8000000000000002;"/>
            <path d="M2797.2125,212.3109 Q2797.3375,212.1359 2797.4875,212.0484 Q2797.6375,211.9609 2797.8125,211.9609 Q2798.1125,211.9609 2798.3,212.1734 Q2798.4875,212.3734 2798.4875,212.8609 L2798.4875,214.0234 Q2798.4875,214.5109 2798.3,214.7234 Q2798.1125,214.9359 2797.8125,214.9359 Q2797.5375,214.9359 2797.375,214.7734 Q2797.2125,214.6234 2797.125,214.2109 Q2797.0875,213.9234 2796.9375,213.7734 Q2796.675,213.4734 2796.1875,213.2984 Q2795.7,213.1234 2795.2,213.1234 Q2794.5875,213.1234 2794.075,213.3859 Q2793.575,213.6484 2793.175,214.2484 Q2792.7875,214.8484 2792.7875,215.6734 L2792.7875,216.5484 Q2792.7875,217.5359 2793.5,218.1984 Q2794.2125,218.8484 2795.4875,218.8484 Q2796.2375,218.8484 2796.7625,218.6484 Q2797.075,218.5234 2797.4125,218.1734 Q2797.625,217.9609 2797.7375,217.8984 Q2797.8625,217.8359 2798.025,217.8359 Q2798.2875,217.8359 2798.4875,218.0484 Q2798.7,218.2484 2798.7,218.5234 Q2798.7,218.7984 2798.425,219.1234 Q2798.025,219.5859 2797.3875,219.8484 Q2796.525,220.2109 2795.4875,220.2109 Q2794.275,220.2109 2793.3125,219.7109 Q2792.525,219.3109 2791.975,218.4609 Q2791.425,217.5984 2791.425,216.5734 L2791.425,215.6484 Q2791.425,214.5859 2791.9125,213.6734 Q2792.4125,212.7484 2793.2875,212.2609 Q2794.1625,211.7609 2795.15,211.7609 Q2795.7375,211.7609 2796.25,211.8984 Q2796.775,212.0234 2797.2125,212.3109 Z "
                  fill="#000000"/>
            <text fill="#000000" font-family="sans-serif" font-size="11.2" lengthAdjust="spacing" textLength="124.8"
                  x="2811.4" y="220.2484">SocketClientNetManager
            </text>
            <line style="stroke:#181818;stroke-width:0.4000000000000001;" x1="2694" x2="3027.6" y1="228.4109"
                  y2="228.4109"/>
            <text fill="#000000" font-family="sans-serif" font-size="11.2" lengthAdjust="spacing" textLength="74.4"
                  x="2698" y="243.6969">-Socket socket
            </text>
            <line style="stroke:#181818;stroke-width:0.4000000000000001;" x1="2694" x2="3027.6" y1="249.7078"
                  y2="249.7078"/>
            <text fill="#000000" font-family="sans-serif" font-size="11.2" lengthAdjust="spacing" textLength="230.4"
                  x="2698" y="264.9938">+LobbyView establishConnection(String nick);
            </text>
            <text fill="#000000" font-family="sans-serif" font-size="11.2" lengthAdjust="spacing" textLength="325.6"
                  x="2698" y="279.8906">... create a new EstablishConnectionPacket and send it to server
            </text>
            <text fill="#000000" font-family="sans-serif" font-size="11.2" lengthAdjust="spacing" textLength="117.6"
                  x="2698" y="294.7875">... wait for LobbyPacket
            </text>
        </g><!--class SocketLobbyClientUpdater-->
        <g id="elem_SocketLobbyClientUpdater">
            <rect codeLine="140" fill="#F1F1F1" height="127.7813" id="SocketLobbyClientUpdater" rx="2" ry="2"
                  style="stroke:#181818;stroke-width:0.4000000000000001;" width="468.8" x="2626.4" y="363.6109"/>
            <ellipse cx="2790.2" cy="376.4109" fill="#ADD1B2" rx="8.8" ry="8.8"
                     style="stroke:#181818;stroke-width:0.8000000000000002;"/>
            <path d="M2792.4125,373.1109 Q2792.5375,372.9359 2792.6875,372.8484 Q2792.8375,372.7609 2793.0125,372.7609 Q2793.3125,372.7609 2793.5,372.9734 Q2793.6875,373.1734 2793.6875,373.6609 L2793.6875,374.8234 Q2793.6875,375.3109 2793.5,375.5234 Q2793.3125,375.7359 2793.0125,375.7359 Q2792.7375,375.7359 2792.575,375.5734 Q2792.4125,375.4234 2792.325,375.0109 Q2792.2875,374.7234 2792.1375,374.5734 Q2791.875,374.2734 2791.3875,374.0984 Q2790.9,373.9234 2790.4,373.9234 Q2789.7875,373.9234 2789.275,374.1859 Q2788.775,374.4484 2788.375,375.0484 Q2787.9875,375.6484 2787.9875,376.4734 L2787.9875,377.3484 Q2787.9875,378.3359 2788.7,378.9984 Q2789.4125,379.6484 2790.6875,379.6484 Q2791.4375,379.6484 2791.9625,379.4484 Q2792.275,379.3234 2792.6125,378.9734 Q2792.825,378.7609 2792.9375,378.6984 Q2793.0625,378.6359 2793.225,378.6359 Q2793.4875,378.6359 2793.6875,378.8484 Q2793.9,379.0484 2793.9,379.3234 Q2793.9,379.5984 2793.625,379.9234 Q2793.225,380.3859 2792.5875,380.6484 Q2791.725,381.0109 2790.6875,381.0109 Q2789.475,381.0109 2788.5125,380.5109 Q2787.725,380.1109 2787.175,379.2609 Q2786.625,378.3984 2786.625,377.3734 L2786.625,376.4484 Q2786.625,375.3859 2787.1125,374.4734 Q2787.6125,373.5484 2788.4875,373.0609 Q2789.3625,372.5609 2790.35,372.5609 Q2790.9375,372.5609 2791.45,372.6984 Q2791.975,372.8234 2792.4125,373.1109 Z "
                  fill="#000000"/>
            <text fill="#000000" font-family="sans-serif" font-size="11.2" lengthAdjust="spacing" textLength="134.4"
                  x="2806.6" y="381.0484">SocketLobbyClientUpdater
            </text>
            <line style="stroke:#181818;stroke-width:0.4000000000000001;" x1="2627.2" x2="3094.4" y1="389.2109"
                  y2="389.2109"/>
            <text fill="#000000" font-family="sans-serif" font-size="11.2" lengthAdjust="spacing" textLength="109.6"
                  x="2631.2" y="404.4969">-ObjectInputStream in
            </text>
            <text fill="#000000" font-family="sans-serif" font-size="11.2" lengthAdjust="spacing" textLength="65.6"
                  x="2631.2" y="419.3938">-Lobby lobby
            </text>
            <line style="stroke:#181818;stroke-width:0.4000000000000001;" x1="2627.2" x2="3094.4" y1="425.4047"
                  y2="425.4047"/>
            <text fill="#000000" font-family="sans-serif" font-size="11.2" lengthAdjust="spacing" textLength="63.2"
                  x="2631.2" y="440.6906">+readLoop()
            </text>
            <text fill="#000000" font-family="sans-serif" font-size="11.2" lengthAdjust="spacing" textLength="327.2"
                  x="2631.2" y="455.5875">... Receive a UpdateJoinedPlayerPacket or a CreateGamePacket
            </text>
            <text fill="#000000" font-family="sans-serif" font-size="11.2" lengthAdjust="spacing" textLength="128.8"
                  x="2631.2" y="470.4844">-S2CPacket readPacket()
            </text>
            <text fill="#000000" font-family="sans-serif" font-size="11.2" lengthAdjust="spacing" textLength="459.2"
                  x="2631.2" y="485.3813">-SocketGameClientUpdater updateCreatedGame(GameAndController
                gameAndController);
            </text>
        </g><!--class SocketGameClientController-->
        <g id="elem_SocketGameClientController">
            <rect codeLine="150" fill="#F1F1F1" height="83.0906" id="SocketGameClientController" rx="2" ry="2"
                  style="stroke:#181818;stroke-width:0.4000000000000001;" width="174.4" x="2931.2" y="629.2109"/>
            <ellipse cx="2945.72" cy="642.0109" fill="#ADD1B2" rx="8.8" ry="8.8"
                     style="stroke:#181818;stroke-width:0.8000000000000002;"/>
            <path d="M2947.9325,638.7109 Q2948.0575,638.5359 2948.2075,638.4484 Q2948.3575,638.3609 2948.5325,638.3609 Q2948.8325,638.3609 2949.02,638.5734 Q2949.2075,638.7734 2949.2075,639.2609 L2949.2075,640.4234 Q2949.2075,640.9109 2949.02,641.1234 Q2948.8325,641.3359 2948.5325,641.3359 Q2948.2575,641.3359 2948.095,641.1734 Q2947.9325,641.0234 2947.845,640.6109 Q2947.8075,640.3234 2947.6575,640.1734 Q2947.395,639.8734 2946.9075,639.6984 Q2946.42,639.5234 2945.92,639.5234 Q2945.3075,639.5234 2944.795,639.7859 Q2944.295,640.0484 2943.895,640.6484 Q2943.5075,641.2484 2943.5075,642.0734 L2943.5075,642.9484 Q2943.5075,643.9359 2944.22,644.5984 Q2944.9325,645.2484 2946.2075,645.2484 Q2946.9575,645.2484 2947.4825,645.0484 Q2947.795,644.9234 2948.1325,644.5734 Q2948.345,644.3609 2948.4575,644.2984 Q2948.5825,644.2359 2948.745,644.2359 Q2949.0075,644.2359 2949.2075,644.4484 Q2949.42,644.6484 2949.42,644.9234 Q2949.42,645.1984 2949.145,645.5234 Q2948.745,645.9859 2948.1075,646.2484 Q2947.245,646.6109 2946.2075,646.6109 Q2944.995,646.6109 2944.0325,646.1109 Q2943.245,645.7109 2942.695,644.8609 Q2942.145,643.9984 2942.145,642.9734 L2942.145,642.0484 Q2942.145,640.9859 2942.6325,640.0734 Q2943.1325,639.1484 2944.0075,638.6609 Q2944.8825,638.1609 2945.87,638.1609 Q2946.4575,638.1609 2946.97,638.2984 Q2947.495,638.4234 2947.9325,638.7109 Z "
                  fill="#000000"/>
            <text fill="#000000" font-family="sans-serif" font-size="11.2" lengthAdjust="spacing" textLength="143.2"
                  x="2957.48" y="646.6484">SocketGameClientController
            </text>
            <line style="stroke:#181818;stroke-width:0.4000000000000001;" x1="2932" x2="3104.8" y1="654.8109"
                  y2="654.8109"/>
            <text fill="#000000" font-family="sans-serif" font-size="11.2" lengthAdjust="spacing" textLength="122.4"
                  x="2936" y="670.0969">ObjectOutputStream out
            </text>
            <line style="stroke:#181818;stroke-width:0.4000000000000001;" x1="2932" x2="3104.8" y1="676.1078"
                  y2="676.1078"/>
            <text fill="#000000" font-family="sans-serif" font-size="11.2" lengthAdjust="spacing" textLength="56"
                  x="2936" y="691.3938">... methods
            </text>
            <text fill="#000000" font-family="sans-serif" font-size="11.2" lengthAdjust="spacing" textLength="164.8"
                  x="2936" y="706.2906">send MakeMovePacket to server
            </text>
        </g><!--class SocketGameClientUpdater-->
        <g id="elem_SocketGameClientUpdater">
            <rect codeLine="158" fill="#F1F1F1" height="83.0906" id="SocketGameClientUpdater" rx="2" ry="2"
                  style="stroke:#181818;stroke-width:0.4000000000000001;" width="276" x="2626.8" y="629.2109"/>
            <ellipse cx="2694.6" cy="642.0109" fill="#ADD1B2" rx="8.8" ry="8.8"
                     style="stroke:#181818;stroke-width:0.8000000000000002;"/>
            <path d="M2696.8125,638.7109 Q2696.9375,638.5359 2697.0875,638.4484 Q2697.2375,638.3609 2697.4125,638.3609 Q2697.7125,638.3609 2697.9,638.5734 Q2698.0875,638.7734 2698.0875,639.2609 L2698.0875,640.4234 Q2698.0875,640.9109 2697.9,641.1234 Q2697.7125,641.3359 2697.4125,641.3359 Q2697.1375,641.3359 2696.975,641.1734 Q2696.8125,641.0234 2696.725,640.6109 Q2696.6875,640.3234 2696.5375,640.1734 Q2696.275,639.8734 2695.7875,639.6984 Q2695.3,639.5234 2694.8,639.5234 Q2694.1875,639.5234 2693.675,639.7859 Q2693.175,640.0484 2692.775,640.6484 Q2692.3875,641.2484 2692.3875,642.0734 L2692.3875,642.9484 Q2692.3875,643.9359 2693.1,644.5984 Q2693.8125,645.2484 2695.0875,645.2484 Q2695.8375,645.2484 2696.3625,645.0484 Q2696.675,644.9234 2697.0125,644.5734 Q2697.225,644.3609 2697.3375,644.2984 Q2697.4625,644.2359 2697.625,644.2359 Q2697.8875,644.2359 2698.0875,644.4484 Q2698.3,644.6484 2698.3,644.9234 Q2698.3,645.1984 2698.025,645.5234 Q2697.625,645.9859 2696.9875,646.2484 Q2696.125,646.6109 2695.0875,646.6109 Q2693.875,646.6109 2692.9125,646.1109 Q2692.125,645.7109 2691.575,644.8609 Q2691.025,643.9984 2691.025,642.9734 L2691.025,642.0484 Q2691.025,640.9859 2691.5125,640.0734 Q2692.0125,639.1484 2692.8875,638.6609 Q2693.7625,638.1609 2694.75,638.1609 Q2695.3375,638.1609 2695.85,638.2984 Q2696.375,638.4234 2696.8125,638.7109 Z "
                  fill="#000000"/>
            <text fill="#000000" font-family="sans-serif" font-size="11.2" lengthAdjust="spacing" textLength="133.6"
                  x="2711" y="646.6484">SocketGameClientUpdater
            </text>
            <line style="stroke:#181818;stroke-width:0.4000000000000001;" x1="2627.6" x2="2902" y1="654.8109"
                  y2="654.8109"/>
            <text fill="#000000" font-family="sans-serif" font-size="11.2" lengthAdjust="spacing" textLength="65.6"
                  x="2631.6" y="670.0969">-Game game
            </text>
            <text fill="#000000" font-family="sans-serif" font-size="11.2" lengthAdjust="spacing" textLength="109.6"
                  x="2631.6" y="684.9938">-ObjectInputStream in
            </text>
            <line style="stroke:#181818;stroke-width:0.4000000000000001;" x1="2627.6" x2="2902" y1="691.0047"
                  y2="691.0047"/>
            <text fill="#000000" font-family="sans-serif" font-size="11.2" lengthAdjust="spacing" textLength="266.4"
                  x="2631.6" y="706.2906">receive UpdatePlayerPacket and update client model
            </text>
        </g><!--link SocketLobbyUpdater to SocketGameUpdater-->
        <g id="link_SocketLobbyUpdater_SocketGameUpdater">
            <path codeLine="18" d="M1316.376,290.8989 C1314.168,321.0189 1311.12,362.5469 1308.976,391.7469 "
                  fill="none" id="SocketLobbyUpdater-to-SocketGameUpdater"
                  style="stroke:#181818;stroke-width:0.8000000000000002;"/>
            <polygon fill="#181818"
                     points="1308.664,395.9629,1312.3703,389.01,1308.9498,391.9732,1305.9866,388.5527,1308.664,395.9629"
                     style="stroke:#181818;stroke-width:0.8000000000000002;"/>
            <text fill="#000000" font-family="sans-serif" font-size="10.4" lengthAdjust="spacing" textLength="37.6"
                  x="1313.6" y="336.4336">provides
            </text>
        </g><!--link LobbyView to SocketGameController-->
        <g id="link_LobbyView_SocketGameController">
            <path codeLine="23" d="M1582.52,271.0749 C1574.344,298.9309 1558.768,351.9949 1548.088,388.3709 "
                  fill="none" id="LobbyView-SocketGameController"
                  style="stroke:#181818;stroke-width:0.8000000000000002;"/>
            <text fill="#000000" font-family="sans-serif" font-size="10.4" lengthAdjust="spacing" textLength="108"
                  x="1565.6" y="336.4336">provides asyncronously
            </text>
        </g><!--reverse link Packet to C2SPacket-->
        <g id="link_Packet_C2SPacket">
            <path d="M633.016,290.8109 C625.36,306.4029 615.792,324.3149 605.6,339.6109 C590.328,362.5229 569.944,386.2669 554.496,403.1789 "
                  fill="none" id="Packet-backto-C2SPacket" style="stroke:#181818;stroke-width:0.8000000000000002;"/>
            <polygon fill="none" points="628.048,288.2109,639.984,276.1709,638.16,293.0189,628.048,288.2109"
                     style="stroke:#181818;stroke-width:0.8000000000000002;"/>
        </g><!--reverse link Packet to S2CPacket-->
        <g id="link_Packet_S2CPacket">
            <path d="M667.344,290.8589 C674.84,306.4589 684.256,324.3629 694.4,339.6109 C709.608,362.4829 730.04,386.0349 745.64,402.8829 "
                  fill="none" id="Packet-backto-S2CPacket" style="stroke:#181818;stroke-width:0.8000000000000002;"/>
            <polygon fill="none" points="662.2,293.0749,660.536,276.2029,672.36,288.3469,662.2,293.0749"
                     style="stroke:#181818;stroke-width:0.8000000000000002;"/>
        </g><!--reverse link C2SPacket to EstablishConnectionPacket-->
        <g id="link_C2SPacket_EstablishConnectionPacket">
            <path d="M506.56,465.1789 C475.464,510.0989 423.104,585.7629 391.464,631.4829 " fill="none"
                  id="C2SPacket-backto-EstablishConnectionPacket"
                  style="stroke:#181818;stroke-width:0.8000000000000002;stroke-dasharray:7.0,7.0;"/>
            <polygon fill="none" points="501.952,461.9869,515.664,452.0189,511.16,468.3629,501.952,461.9869"
                     style="stroke:#181818;stroke-width:0.8000000000000002;"/>
        </g><!--reverse link S2CPacket to LobbyPacket-->
        <g id="link_S2CPacket_LobbyPacket">
            <path d="M754.92,467.2349 C738.768,512.3869 712.28,586.4589 696.176,631.4829 " fill="none"
                  id="S2CPacket-backto-LobbyPacket"
                  style="stroke:#181818;stroke-width:0.8000000000000002;stroke-dasharray:7.0,7.0;"/>
            <polygon fill="none" points="749.696,465.1949,760.36,452.0189,760.24,468.9709,749.696,465.1949"
                     style="stroke:#181818;stroke-width:0.8000000000000002;"/>
        </g><!--reverse link S2CPacket to UpdateJoinedPlayerPacket-->
        <g id="link_S2CPacket_UpdateJoinedPlayerPacket">
            <path d="M782.816,467.2349 C799.104,512.3869 825.84,586.4589 842.096,631.4829 " fill="none"
                  id="S2CPacket-backto-UpdateJoinedPlayerPacket"
                  style="stroke:#181818;stroke-width:0.8000000000000002;stroke-dasharray:7.0,7.0;"/>
            <polygon fill="none" points="777.488,468.9709,777.32,452.0189,788.016,465.1629,777.488,468.9709"
                     style="stroke:#181818;stroke-width:0.8000000000000002;"/>
        </g><!--reverse link S2CPacket to UpdatePlayerPacket-->
        <g id="link_S2CPacket_UpdatePlayerPacket">
            <path d="M790.512,465.8669 C797.416,475.2989 805.752,484.6989 815.2,491.6109 C866.392,529.0429 901.144,497.2669 950.4,537.2109 C980.864,561.9149 1002.136,601.8349 1014.76,631.4669 "
                  fill="none" id="S2CPacket-backto-UpdatePlayerPacket"
                  style="stroke:#181818;stroke-width:0.8000000000000002;stroke-dasharray:7.0,7.0;"/>
            <polygon fill="none" points="785.68,468.7149,781.448,452.2989,794.992,462.4989,785.68,468.7149"
                     style="stroke:#181818;stroke-width:0.8000000000000002;"/>
        </g><!--reverse link C2SPacket to MakeMovePacket-->
        <g id="link_C2SPacket_MakeMovePacket">
            <path d="M532,468.1149 C532,516.0269 532,595.5789 532,639.1469 " fill="none"
                  id="C2SPacket-backto-MakeMovePacket"
                  style="stroke:#181818;stroke-width:0.8000000000000002;stroke-dasharray:7.0,7.0;"/>
            <polygon fill="none" points="526.4,468.0189,532,452.0189,537.6,468.0189,526.4,468.0189"
                     style="stroke:#181818;stroke-width:0.8000000000000002;"/>
        </g><!--link SocketConnectionServerController to ServerController-->
        <g id="link_SocketConnectionServerController_ServerController">
            <path codeLine="75"
                  d="M2134.752,914.4749 C2146.032,920.6829 2157.664,926.8589 2168.8,932.4109 C2192.744,944.3469 2199.624,945.3869 2224,956.4109 C2250.28,968.2909 2278.512,981.3869 2304.832,993.7389 "
                  fill="none" id="SocketConnectionServerController-to-ServerController"
                  style="stroke:#181818;stroke-width:0.8000000000000002;"/>
            <polygon fill="#181818"
                     points="2308.704,995.5549,2303.5491,989.5961,2305.0839,993.8534,2300.8267,995.3882,2308.704,995.5549"
                     style="stroke:#181818;stroke-width:0.8000000000000002;"/>
            <text fill="#000000" font-family="sans-serif" font-size="10.4" lengthAdjust="spacing" textLength="56.8"
                  x="2255.2" y="968.4336">delegates to
            </text>
        </g><!--reverse link SocketLobbyUpdaterFactory to SocketLobbyUpdaterServerFactory-->
        <g id="link_SocketLobbyUpdaterFactory_SocketLobbyUpdaterServerFactory">
            <path d="M154.872,299.4749 C159.92,334.4909 165.6,383.5069 165.6,426.8109 C165.6,426.8109 165.6,426.8109 165.6,873.6109 C165.6,994.6589 380.336,966.3949 423.2,971.6109 C902.656,1029.9949 1480.808,1041.0989 1711.04,1043.1629 "
                  fill="none" id="SocketLobbyUpdaterFactory-backto-SocketLobbyUpdaterServerFactory"
                  style="stroke:#181818;stroke-width:0.8000000000000002;stroke-dasharray:7.0,7.0;"/>
            <polygon fill="none" points="149.312,300.1469,152.472,283.4989,160.384,298.4829,149.312,300.1469"
                     style="stroke:#181818;stroke-width:0.8000000000000002;"/>
        </g><!--link SocketConnectionServerController to SocketLobbyUpdaterServerFactory-->
        <g id="link_SocketConnectionServerController_SocketLobbyUpdaterServerFactory">
            <path codeLine="90"
                  d="M2003.232,914.5629 C1983.288,927.8669 1961.08,942.7309 1940.8,956.4109 C1922.072,969.0429 1901.856,982.7709 1883.144,995.5229 "
                  fill="none" id="SocketConnectionServerController-SocketLobbyUpdaterServerFactory"
                  style="stroke:#181818;stroke-width:0.8000000000000002;"/>
            <text fill="#000000" font-family="sans-serif" font-size="10.4" lengthAdjust="spacing" textLength="124"
                  x="1941.6" y="968.4336">creates on new connection
            </text>
        </g><!--reverse link SocketLobbyUpdater to SocketLobbyServerUpdater-->
        <g id="link_SocketLobbyUpdater_SocketLobbyServerUpdater">
            <path d="M1144.264,293.8749 C1131.216,296.3069 1118.224,298.5229 1105.6,300.4109 C921.512,327.9069 423.584,257.8749 270.4,363.6109 C244.872,381.2269 240.8,395.7949 240.8,426.8109 C240.8,426.8109 240.8,426.8109 240.8,873.6109 C240.8,1061.6589 1743.952,961.0909 1928.8,995.6109 C1933.416,996.4749 1938.088,997.4269 1942.792,998.4509 "
                  fill="none" id="SocketLobbyUpdater-backto-SocketLobbyServerUpdater"
                  style="stroke:#181818;stroke-width:0.8000000000000002;stroke-dasharray:7.0,7.0;"/>
            <polygon fill="none" points="1143.408,288.3389,1160.176,290.8189,1145.52,299.3389,1143.408,288.3389"
                     style="stroke:#181818;stroke-width:0.8000000000000002;"/>
        </g><!--link SocketConnectionServerController to SocketLobbyServerUpdater-->
        <g id="link_SocketConnectionServerController_SocketLobbyServerUpdater">
            <path codeLine="98"
                  d="M2068.784,914.4189 C2070.592,932.0269 2072.848,952.8509 2075.2,971.6109 C2076.104,978.8029 2077.12,986.3869 2078.16,993.8269 "
                  fill="none" id="SocketConnectionServerController-to-SocketLobbyServerUpdater"
                  style="stroke:#181818;stroke-width:0.8000000000000002;"/>
            <polygon fill="#181818"
                     points="2078.736,997.9389,2080.9192,990.3684,2078.1879,993.9767,2074.5796,991.2453,2078.736,997.9389"
                     style="stroke:#181818;stroke-width:0.8000000000000002;"/>
            <text fill="#000000" font-family="sans-serif" font-size="10.4" lengthAdjust="spacing" textLength="140.8"
                  x="2076" y="968.4336">execute when lobby is created
            </text>
        </g><!--reverse link SocketGameController to SocketGameServerController-->
        <g id="link_SocketGameController_SocketGameServerController">
            <path d="M1607.624,476.0429 C1664.24,514.1229 1743.984,567.7629 1805.272,608.9869 " fill="none"
                  id="SocketGameController-backto-SocketGameServerController"
                  style="stroke:#181818;stroke-width:0.8000000000000002;stroke-dasharray:7.0,7.0;"/>
            <polygon fill="none" points="1604.264,480.5389,1594.112,466.9629,1610.512,471.2429,1604.264,480.5389"
                     style="stroke:#181818;stroke-width:0.8000000000000002;"/>
        </g><!--reverse link SocketGameServerController to SocketConnectionServerController-->
        <g id="link_SocketGameServerController_SocketConnectionServerController">
            <path codeLine="109"
                  d="M1978.88,735.2669 C1991.904,747.3229 2004.56,760.4349 2015.2,774.0109 C2028.672,791.1949 2040.016,812.6109 2048.44,831.0349 "
                  fill="none" id="SocketGameServerController-backto-SocketConnectionServerController"
                  style="stroke:#181818;stroke-width:0.8000000000000002;"/>
            <polygon fill="#181818"
                     points="1975.92,732.5549,1979.0436,739.7884,1978.8605,735.2666,1983.3823,735.0836,1975.92,732.5549"
                     style="stroke:#181818;stroke-width:0.8000000000000002;"/>
            <text fill="#000000" font-family="sans-serif" font-size="10.4" lengthAdjust="spacing" textLength="111.2"
                  x="2025.6" y="786.0336">provides implementation
            </text>
        </g><!--link SocketGameServerController to GameServerController-->
        <g id="link_SocketGameServerController_GameServerController">
            <path codeLine="111"
                  d="M2005.832,716.3229 C2073.808,744.0669 2162.84,780.5389 2241.6,813.2109 C2244.448,814.3949 2247.32,815.5869 2250.224,816.7949 "
                  fill="none" id="SocketGameServerController-to-GameServerController"
                  style="stroke:#181818;stroke-width:0.8000000000000002;"/>
            <polygon fill="#181818"
                     points="2254.192,818.4429,2248.7829,812.7139,2250.5014,816.9004,2246.3149,818.6189,2254.192,818.4429"
                     style="stroke:#181818;stroke-width:0.8000000000000002;"/>
            <text fill="#000000" font-family="sans-serif" font-size="10.4" lengthAdjust="spacing" textLength="56.8"
                  x="2176" y="786.0336">delegates to
            </text>
        </g><!--link SocketGameServerController to SocketServerGameUpdater-->
        <g id="link_SocketGameServerController_SocketServerGameUpdater">
            <path codeLine="113" d="M1877.264,732.5549 C1867.92,762.9549 1856.816,799.0829 1848.248,826.9549 "
                  fill="none" id="SocketGameServerController-to-SocketServerGameUpdater"
                  style="stroke:#181818;stroke-width:0.8000000000000002;"/>
            <polygon fill="#181818"
                     points="1847.008,831.0029,1852.1664,825.0472,1848.1731,827.1764,1846.0439,823.1831,1847.008,831.0029"
                     style="stroke:#181818;stroke-width:0.8000000000000002;"/>
            <text fill="#000000" font-family="sans-serif" font-size="10.4" lengthAdjust="spacing" textLength="144.8"
                  x="1864" y="786.0336">execute where game is created
            </text>
        </g><!--reverse link SocketGameUpdater to SocketServerGameUpdater-->
        <g id="link_SocketGameUpdater_SocketServerGameUpdater">
            <path d="M1355.6,469.7469 C1456.376,554.4109 1685.216,746.6669 1785.624,831.0349 " fill="none"
                  id="SocketGameUpdater-backto-SocketServerGameUpdater"
                  style="stroke:#181818;stroke-width:0.8000000000000002;stroke-dasharray:7.0,7.0;"/>
            <polygon fill="none" points="1351.76,473.8349,1343.112,459.2509,1358.96,465.2589,1351.76,473.8349"
                     style="stroke:#181818;stroke-width:0.8000000000000002;"/>
        </g><!--reverse link ClientNetManager to SocketClientNetManager-->
        <g id="link_ClientNetManager_SocketClientNetManager">
            <path d="M2860.8,104.3789 C2860.8,133.5069 2860.8,172.2589 2860.8,202.5789 " fill="none"
                  id="ClientNetManager-backto-SocketClientNetManager"
                  style="stroke:#181818;stroke-width:0.8000000000000002;stroke-dasharray:7.0,7.0;"/>
            <polygon fill="none" points="2855.2,104.2589,2860.8,88.2589,2866.4,104.2589,2855.2,104.2589"
                     style="stroke:#181818;stroke-width:0.8000000000000002;"/>
        </g><!--link SocketClientNetManager to SocketLobbyClientUpdater-->
        <g id="link_SocketClientNetManager_SocketLobbyClientUpdater">
            <path codeLine="139" d="M2860.8,300.5309 C2860.8,318.6909 2860.8,339.7149 2860.8,359.3309 " fill="none"
                  id="SocketClientNetManager-to-SocketLobbyClientUpdater"
                  style="stroke:#181818;stroke-width:0.8000000000000002;"/>
            <polygon fill="#181818"
                     points="2860.8,363.4909,2864,356.2909,2860.8,359.4909,2857.6,356.2909,2860.8,363.4909"
                     style="stroke:#181818;stroke-width:0.8000000000000002;"/>
            <text fill="#000000" font-family="sans-serif" font-size="10.4" lengthAdjust="spacing" textLength="145.6"
                  x="2861.6" y="336.4336">creates on establishConnection
            </text>
        </g><!--reverse link SocketLobbyUpdater to SocketLobbyClientUpdater-->
        <g id="link_SocketLobbyUpdater_SocketLobbyClientUpdater">
            <path d="M1497.376,293.9469 C1509.872,296.3069 1522.304,298.4909 1534.4,300.4109 C1914.368,360.6509 2360.456,395.9709 2626.376,413.3229 "
                  fill="none" id="SocketLobbyUpdater-backto-SocketLobbyClientUpdater"
                  style="stroke:#181818;stroke-width:0.8000000000000002;stroke-dasharray:7.0,7.0;"/>
            <polygon fill="none" points="1496.168,299.4189,1481.528,290.8669,1498.304,288.4189,1496.168,299.4189"
                     style="stroke:#181818;stroke-width:0.8000000000000002;"/>
        </g><!--reverse link SocketGameController to SocketGameClientController-->
        <g id="link_SocketGameController_SocketGameClientController">
            <path d="M1644,437.6429 C1863.536,456.4109 2380.192,499.8429 2814.4,530.8109 C2825.768,531.6189 2906.744,531.8429 2916.8,537.2109 C2954.448,557.2989 2982.36,598.0989 2999.304,629.2109 "
                  fill="none" id="SocketGameController-backto-SocketGameClientController"
                  style="stroke:#181818;stroke-width:0.8000000000000002;stroke-dasharray:7.0,7.0;"/>
            <polygon fill="none" points="1643.232,443.1949,1627.768,436.2509,1644.184,432.0349,1643.232,443.1949"
                     style="stroke:#181818;stroke-width:0.8000000000000002;"/>
        </g><!--link SocketLobbyClientUpdater to SocketGameClientController-->
        <g id="link_SocketLobbyClientUpdater_SocketGameClientController">
            <path codeLine="156"
                  d="M2911.112,491.7789 C2916.96,499.6909 2922.712,507.7629 2928,515.6109 C2952.192,551.4989 2976.832,594.0589 2994.264,625.4029 "
                  fill="none" id="SocketLobbyClientUpdater-to-SocketGameClientController"
                  style="stroke:#181818;stroke-width:0.8000000000000002;"/>
            <polygon fill="#181818"
                     points="2996.352,629.1629,2995.6527,621.3149,2994.4094,625.6663,2990.0581,624.4231,2996.352,629.1629"
                     style="stroke:#181818;stroke-width:0.8000000000000002;"/>
            <text fill="#000000" font-family="sans-serif" font-size="10.4" lengthAdjust="spacing" textLength="104"
                  x="2936.8" y="527.6336">execute on game start
            </text>
        </g><!--reverse link SocketGameUpdater to SocketGameClientUpdater-->
        <g id="link_SocketGameUpdater_SocketGameClientUpdater">
            <path d="M1370.312,466.8909 C1389.512,476.6829 1411.048,486.0109 1432,491.6109 C1780.168,584.6909 1885.384,482.4909 2241.6,537.2109 C2377.064,558.0189 2528.512,598.3949 2633.464,629.1869 "
                  fill="none" id="SocketGameUpdater-backto-SocketGameClientUpdater"
                  style="stroke:#181818;stroke-width:0.8000000000000002;stroke-dasharray:7.0,7.0;"/>
            <polygon fill="none" points="1367.648,471.8189,1356.144,459.3709,1372.904,461.9229,1367.648,471.8189"
                     style="stroke:#181818;stroke-width:0.8000000000000002;"/>
        </g><!--link SocketLobbyClientUpdater to SocketGameClientUpdater-->
        <g id="link_SocketLobbyClientUpdater_SocketGameClientUpdater">
            <path codeLine="164" d="M2835.576,491.8909 C2818.928,533.7869 2797.52,587.6669 2782.624,625.1469 "
                  fill="none" id="SocketLobbyClientUpdater-to-SocketGameClientUpdater"
                  style="stroke:#181818;stroke-width:0.8000000000000002;"/>
            <polygon fill="#181818"
                     points="2781.112,628.9469,2786.7367,623.4295,2782.5838,625.2275,2780.7857,621.0746,2781.112,628.9469"
                     style="stroke:#181818;stroke-width:0.8000000000000002;"/>
            <text fill="#000000" font-family="sans-serif" font-size="10.4" lengthAdjust="spacing" textLength="96"
                  x="2824.8" y="527.6336">create on game start
            </text>
        </g><!--SRC=[lLXTRnev57tdL_WHH46hFgOegohALbabRLIs-xHIPMOSS9cnHsCFXAxOtxxN7-2FyGoGH1r50Uphw-lZwtEkHwmfgt2DIvGLM8YFKjPqqKXobt4sfpy9-cqmg72snak2CbwMdA5_1mYUGwFWsPf8QDIjwg5Cale9PmJTyyLYzpSbMpj6FVkKuLmxqURVgXn3ynyuaxpUeTaiqNfzxJbKJtiyoce2dqFTXWhrVtHf3D7ahLatdEQeqPr_Sif8_bZW7Qd549oY7txBA1Zt2PVaC8KPVgE3pLN7KFtxoF8RpcJDYm9ibd7Bw4DgAOa5J2RNjjcVymfLDT_Gd8XE67ppsSpxrG9XEfsYaiWLpmMI7EMae1i5Vq49e51oQB2B5AcWNOfC9jxStkfTj0YB7SjgpdWZYbrlxDvu4xvhIAv0GGpvRMmeMnwM51YEKOdNv85loEqpBgk23DLtMEE6f7VaS4RK9v4YcjV5_QZx8T8vgIakw4-yA8YASzynuERzl6iCUPQ4mLxO_auNy_StBtEXUGBT2WdMLAm0M4OoIJdhSaSLL2LaW_3Y3g5G3sm_S0z0psYsRlME3xrB8Z-3mJ0yKgaGTMgT4PH38X7KFHLoPgQ-rf69H6Y1aGrGd17XjnPtl3PSz0lYVQD8ZHjKwOz4aBOVmZFVpeZlmHxFLsOY44B7LERRVh1teYX8hVZEU35Xp7MJHq5kYh57U4eXDEEZVrWWPkuOl8kwKWhP13_Z4VEcge2AwvW4DUEvttRqQE0nc5cC6jUpeBzML23uaok2m4U3YoEDUhlw_Vl0RRpogATFTPyaOjZUkk0u9pdQKhco-GF41eJ4CZBe9kiWuTwXcBljgiDzdHxBcr1b7UkriD6Q6pLUALqaIoM289A3C6jFUWmpT89kdqdMm7OfGmfKBbTGFkIFd1UHeV5i_Db2pVm8x3pqrOEpZ5HmGYY3Ua_jG7QCBAdW_YBy_3Gp7RBKEtgcZBJ8JhjBlsZPNnO_88exLZKIJWY1YfMobCMNHZeJtiY-jTOa8r2kTAjPI3AwIZE7466MGux0Fqzc1ct6E2DTJc9tPMSM2Afl1ipXTgHd6umFLyHzRHXJF8Y6luz2BZor8N7-dO7p17c5TzyEp1M4dJe81QMXjqCz6VhRNtWgky2vWf977Ic2jYl2p2IAr0pi-I2DSf8P7SwdCGufEOroNxxtI6X7dZlLUwfvQK4DBFz3YalkEQ-68qKiV2lGdIeQwwO2A6wV5Ja0m1-YK9ndpKNwwp2eYiEjIeDtF0mzE-dT1uxuul0iz4oXyY3P4L7qkRvyYWtlM5vArKRl_9HA9LJRona9T31zqI5jIt4YUJJB-HUvN9tBA7Ui80IbaJspzjM0TtlHxP-9VC0CxFpONNL4sfGyz2gZ3j6ErJfGs7XQ7rtTD-s9p5TKEqyVQEEBb-9VHwtIOCtstLUjemPHJPMYhUtAsHP3znElEvGgvj0OWeWvJRzBSq-Q4klibgVGpmLgX5v0b6UAqTWZlnQCNos7ucwv0emnCkzorCbAb10JxrBa4sKopRG-132zuTkYMCdCH9wVYyGhsfJBAp7lDLARVA9xNJlLzwcNO25quQkmrceTNqCYQxA6PAxbARpUWAZJ77n6MdTeVEAIhdWYhACqdRyMlfW4OkWEYl0_]-->
    </g>
</svg>