<?xml version="1.0" encoding="UTF-8" standalone="no"?><svg xmlns="http://www.w3.org/2000/svg" xmlns:xlink="http://www.w3.org/1999/xlink" contentStyleType="text/css" height="445px" preserveAspectRatio="none" style="width:1414px;height:445px;background:#FFFFFF;" version="1.1" viewBox="0 0 1414 445" width="1414px" zoomAndPan="magnify"><defs/><g><!--MD5=[b28fcb397abe995d6d4652e4c54b3002]
cluster common--><g id="cluster_common"><path d="M8.5,41.14 L68.5,41.14 A3.75,3.75 0 0 1 71,43.64 L78,64.7494 L613.5,64.7494 A2.5,2.5 0 0 1 616,67.2494 L616,433.64 A2.5,2.5 0 0 1 613.5,436.14 L8.5,436.14 A2.5,2.5 0 0 1 6,433.64 L6,43.64 A2.5,2.5 0 0 1 8.5,41.14 " fill="none" style="stroke:#000000;stroke-width:1.5;"/><line style="stroke:#000000;stroke-width:1.5;" x1="6" x2="78" y1="64.7494" y2="64.7494"/><text fill="#000000" font-family="sans-serif" font-size="14" font-weight="bold" lengthAdjust="spacing" textLength="59" x="10" y="57.6732">common</text></g><!--MD5=[4ef80439e1ef409f8f3a0ec422262701]
cluster server--><g id="cluster_server"><path d="M642.5,244.14 L690.5,244.14 A3.75,3.75 0 0 1 693,246.64 L700,267.7494 L1404.5,267.7494 A2.5,2.5 0 0 1 1407,270.2494 L1407,435.64 A2.5,2.5 0 0 1 1404.5,438.14 L642.5,438.14 A2.5,2.5 0 0 1 640,435.64 L640,246.64 A2.5,2.5 0 0 1 642.5,244.14 " fill="none" style="stroke:#000000;stroke-width:1.5;"/><line style="stroke:#000000;stroke-width:1.5;" x1="640" x2="700" y1="267.7494" y2="267.7494"/><text fill="#000000" font-family="sans-serif" font-size="14" font-weight="bold" lengthAdjust="spacing" textLength="47" x="644" y="260.6732">server</text></g><!--MD5=[aa2f05b2676d7d34ffa7e771fb7634f3]
cluster client--><g id="cluster_client"><path d="M682.5,49.64 L722.5,49.64 A3.75,3.75 0 0 1 725,52.14 L732,73.2494 L1001.5,73.2494 A2.5,2.5 0 0 1 1004,75.7494 L1004,185.14 A2.5,2.5 0 0 1 1001.5,187.64 L682.5,187.64 A2.5,2.5 0 0 1 680,185.14 L680,52.14 A2.5,2.5 0 0 1 682.5,49.64 " fill="none" style="stroke:#000000;stroke-width:1.5;"/><line style="stroke:#000000;stroke-width:1.5;" x1="680" x2="732" y1="73.2494" y2="73.2494"/><text fill="#000000" font-family="sans-serif" font-size="14" font-weight="bold" lengthAdjust="spacing" textLength="39" x="684" y="66.1732">client</text></g><!--MD5=[0c71f90c32c224e7cdd3969db59287de]
class LobbyView--><g id="elem_LobbyView"><rect codeLine="4" fill="#F1F1F1" height="65.6094" id="LobbyView" rx="2.5" ry="2.5" style="stroke:#181818;stroke-width:0.5;" width="323" x="22.5" y="105.64"/><ellipse cx="145.75" cy="121.64" fill="#B4A7E5" rx="11" ry="11" style="stroke:#181818;stroke-width:1.0;"/><path d="M146.75,118.64 L146.75,124.64 L148.75,124.64 L149.2344,124.64 L149.75,125.265 L149.75,125.64 L149.75,126.015 L149.2344,126.64 L148.75,126.64 L142.75,126.64 L142.2656,126.64 L141.75,126.015 L141.75,125.64 L141.75,125.265 L142.2656,124.64 L142.75,124.64 L144.75,124.64 L144.75,118.64 L142.75,118.64 L142.2656,118.64 L141.75,118.015 L141.75,117.64 L141.75,117.265 L142.2656,116.64 L142.75,116.64 L148.75,116.64 L149.2344,116.64 L149.75,117.265 L149.75,117.64 L149.75,118.015 L149.2344,118.64 L148.75,118.64 L146.75,118.64 Z " fill="#000000"/><text fill="#000000" font-family="sans-serif" font-size="14" font-style="italic" lengthAdjust="spacing" textLength="68" x="166.25" y="127.3685">LobbyView</text><line style="stroke:#181818;stroke-width:0.5;" x1="23.5" x2="344.5" y1="137.64" y2="137.64"/><line style="stroke:#181818;stroke-width:0.5;" x1="23.5" x2="344.5" y1="145.64" y2="145.64"/><text fill="#000000" font-family="sans-serif" font-size="14" lengthAdjust="spacing" textLength="311" x="28.5" y="164.1732">Provider&lt;@Nullable GameAndController&gt; game()</text></g><!--MD5=[4e452d209bfd6bb6858353c4c8f20f99]
class GameAndController--><g id="elem_GameAndController"><rect codeLine="9" fill="#F1F1F1" height="118.4375" id="GameAndController" rx="2.5" ry="2.5" style="stroke:#181818;stroke-width:0.5;" width="220" x="236" y="302.14"/><ellipse cx="279.35" cy="318.14" fill="#ADD1B2" rx="11" ry="11" style="stroke:#181818;stroke-width:1.0;"/><path d="M281.35,314.64 Q281.5531,314.14 281.7875,313.89 Q282.0219,313.64 282.2875,313.64 Q282.7563,313.64 283.0531,313.9213 Q283.35,314.2025 283.35,314.8588 L283.35,316.4213 Q283.35,317.0775 283.0688,317.3588 Q282.7875,317.64 282.35,317.64 Q281.9594,317.64 281.7094,317.4681 Q281.4594,317.2963 281.35,316.8431 Q281.3031,316.5306 281.1313,316.3588 Q280.8188,316.0306 280.2563,315.8431 Q279.6938,315.64 279.1313,315.64 Q278.4281,315.64 277.8344,315.9213 Q277.2563,316.2025 276.8031,316.8275 Q276.35,317.4525 276.35,318.3119 L276.35,319.2338 Q276.35,320.265 277.1938,320.9525 Q278.0375,321.64 279.5375,321.64 Q280.4281,321.64 281.0531,321.4369 Q281.4125,321.3275 281.8188,320.9681 Q282.0844,320.765 282.225,320.7025 Q282.3656,320.64 282.5375,320.64 Q282.8656,320.64 283.1,320.9056 Q283.35,321.1556 283.35,321.515 Q283.35,321.8588 283.0063,322.265 Q282.5063,322.8588 281.7094,323.1869 Q280.6625,323.64 279.3813,323.64 Q277.8813,323.64 276.6781,323.0463 Q275.7094,322.5775 275.0219,321.5619 Q274.35,320.5463 274.35,319.3431 L274.35,318.2494 Q274.35,316.9994 274.9438,315.9056 Q275.5531,314.8119 276.6,314.2338 Q277.6625,313.64 278.85,313.64 Q279.5688,313.64 280.1938,313.89 Q280.8188,314.14 281.35,314.64 Z " fill="#000000"/><text fill="#000000" font-family="sans-serif" font-size="14" lengthAdjust="spacing" textLength="125" x="299.65" y="323.8685">GameAndController</text><line style="stroke:#181818;stroke-width:0.5;" x1="237" x2="455" y1="334.14" y2="334.14"/><text fill="#000000" font-family="sans-serif" font-size="14" lengthAdjust="spacing" textLength="118" x="242" y="352.6732">-GameView model;</text><text fill="#000000" font-family="sans-serif" font-size="14" lengthAdjust="spacing" textLength="172" x="242" y="370.2826">-GameController controller;</text><line style="stroke:#181818;stroke-width:0.5;" x1="237" x2="455" y1="377.3588" y2="377.3588"/><text fill="#000000" font-family="sans-serif" font-size="14" lengthAdjust="spacing" textLength="151" x="242" y="395.892">+GameView getModel();</text><text fill="#000000" font-family="sans-serif" font-size="14" lengthAdjust="spacing" textLength="208" x="242" y="413.5013">+GameController getController();</text></g><!--MD5=[82d9c97a467af7c0b2c072e754b85475]
class GameController--><g id="elem_GameController"><rect codeLine="18" fill="#F1F1F1" height="83.2188" id="GameController" rx="2.5" ry="2.5" style="stroke:#181818;stroke-width:0.5;" width="219" x="380.5" y="97.14"/><ellipse cx="435.75" cy="113.14" fill="#B4A7E5" rx="11" ry="11" style="stroke:#181818;stroke-width:1.0;"/><path d="M436.75,110.14 L436.75,116.14 L438.75,116.14 L439.2344,116.14 L439.75,116.765 L439.75,117.14 L439.75,117.515 L439.2344,118.14 L438.75,118.14 L432.75,118.14 L432.2656,118.14 L431.75,117.515 L431.75,117.14 L431.75,116.765 L432.2656,116.14 L432.75,116.14 L434.75,116.14 L434.75,110.14 L432.75,110.14 L432.2656,110.14 L431.75,109.515 L431.75,109.14 L431.75,108.765 L432.2656,108.14 L432.75,108.14 L438.75,108.14 L439.2344,108.14 L439.75,108.765 L439.75,109.14 L439.75,109.515 L439.2344,110.14 L438.75,110.14 L436.75,110.14 Z " fill="#000000"/><text fill="#000000" font-family="sans-serif" font-size="14" font-style="italic" lengthAdjust="spacing" textLength="100" x="456.25" y="118.8685">GameController</text><line style="stroke:#181818;stroke-width:0.5;" x1="381.5" x2="598.5" y1="129.14" y2="129.14"/><text fill="#000000" font-family="sans-serif" font-size="14" lengthAdjust="spacing" textLength="178" x="386.5" y="147.6732">... game controlling methods</text><line style="stroke:#181818;stroke-width:0.5;" x1="381.5" x2="598.5" y1="154.7494" y2="154.7494"/><text fill="#000000" font-family="sans-serif" font-size="14" lengthAdjust="spacing" textLength="207" x="386.5" y="173.2826">makeMoveExample(Move move);</text></g><!--MD5=[4241c4cff2cafb733502a763d08b761b]
class ServerController--><g id="elem_ServerController"><rect codeLine="25" fill="#F1F1F1" height="118.4375" id="ServerController" rx="2.5" ry="2.5" style="stroke:#181818;stroke-width:0.5;" width="382" x="1009" y="302.14"/><ellipse cx="1143.75" cy="318.14" fill="#ADD1B2" rx="11" ry="11" style="stroke:#181818;stroke-width:1.0;"/><path d="M1145.75,314.64 Q1145.9531,314.14 1146.1875,313.89 Q1146.4219,313.64 1146.6875,313.64 Q1147.1563,313.64 1147.4531,313.9213 Q1147.75,314.2025 1147.75,314.8588 L1147.75,316.4213 Q1147.75,317.0775 1147.4688,317.3588 Q1147.1875,317.64 1146.75,317.64 Q1146.3594,317.64 1146.1094,317.4681 Q1145.8594,317.2963 1145.75,316.8431 Q1145.7031,316.5306 1145.5313,316.3588 Q1145.2188,316.0306 1144.6563,315.8431 Q1144.0938,315.64 1143.5313,315.64 Q1142.8281,315.64 1142.2344,315.9213 Q1141.6563,316.2025 1141.2031,316.8275 Q1140.75,317.4525 1140.75,318.3119 L1140.75,319.2338 Q1140.75,320.265 1141.5938,320.9525 Q1142.4375,321.64 1143.9375,321.64 Q1144.8281,321.64 1145.4531,321.4369 Q1145.8125,321.3275 1146.2188,320.9681 Q1146.4844,320.765 1146.625,320.7025 Q1146.7656,320.64 1146.9375,320.64 Q1147.2656,320.64 1147.5,320.9056 Q1147.75,321.1556 1147.75,321.515 Q1147.75,321.8588 1147.4063,322.265 Q1146.9063,322.8588 1146.1094,323.1869 Q1145.0625,323.64 1143.7813,323.64 Q1142.2813,323.64 1141.0781,323.0463 Q1140.1094,322.5775 1139.4219,321.5619 Q1138.75,320.5463 1138.75,319.3431 L1138.75,318.2494 Q1138.75,316.9994 1139.3438,315.9056 Q1139.9531,314.8119 1141,314.2338 Q1142.0625,313.64 1143.25,313.64 Q1143.9688,313.64 1144.5938,313.89 Q1145.2188,314.14 1145.75,314.64 Z " fill="#000000"/><text fill="#000000" font-family="sans-serif" font-size="14" lengthAdjust="spacing" textLength="104" x="1164.25" y="323.8685">ServerController</text><line style="stroke:#181818;stroke-width:0.5;" x1="1010" x2="1390" y1="334.14" y2="334.14"/><line style="stroke:#181818;stroke-width:0.5;" x1="1010" x2="1390" y1="342.14" y2="342.14"/><text fill="#000000" font-family="sans-serif" font-size="14" lengthAdjust="spacing" textLength="145" x="1015" y="360.6732">+LobbyView joinGame(</text><text fill="#000000" font-family="sans-serif" font-size="14" lengthAdjust="spacing" textLength="70" x="1063" y="378.2826">String nick,</text><text fill="#000000" font-family="sans-serif" font-size="14" lengthAdjust="spacing" textLength="242" x="1063" y="395.892">LobbyUpdaterFactory updaterFactory,</text><text fill="#000000" font-family="sans-serif" font-size="14" lengthAdjust="spacing" textLength="322" x="1063" y="413.5013">Supplier&lt;GameController&gt; gameControllerFactory)</text></g><!--MD5=[0894e7f9e8f299630623c4febf5823d3]
class GameServerController--><g id="elem_GameServerController"><rect codeLine="32" fill="#F1F1F1" height="122.4375" id="GameServerController" rx="2.5" ry="2.5" style="stroke:#181818;stroke-width:0.5;" width="318" x="656" y="300.14"/><ellipse cx="739.75" cy="316.14" fill="#ADD1B2" rx="11" ry="11" style="stroke:#181818;stroke-width:1.0;"/><path d="M741.75,312.64 Q741.9531,312.14 742.1875,311.89 Q742.4219,311.64 742.6875,311.64 Q743.1563,311.64 743.4531,311.9213 Q743.75,312.2025 743.75,312.8588 L743.75,314.4213 Q743.75,315.0775 743.4688,315.3588 Q743.1875,315.64 742.75,315.64 Q742.3594,315.64 742.1094,315.4681 Q741.8594,315.2963 741.75,314.8431 Q741.7031,314.5306 741.5313,314.3588 Q741.2188,314.0306 740.6563,313.8431 Q740.0938,313.64 739.5313,313.64 Q738.8281,313.64 738.2344,313.9213 Q737.6563,314.2025 737.2031,314.8275 Q736.75,315.4525 736.75,316.3119 L736.75,317.2338 Q736.75,318.265 737.5938,318.9525 Q738.4375,319.64 739.9375,319.64 Q740.8281,319.64 741.4531,319.4369 Q741.8125,319.3275 742.2188,318.9681 Q742.4844,318.765 742.625,318.7025 Q742.7656,318.64 742.9375,318.64 Q743.2656,318.64 743.5,318.9056 Q743.75,319.1556 743.75,319.515 Q743.75,319.8588 743.4063,320.265 Q742.9063,320.8588 742.1094,321.1869 Q741.0625,321.64 739.7813,321.64 Q738.2813,321.64 737.0781,321.0463 Q736.1094,320.5775 735.4219,319.5619 Q734.75,318.5463 734.75,317.3431 L734.75,316.2494 Q734.75,314.9994 735.3438,313.9056 Q735.9531,312.8119 737,312.2338 Q738.0625,311.64 739.25,311.64 Q739.9688,311.64 740.5938,311.89 Q741.2188,312.14 741.75,312.64 Z " fill="#000000"/><text fill="#000000" font-family="sans-serif" font-size="14" lengthAdjust="spacing" textLength="142" x="760.25" y="321.8685">GameServerController</text><line style="stroke:#181818;stroke-width:0.5;" x1="657" x2="973" y1="332.14" y2="332.14"/><text fill="#000000" font-family="sans-serif" font-size="14" lengthAdjust="spacing" textLength="209" x="662" y="350.6732">This is the actual game controller</text><line style="stroke:#181818;stroke-width:0.5;" x1="657" x2="973" y1="357.7494" y2="357.7494"/><text fill="#000000" font-family="sans-serif" font-size="14" lengthAdjust="spacing" textLength="82" x="662" y="376.2826">-Game game</text><text fill="#000000" font-family="sans-serif" font-size="14" lengthAdjust="spacing" textLength="306" x="662" y="415.5013">+makeMoveExample(Player player, Move move);</text><line style="stroke:#181818;stroke-width:0.5;" x1="657" x2="661.5" y1="392.1634" y2="392.1634"/><text fill="#000000" font-family="sans-serif" font-size="14" lengthAdjust="spacing" textLength="307" x="661.5" y="397.392">game controlling overloaded with player instance</text><line style="stroke:#181818;stroke-width:0.5;" x1="968.5" x2="973" y1="392.1634" y2="392.1634"/></g><!--MD5=[73fa19913d5863a282a2e0f15cbd324b]
class ClientNetManager--><g id="elem_ClientNetManager"><rect codeLine="42" fill="#F1F1F1" height="65.6094" id="ClientNetManager" rx="2.5" ry="2.5" style="stroke:#181818;stroke-width:0.5;" width="292" x="696" y="105.64"/><ellipse cx="780.25" cy="121.64" fill="#B4A7E5" rx="11" ry="11" style="stroke:#181818;stroke-width:1.0;"/><path d="M781.25,118.64 L781.25,124.64 L783.25,124.64 L783.7344,124.64 L784.25,125.265 L784.25,125.64 L784.25,126.015 L783.7344,126.64 L783.25,126.64 L777.25,126.64 L776.7656,126.64 L776.25,126.015 L776.25,125.64 L776.25,125.265 L776.7656,124.64 L777.25,124.64 L779.25,124.64 L779.25,118.64 L777.25,118.64 L776.7656,118.64 L776.25,118.015 L776.25,117.64 L776.25,117.265 L776.7656,116.64 L777.25,116.64 L783.25,116.64 L783.7344,116.64 L784.25,117.265 L784.25,117.64 L784.25,118.015 L783.7344,118.64 L783.25,118.64 L781.25,118.64 Z " fill="#000000"/><text fill="#000000" font-family="sans-serif" font-size="14" font-style="italic" lengthAdjust="spacing" textLength="115" x="800.75" y="127.3685">ClientNetManager</text><line style="stroke:#181818;stroke-width:0.5;" x1="697" x2="987" y1="137.64" y2="137.64"/><line style="stroke:#181818;stroke-width:0.5;" x1="697" x2="987" y1="145.64" y2="145.64"/><text fill="#000000" font-family="sans-serif" font-size="14" lengthAdjust="spacing" textLength="280" x="702" y="164.1732">LobbyView establishConnection(String nick);</text></g><!--MD5=[587bc54b48b309c2318bed941bbac091]
link LobbyView to GameAndController--><g id="link_LobbyView_GameAndController"><path codeLine="8" d="M207.56,171.7 C231.69,204.55 269.83,256.47 299.98,297.5 " fill="none" id="LobbyView-to-GameAndController" style="stroke:#181818;stroke-width:1.0;"/><polygon fill="#181818" points="303.24,301.94,301.1389,292.3179,300.2813,297.9093,294.6899,297.0518,303.24,301.94" style="stroke:#181818;stroke-width:1.0;"/><text fill="#000000" font-family="sans-serif" font-size="13" lengthAdjust="spacing" textLength="135" x="247" y="224.6351">provides asyncronously</text></g><!--MD5=[50059220e0a04b9b8a76858c6913696d]
link GameController to GameAndController--><g id="link_GameController_GameAndController"><path codeLine="17" d="M463.42,180.34 C443.24,211.24 415.02,254.46 391.3,290.78 " fill="none" id="GameController-to-GameAndController" style="stroke:#181818;stroke-width:1.0;"/><polygon fill="#181818" points="384.09,301.81,390.7182,298.9697,390.6456,291.7589,384.0175,294.5993,384.09,301.81" style="stroke:#181818;stroke-width:1.0;"/><text fill="#000000" font-family="sans-serif" font-size="13" lengthAdjust="spacing" textLength="7" x="451.626" y="201.7666">1</text></g><!--MD5=[49e7b68986644c603270653bcfbf1168]
link ClientNetManager to LobbyView--><g id="link_ClientNetManager_LobbyView"><path codeLine="46" d="M787.23,105.43 C742.85,80.56 677.77,48.61 616,35.14 C506.14,11.18 471.6,6 363,35.14 C314.19,48.24 264.93,78.23 230.48,102.57 " fill="none" id="ClientNetManager-to-LobbyView" style="stroke:#181818;stroke-width:1.0;"/><polygon fill="#181818" points="226.35,105.51,236.0044,103.5626,230.4273,102.616,231.3739,97.0389,226.35,105.51" style="stroke:#181818;stroke-width:1.0;"/><text fill="#000000" font-family="sans-serif" font-size="13" lengthAdjust="spacing" textLength="47" x="477.5" y="21.6351">provides</text></g><!--MD5=[078af32c24389ba2b38f4e10ea78f2a2]
link ClientNetManager to ServerController--><g id="link_ClientNetManager_ServerController"><path codeLine="49" d="M985.27,171.72 C1013.64,181.54 1042.26,194.12 1067,210.14 C1102.23,232.95 1133.78,267.55 1157.3,297.78 " fill="none" id="ClientNetManager-to-ServerController" style="stroke:#181818;stroke-width:1.0;stroke-dasharray:7.0,7.0;"/><polygon fill="#181818" points="1160.42,301.82,1158.0831,292.2524,1157.3632,297.8633,1151.7523,297.1433,1160.42,301.82" style="stroke:#181818;stroke-width:1.0;"/><text fill="#000000" font-family="sans-serif" font-size="13" lengthAdjust="spacing" textLength="169" x="1089" y="224.6351">calls via a rmi/socket adapter</text></g><!--MD5=[c620c53bd0c9a67e894c4233199006d3]
link ServerController to ClientNetManager--><g id="link_ServerController_ClientNetManager"><path codeLine="50" d="M1122.74,302.03 C1085.27,277.11 1038.4,250.47 992,236.14 C978.17,231.87 873.02,237.52 862,228.14 C847.42,215.73 842.17,195.15 840.69,176.96 " fill="none" id="ServerController-to-ClientNetManager" style="stroke:#181818;stroke-width:1.0;stroke-dasharray:7.0,7.0;"/><polygon fill="#181818" points="840.36,171.9,836.9605,181.1436,840.6888,176.8892,844.9432,180.6175,840.36,171.9" style="stroke:#181818;stroke-width:1.0;"/><text fill="#000000" font-family="sans-serif" font-size="13" lengthAdjust="spacing" textLength="195" x="863" y="224.6351">responds via a rmi/socket adapter</text></g><!--MD5=[e5575ccfb666b46dddf8ba2f3ddb8c9d]
link GameController to GameServerController--><g id="link_GameController_GameServerController"><path codeLine="51" d="M549.99,180.34 C598.25,213.09 666.91,259.67 722.25,297.21 " fill="none" id="GameController-to-GameServerController" style="stroke:#181818;stroke-width:1.0;stroke-dasharray:7.0,7.0;"/><polygon fill="#181818" points="726.54,300.13,721.343,291.764,722.404,297.3204,716.8476,298.3815,726.54,300.13" style="stroke:#181818;stroke-width:1.0;"/><text fill="#000000" font-family="sans-serif" font-size="13" lengthAdjust="spacing" textLength="169" x="615" y="224.6351">calls via a rmi/socket adapter</text></g><!--MD5=[55275984a2693cc90c026177c3407fc0]
@startuml
skinparam classAttributeIconSize 0

package common {
    interface LobbyView {
        Provider<@Nullable GameAndController> game()
    }

    LobbyView - -> GameAndController : provides asyncronously
    class GameAndController {
        - GameView model;
        - GameController controller;

        + GameView getModel();
        + GameController getController();
    }

    GameController "1" - -* GameAndController
    interface GameController {
        ... game controlling methods
        makeMoveExample(Move move);
    }
}

package server {
    class ServerController {
        + LobbyView joinGame( \n            String nick, \n            LobbyUpdaterFactory updaterFactory, \n            Supplier<GameController> gameControllerFactory)
    }

    class GameServerController {
        This is the actual game controller
        __
        - Game game
        __ game controlling overloaded with player instance __
        + makeMoveExample(Player player, Move move);
    }
}

package client {
    interface ClientNetManager {
        LobbyView establishConnection(String nick);
    }

    ClientNetManager - -> LobbyView : provides
}

ClientNetManager ..> ServerController : calls via a rmi/socket adapter
ServerController ..> ClientNetManager : responds via a rmi/socket adapter
GameController ..> GameServerController : calls via a rmi/socket adapter

@enduml

PlantUML version 1.2022.12(Sun Oct 23 20:12:26 CEST 2022)
(GPL source distribution)
Java Runtime: OpenJDK Runtime Environment
JVM: OpenJDK 64-Bit Server VM
Default Encoding: Cp1252
Language: it
Country: IT
--></g></svg>